G04*
G04 #@! TF.GenerationSoftware,Altium Limited,Altium Designer,24.5.2 (23)*
G04*
G04 Layer_Physical_Order=1*
G04 Layer_Color=255*
%FSLAX25Y25*%
%MOIN*%
G70*
G04*
G04 #@! TF.SameCoordinates,A3EE7E3D-644A-413E-805A-332511BBF122*
G04*
G04*
G04 #@! TF.FilePolarity,Positive*
G04*
G01*
G75*
%ADD13C,0.00600*%
%ADD14C,0.01000*%
%ADD33R,0.03819X0.03543*%
%ADD34R,0.04016X0.03937*%
%ADD35R,0.03543X0.03819*%
%ADD36R,0.03937X0.04016*%
%ADD37R,0.01181X0.05512*%
%ADD38R,0.03937X0.03937*%
G04:AMPARAMS|DCode=39|XSize=9.45mil|YSize=57.87mil|CornerRadius=1.18mil|HoleSize=0mil|Usage=FLASHONLY|Rotation=270.000|XOffset=0mil|YOffset=0mil|HoleType=Round|Shape=RoundedRectangle|*
%AMROUNDEDRECTD39*
21,1,0.00945,0.05551,0,0,270.0*
21,1,0.00709,0.05787,0,0,270.0*
1,1,0.00236,-0.02776,-0.00354*
1,1,0.00236,-0.02776,0.00354*
1,1,0.00236,0.02776,0.00354*
1,1,0.00236,0.02776,-0.00354*
%
%ADD39ROUNDEDRECTD39*%
G04:AMPARAMS|DCode=40|XSize=57.87mil|YSize=9.45mil|CornerRadius=1.18mil|HoleSize=0mil|Usage=FLASHONLY|Rotation=270.000|XOffset=0mil|YOffset=0mil|HoleType=Round|Shape=RoundedRectangle|*
%AMROUNDEDRECTD40*
21,1,0.05787,0.00709,0,0,270.0*
21,1,0.05551,0.00945,0,0,270.0*
1,1,0.00236,-0.00354,-0.02776*
1,1,0.00236,-0.00354,0.02776*
1,1,0.00236,0.00354,0.02776*
1,1,0.00236,0.00354,-0.02776*
%
%ADD40ROUNDEDRECTD40*%
%ADD41R,0.07480X0.01575*%
%ADD42R,0.04764X0.02284*%
%ADD43R,0.17717X0.06890*%
%ADD44R,0.01575X0.04685*%
%ADD45R,0.01575X0.01968*%
%ADD46R,0.00984X0.06102*%
%ADD47R,0.09843X0.06102*%
%ADD48R,0.08071X0.09843*%
%ADD49R,0.05118X0.06102*%
%ADD50C,0.02000*%
%ADD51C,0.00800*%
%ADD52C,0.01500*%
%ADD53C,0.27559*%
%ADD54C,0.01811*%
G36*
X1196048Y803D02*
X-58252D01*
Y162583D01*
X500730D01*
X516934Y142496D01*
X516967Y142468D01*
X516991Y142432D01*
X517087Y142369D01*
X517175Y142295D01*
X517216Y142282D01*
X517252Y142258D01*
X517364Y142236D01*
X517474Y142202D01*
X517517Y142206D01*
X517559Y142197D01*
X619921D01*
X619975Y142208D01*
X620030Y142205D01*
X620128Y142238D01*
X620228Y142258D01*
X620274Y142289D01*
X620327Y142307D01*
X620403Y142375D01*
X620489Y142432D01*
X620520Y142478D01*
X620561Y142515D01*
X635784Y162583D01*
X1196048D01*
Y803D01*
D02*
G37*
%LPC*%
G36*
X714337Y134924D02*
X709718D01*
Y130580D01*
X714337D01*
Y132771D01*
X715887D01*
Y132297D01*
X724168D01*
Y134672D01*
X715887D01*
Y134198D01*
X714337D01*
Y134924D01*
D02*
G37*
G36*
X724368Y130147D02*
X720328D01*
Y129060D01*
X724368D01*
Y130147D01*
D02*
G37*
G36*
X719728D02*
X715687D01*
Y129060D01*
X719728D01*
Y130147D01*
D02*
G37*
G36*
X757635Y131316D02*
X755328D01*
Y129048D01*
X757635D01*
Y131316D01*
D02*
G37*
G36*
X749135D02*
X746828D01*
Y129048D01*
X749135D01*
Y131316D01*
D02*
G37*
G36*
X743135D02*
X740828D01*
Y129048D01*
X743135D01*
Y131316D01*
D02*
G37*
G36*
X736635D02*
X734328D01*
Y129048D01*
X736635D01*
Y131316D01*
D02*
G37*
G36*
X730635D02*
X728328D01*
Y129048D01*
X730635D01*
Y131316D01*
D02*
G37*
G36*
X708635D02*
X706327D01*
Y129048D01*
X708635D01*
Y131316D01*
D02*
G37*
G36*
X702635D02*
X700327D01*
Y129048D01*
X702635D01*
Y131316D01*
D02*
G37*
G36*
X754728D02*
X752420D01*
Y129048D01*
X754728D01*
Y131316D01*
D02*
G37*
G36*
X746228D02*
X743920D01*
Y129048D01*
X746228D01*
Y131316D01*
D02*
G37*
G36*
X740228D02*
X737920D01*
Y129048D01*
X740228D01*
Y131316D01*
D02*
G37*
G36*
X733728D02*
X731420D01*
Y129048D01*
X733728D01*
Y131316D01*
D02*
G37*
G36*
X727728D02*
X725420D01*
Y129048D01*
X727728D01*
Y131316D01*
D02*
G37*
G36*
X705727D02*
X703420D01*
Y129048D01*
X705727D01*
Y131316D01*
D02*
G37*
G36*
X699727D02*
X697420D01*
Y129048D01*
X699727D01*
Y131316D01*
D02*
G37*
G36*
X724368Y128460D02*
X720328D01*
Y127372D01*
X724368D01*
Y128460D01*
D02*
G37*
G36*
X719728D02*
X715687D01*
Y127372D01*
X719728D01*
Y128460D01*
D02*
G37*
G36*
X757635Y128448D02*
X755328D01*
Y126180D01*
X757635D01*
Y128448D01*
D02*
G37*
G36*
X754728D02*
X752420D01*
Y126180D01*
X754728D01*
Y128448D01*
D02*
G37*
G36*
X749135D02*
X746828D01*
Y126180D01*
X749135D01*
Y128448D01*
D02*
G37*
G36*
X746228D02*
X743920D01*
Y126180D01*
X746228D01*
Y128448D01*
D02*
G37*
G36*
X743135D02*
X740828D01*
Y126180D01*
X743135D01*
Y128448D01*
D02*
G37*
G36*
X740228D02*
X737920D01*
Y126180D01*
X740228D01*
Y128448D01*
D02*
G37*
G36*
X736635D02*
X734328D01*
Y126180D01*
X736635D01*
Y128448D01*
D02*
G37*
G36*
X733728D02*
X731420D01*
Y126180D01*
X733728D01*
Y128448D01*
D02*
G37*
G36*
X730635D02*
X728328D01*
Y126180D01*
X730635D01*
Y128448D01*
D02*
G37*
G36*
X727728D02*
X725420D01*
Y126180D01*
X727728D01*
Y128448D01*
D02*
G37*
G36*
X708635D02*
X706327D01*
Y126180D01*
X708635D01*
Y128448D01*
D02*
G37*
G36*
X705727D02*
X703420D01*
Y126180D01*
X705727D01*
Y128448D01*
D02*
G37*
G36*
X702635D02*
X700327D01*
Y126180D01*
X702635D01*
Y128448D01*
D02*
G37*
G36*
X699727D02*
X697420D01*
Y126180D01*
X699727D01*
Y128448D01*
D02*
G37*
G36*
X714337Y128939D02*
X709718D01*
Y124596D01*
X711314D01*
Y123436D01*
X710944Y123283D01*
X710892Y123335D01*
X710313Y123575D01*
X709687D01*
X709108Y123335D01*
X708835Y123063D01*
X708435Y123228D01*
Y125140D01*
X703620D01*
Y120403D01*
X707426D01*
X709205Y118624D01*
X709179Y118208D01*
X708852Y117990D01*
X708833Y117996D01*
X708744Y118033D01*
X708035D01*
X707946Y117996D01*
X707602Y117881D01*
X707259Y117996D01*
X707169Y118033D01*
X706461D01*
X706064Y117869D01*
X705991Y117869D01*
X705594Y118033D01*
X704886D01*
X704489Y117869D01*
X704416Y117869D01*
X704020Y118033D01*
X703311D01*
X703204Y117989D01*
X702804Y118256D01*
Y120748D01*
X702750Y121021D01*
X702595Y121253D01*
X702435Y121413D01*
Y125140D01*
X697620D01*
Y124173D01*
X697220Y124007D01*
X697120Y124107D01*
X696542Y124346D01*
X695915D01*
X695336Y124107D01*
X694893Y123664D01*
X694654Y123085D01*
Y122458D01*
X694893Y121880D01*
X695336Y121437D01*
X695915Y121197D01*
X696542D01*
X697120Y121437D01*
X697220Y121536D01*
X697620Y121370D01*
Y120403D01*
X701377D01*
Y117884D01*
X701340Y117869D01*
X701175Y117472D01*
Y111921D01*
X701340Y111525D01*
X701736Y111361D01*
X702445D01*
X702469Y111370D01*
X702869Y111103D01*
Y110312D01*
X702536Y110089D01*
X702389Y110151D01*
X701762D01*
X701184Y109911D01*
X700741Y109468D01*
X700501Y108889D01*
Y108262D01*
X700668Y107860D01*
X700039Y107232D01*
X699640Y107397D01*
Y107689D01*
X699517Y107984D01*
X699597Y108037D01*
X699755Y108275D01*
X699811Y108555D01*
Y108609D01*
X696303D01*
X692795D01*
Y108555D01*
X692817Y108448D01*
X692558Y108048D01*
X690384D01*
Y110168D01*
X689214D01*
Y111204D01*
X692296Y114286D01*
X693091D01*
X693165Y114108D01*
X693608Y113665D01*
X694187Y113425D01*
X694813D01*
X695392Y113665D01*
X695835Y114108D01*
X696075Y114687D01*
Y115313D01*
X695835Y115892D01*
X695392Y116335D01*
X694813Y116575D01*
X694187D01*
X693608Y116335D01*
X693165Y115892D01*
X693091Y115714D01*
X692000D01*
X691727Y115659D01*
X691495Y115505D01*
X687995Y112005D01*
X687841Y111773D01*
X687786Y111500D01*
Y110168D01*
X685647D01*
Y105352D01*
X687311D01*
X687390Y104952D01*
X687108Y104835D01*
X686665Y104392D01*
X686425Y103813D01*
Y103187D01*
X686665Y102608D01*
X687108Y102165D01*
X687302Y102085D01*
Y101668D01*
X685647D01*
Y96852D01*
X690384D01*
Y97172D01*
X692558D01*
X692817Y96772D01*
X692795Y96665D01*
Y96611D01*
X696303D01*
Y96011D01*
X692795D01*
Y95957D01*
X692817Y95850D01*
X692558Y95450D01*
X690384D01*
Y95668D01*
X685647D01*
Y90852D01*
X690384D01*
Y94023D01*
X692744D01*
X693011Y93622D01*
X692967Y93516D01*
Y92807D01*
X693131Y92411D01*
X693131Y92338D01*
X692967Y91941D01*
Y91232D01*
X693131Y90836D01*
X693131Y90763D01*
X692967Y90366D01*
Y89657D01*
X693011Y89551D01*
X692744Y89151D01*
X690384D01*
Y89668D01*
X685647D01*
Y86427D01*
X685334D01*
X685008Y86292D01*
X684608Y86559D01*
Y86960D01*
X682339D01*
Y84652D01*
X684072D01*
Y84539D01*
X684185Y84268D01*
X683917Y83868D01*
X682339D01*
Y81260D01*
X682039D01*
Y80960D01*
X679471D01*
Y78714D01*
X677664D01*
Y80309D01*
X673320D01*
Y75691D01*
X677664D01*
Y77286D01*
X679471D01*
Y75560D01*
X684608D01*
Y77286D01*
X685647D01*
Y72852D01*
X689993D01*
X690159Y72452D01*
X689375Y71668D01*
X685647D01*
Y68427D01*
X685334D01*
X685008Y68292D01*
X684608Y68559D01*
Y68960D01*
X682339D01*
Y66652D01*
X684072D01*
Y66539D01*
X684312Y65960D01*
X684755Y65517D01*
X685334Y65277D01*
X685960D01*
X686539Y65517D01*
X686982Y65960D01*
X687222Y66539D01*
Y66852D01*
X690384D01*
Y70658D01*
X691701Y71975D01*
X692558D01*
X692817Y71575D01*
X692795Y71469D01*
Y71414D01*
X696303D01*
Y70814D01*
X692795D01*
Y70760D01*
X692851Y70480D01*
X693010Y70242D01*
X693089Y70189D01*
X692967Y69894D01*
Y69185D01*
X693131Y68788D01*
X693131Y68715D01*
X692967Y68319D01*
Y67610D01*
X693131Y67214D01*
X693131Y67141D01*
X692967Y66744D01*
Y66035D01*
X693131Y65639D01*
X693131Y65566D01*
X692967Y65169D01*
Y64461D01*
X693131Y64064D01*
X693131Y63991D01*
X692967Y63595D01*
Y62886D01*
X693131Y62489D01*
X693131Y62416D01*
X692967Y62020D01*
Y61311D01*
X693011Y61204D01*
X692744Y60804D01*
X690384D01*
Y61658D01*
X690391Y61665D01*
X690813D01*
X691392Y61905D01*
X691835Y62348D01*
X692075Y62927D01*
Y63553D01*
X691835Y64132D01*
X691392Y64575D01*
X690813Y64815D01*
X690187D01*
X689608Y64575D01*
X689165Y64132D01*
X688925Y63553D01*
Y62927D01*
X688752Y62668D01*
X685647D01*
Y57852D01*
X690384D01*
Y59377D01*
X693116D01*
X693131Y59340D01*
X693528Y59175D01*
X699079D01*
X699475Y59340D01*
X699640Y59736D01*
Y60181D01*
X700039Y60347D01*
X700356Y60030D01*
X700935Y59791D01*
X701561D01*
X702140Y60030D01*
X702583Y60473D01*
X702780Y60949D01*
X702955Y61310D01*
X703581D01*
X704127Y61536D01*
X704527Y61393D01*
Y57863D01*
X704126Y57595D01*
X704020Y57639D01*
X703311D01*
X703016Y57517D01*
X702963Y57596D01*
X702725Y57755D01*
X702445Y57811D01*
X702391D01*
Y54303D01*
Y50795D01*
X702445D01*
X702552Y50817D01*
X702952Y50558D01*
Y48116D01*
X701120D01*
Y46462D01*
X700048D01*
X697714Y48796D01*
Y51591D01*
X697892Y51665D01*
X698335Y52108D01*
X698575Y52687D01*
Y53313D01*
X698335Y53892D01*
X697892Y54335D01*
X697313Y54575D01*
X696687D01*
X696108Y54335D01*
X695665Y53892D01*
X695425Y53313D01*
Y52687D01*
X695665Y52108D01*
X696108Y51665D01*
X696286Y51591D01*
Y48500D01*
X696341Y48227D01*
X696495Y47995D01*
X699247Y45243D01*
X699479Y45089D01*
X699752Y45034D01*
X701120D01*
Y43380D01*
X705935D01*
Y48116D01*
X704379D01*
Y50744D01*
X704779Y51011D01*
X704886Y50967D01*
X705594D01*
X705684Y51004D01*
X706028Y51119D01*
X706371Y51004D01*
X706461Y50967D01*
X707169D01*
X707259Y51004D01*
X707602Y51119D01*
X707946Y51004D01*
X708035Y50967D01*
X708744D01*
X709141Y51131D01*
X709214Y51131D01*
X709610Y50967D01*
X710319D01*
X710408Y51004D01*
X710752Y51119D01*
X711096Y51004D01*
X711185Y50967D01*
X711894D01*
X711983Y51004D01*
X712327Y51119D01*
X712671Y51004D01*
X712760Y50967D01*
X713469D01*
X713575Y51011D01*
X713975Y50744D01*
Y48116D01*
X712620D01*
Y47130D01*
X712220Y46907D01*
X711813Y47075D01*
X711187D01*
X710608Y46835D01*
X710165Y46392D01*
X709925Y45813D01*
Y45187D01*
X710165Y44608D01*
X710608Y44165D01*
X711187Y43925D01*
X711813D01*
X712220Y44093D01*
X712620Y43870D01*
Y43380D01*
X717435D01*
Y47714D01*
X717835Y47880D01*
X718620Y47095D01*
Y43368D01*
X723435D01*
Y44272D01*
X723835Y44438D01*
X724108Y44165D01*
X724687Y43925D01*
X725313D01*
X725720Y44093D01*
X726120Y43870D01*
Y43380D01*
X730935D01*
Y47726D01*
X730935Y47734D01*
X730935Y47734D01*
X730935Y47797D01*
X731335Y47961D01*
X731352Y47951D01*
X731416Y47856D01*
X731507Y47720D01*
X732120Y47107D01*
Y43380D01*
X736935D01*
Y48116D01*
X733129D01*
X732725Y48520D01*
Y50744D01*
X733124Y51010D01*
X733143Y51004D01*
X733232Y50967D01*
X733941D01*
X734030Y51004D01*
X734374Y51119D01*
X734718Y51004D01*
X734807Y50967D01*
X735516D01*
X735605Y51004D01*
X735949Y51119D01*
X736293Y51004D01*
X736382Y50967D01*
X737090D01*
X737180Y51004D01*
X737524Y51119D01*
X737867Y51004D01*
X737957Y50967D01*
X738665D01*
X739062Y51131D01*
X739135Y51131D01*
X739532Y50967D01*
X740240D01*
X740330Y51004D01*
X740673Y51119D01*
X741017Y51004D01*
X741106Y50967D01*
X741815D01*
X741904Y51004D01*
X742248Y51119D01*
X742592Y51004D01*
X742681Y50967D01*
X743390D01*
X743786Y51131D01*
X743859Y51131D01*
X744256Y50967D01*
X744965D01*
X745054Y51004D01*
X745073Y51010D01*
X745471Y50744D01*
Y48616D01*
X743620D01*
Y47630D01*
X743220Y47407D01*
X742813Y47575D01*
X742187D01*
X741608Y47335D01*
X741165Y46892D01*
X740925Y46313D01*
Y45687D01*
X741165Y45108D01*
X741608Y44665D01*
X742187Y44425D01*
X742813D01*
X743220Y44594D01*
X743620Y44370D01*
Y43880D01*
X748435D01*
Y48267D01*
X748812Y48391D01*
X748835Y48391D01*
X749620Y47607D01*
Y43880D01*
X754435D01*
Y48616D01*
X750629D01*
X750048Y49197D01*
Y50558D01*
X750448Y50817D01*
X750555Y50795D01*
X750609D01*
Y54303D01*
Y57811D01*
X750555D01*
X750448Y57790D01*
X750048Y58048D01*
Y59665D01*
X749994Y59939D01*
X749839Y60170D01*
X749501Y60508D01*
X749575Y60687D01*
Y61313D01*
X749335Y61892D01*
X748892Y62335D01*
X748313Y62575D01*
X747687D01*
X747108Y62335D01*
X746665Y61892D01*
X746425Y61313D01*
Y60687D01*
X746665Y60108D01*
X747108Y59665D01*
X747687Y59425D01*
X748313D01*
X748621Y59120D01*
Y58048D01*
X748221Y57790D01*
X748114Y57811D01*
X748060D01*
Y54303D01*
X747460D01*
Y57811D01*
X747405D01*
X747125Y57755D01*
X746888Y57596D01*
X746835Y57517D01*
X746539Y57639D01*
X745831D01*
X745741Y57603D01*
X745398Y57487D01*
X745054Y57603D01*
X744965Y57639D01*
X744256D01*
X743859Y57475D01*
X743786Y57475D01*
X743390Y57639D01*
X742681D01*
X742592Y57603D01*
X742248Y57487D01*
X741904Y57603D01*
X741815Y57639D01*
X741106D01*
X741017Y57603D01*
X740673Y57487D01*
X740330Y57603D01*
X740240Y57639D01*
X739532D01*
X739135Y57475D01*
X739062Y57475D01*
X738665Y57639D01*
X737957D01*
X737867Y57603D01*
X737524Y57487D01*
X737180Y57603D01*
X737090Y57639D01*
X736382D01*
X736293Y57603D01*
X736274Y57596D01*
X735875Y57863D01*
Y59809D01*
X736140Y60074D01*
X736295Y60306D01*
X736350Y60579D01*
Y63147D01*
X736392Y63165D01*
X736835Y63608D01*
X737075Y64187D01*
Y64813D01*
X736835Y65392D01*
X736392Y65835D01*
X735813Y66075D01*
X735187D01*
X734608Y65835D01*
X734165Y65392D01*
X733925Y64813D01*
Y64187D01*
X733895Y64141D01*
X733448D01*
X732869Y63902D01*
X732426Y63459D01*
X732186Y62880D01*
Y62253D01*
X732386Y61770D01*
X732172Y61487D01*
X732120Y61448D01*
X731813Y61575D01*
X731187D01*
X730608Y61335D01*
X730165Y60892D01*
X729925Y60313D01*
Y59687D01*
X730165Y59108D01*
X730608Y58665D01*
X731187Y58425D01*
X731298D01*
Y58048D01*
X730898Y57790D01*
X730791Y57811D01*
X730737D01*
Y54303D01*
X730137D01*
Y57811D01*
X730083D01*
X729803Y57755D01*
X729565Y57596D01*
X729512Y57517D01*
X729216Y57639D01*
X728508D01*
X728418Y57603D01*
X728235Y57541D01*
X727857Y57744D01*
Y72651D01*
X727892Y72665D01*
X728335Y73108D01*
X728575Y73687D01*
Y74313D01*
X728335Y74892D01*
X727892Y75335D01*
X727313Y75575D01*
X726687D01*
X726108Y75335D01*
X725665Y74892D01*
X725425Y74313D01*
Y73687D01*
X725665Y73108D01*
X726108Y72665D01*
X726111Y72664D01*
Y72644D01*
X726104Y72635D01*
X725711Y72410D01*
X725313Y72575D01*
X724687D01*
X724586Y72533D01*
X724140Y72781D01*
X724122Y72895D01*
X724335Y73108D01*
X724575Y73687D01*
Y74313D01*
X724335Y74892D01*
X723892Y75335D01*
X723313Y75575D01*
X722687D01*
X722108Y75335D01*
X721665Y74892D01*
X721425Y74313D01*
Y73687D01*
X721665Y73108D01*
X722108Y72665D01*
X722107Y72646D01*
X722104Y72642D01*
X721690Y72419D01*
X721313Y72575D01*
X720687D01*
X720432Y72469D01*
X720008Y72727D01*
X720004Y72776D01*
X720335Y73108D01*
X720575Y73687D01*
Y74313D01*
X720335Y74892D01*
X719892Y75335D01*
X719313Y75575D01*
X718687D01*
X718108Y75335D01*
X717665Y74892D01*
X717425Y74313D01*
Y73687D01*
X717665Y73108D01*
X718108Y72665D01*
X718286Y72591D01*
Y70000D01*
X718341Y69727D01*
X718495Y69495D01*
X719125Y68866D01*
Y67907D01*
X718755Y67754D01*
X718001Y68508D01*
X718075Y68687D01*
Y69313D01*
X717835Y69892D01*
X717392Y70335D01*
X716813Y70575D01*
X716187D01*
X715608Y70335D01*
X715584Y70311D01*
X715228Y70493D01*
X715214Y70507D01*
Y72591D01*
X715392Y72665D01*
X715835Y73108D01*
X716075Y73687D01*
Y74313D01*
X715835Y74892D01*
X715392Y75335D01*
X714813Y75575D01*
X714187D01*
X713608Y75335D01*
X713165Y74892D01*
X712925Y74313D01*
Y73687D01*
X713165Y73108D01*
X713608Y72665D01*
X713786Y72591D01*
Y71546D01*
X713386Y71466D01*
X713210Y71892D01*
X712767Y72335D01*
X712188Y72575D01*
X711561D01*
X710983Y72335D01*
X710540Y71892D01*
X710300Y71313D01*
Y70687D01*
X710540Y70108D01*
X710983Y69665D01*
X711161Y69591D01*
Y67089D01*
X710761Y66889D01*
X710313Y67075D01*
X709687D01*
X709239Y66889D01*
X708839Y67089D01*
Y69275D01*
X709017Y69349D01*
X709460Y69792D01*
X709700Y70370D01*
Y70997D01*
X709460Y71576D01*
X709017Y72019D01*
X708438Y72258D01*
X707812D01*
X707429Y72100D01*
X707123Y72406D01*
X707239Y72687D01*
Y73313D01*
X707000Y73892D01*
X706557Y74335D01*
X706099Y74524D01*
X705954Y74944D01*
X708796Y77786D01*
X727591D01*
X727665Y77608D01*
X728108Y77165D01*
X728687Y76925D01*
X729313D01*
X729892Y77165D01*
X730335Y77608D01*
X730575Y78187D01*
Y78813D01*
X730335Y79392D01*
X729892Y79835D01*
X729313Y80075D01*
X728687D01*
X728108Y79835D01*
X727665Y79392D01*
X727591Y79214D01*
X708500D01*
X708227Y79159D01*
X707995Y79005D01*
X700251Y71260D01*
X700227Y71244D01*
X700180Y71198D01*
X699811Y71351D01*
Y71469D01*
X699755Y71749D01*
X699597Y71986D01*
X699517Y72039D01*
X699640Y72335D01*
Y73043D01*
X699517Y73339D01*
X699597Y73392D01*
X699755Y73629D01*
X699811Y73909D01*
Y73964D01*
X696303D01*
Y74564D01*
X699811D01*
Y74618D01*
X699790Y74725D01*
X699922Y75029D01*
X700071Y75146D01*
X700236Y75179D01*
X700468Y75334D01*
X701008Y75875D01*
X701187Y75801D01*
X701813D01*
X702392Y76041D01*
X702835Y76484D01*
X703075Y77062D01*
Y77689D01*
X702835Y78268D01*
X702392Y78711D01*
X701813Y78950D01*
X701187D01*
X700608Y78711D01*
X700165Y78268D01*
X700032Y77946D01*
X699640Y77953D01*
X699487Y78265D01*
X699640Y78634D01*
Y79343D01*
X699475Y79739D01*
X699475Y79812D01*
X699640Y80209D01*
Y80917D01*
X699475Y81314D01*
X699475Y81387D01*
X699640Y81783D01*
Y82492D01*
X699595Y82599D01*
X699863Y82999D01*
X704713D01*
X704986Y83053D01*
X705217Y83208D01*
X706508Y84499D01*
X706687Y84425D01*
X707313D01*
X707892Y84665D01*
X708335Y85108D01*
X708575Y85687D01*
Y86313D01*
X708335Y86892D01*
X707892Y87335D01*
X707313Y87575D01*
X706687D01*
X706108Y87335D01*
X705665Y86892D01*
X705425Y86313D01*
Y85687D01*
X705499Y85508D01*
X704417Y84426D01*
X702228D01*
X702113Y84647D01*
X702085Y84826D01*
X702508Y85250D01*
X702687Y85176D01*
X703313D01*
X703892Y85415D01*
X704335Y85858D01*
X704575Y86437D01*
Y87064D01*
X704335Y87642D01*
X703892Y88086D01*
X703313Y88325D01*
X702687D01*
X702108Y88086D01*
X701665Y87642D01*
X701425Y87064D01*
Y86437D01*
X701481Y86302D01*
X701234Y86001D01*
X700048D01*
X699790Y86401D01*
X699811Y86508D01*
Y86562D01*
X696303D01*
Y87162D01*
X699811D01*
Y87217D01*
X699755Y87497D01*
X699597Y87734D01*
X699517Y87787D01*
X699640Y88083D01*
Y88791D01*
X699595Y88898D01*
X699863Y89298D01*
X708761D01*
X709034Y89352D01*
X709266Y89507D01*
X713008Y93249D01*
X713187Y93176D01*
X713813D01*
X714392Y93415D01*
X714835Y93858D01*
X715075Y94437D01*
Y95064D01*
X714835Y95642D01*
X714392Y96086D01*
X713813Y96325D01*
X713187D01*
X712608Y96086D01*
X712165Y95642D01*
X711925Y95064D01*
Y94437D01*
X711999Y94259D01*
X708466Y90725D01*
X706830D01*
X706714Y90946D01*
X706687Y91126D01*
X708778Y93217D01*
X709181Y93050D01*
X709807D01*
X710386Y93290D01*
X710829Y93733D01*
X711069Y94312D01*
Y94938D01*
X710829Y95517D01*
X710386Y95960D01*
X709807Y96200D01*
X709181D01*
X708602Y95960D01*
X708159Y95517D01*
X707919Y94938D01*
Y94377D01*
X705843Y92300D01*
X703562D01*
X703504Y92374D01*
X703461Y92826D01*
X703960Y93325D01*
X704138Y93251D01*
X704765D01*
X705343Y93491D01*
X705786Y93934D01*
X706026Y94513D01*
Y95139D01*
X705786Y95718D01*
X705343Y96161D01*
X704765Y96401D01*
X704138D01*
X703559Y96161D01*
X703116Y95718D01*
X702877Y95139D01*
Y94513D01*
X702950Y94335D01*
X702660Y94044D01*
X700619D01*
X700454Y94444D01*
X704296Y98286D01*
X713091D01*
X713165Y98108D01*
X713608Y97665D01*
X714187Y97425D01*
X714813D01*
X715392Y97665D01*
X715835Y98108D01*
X716075Y98687D01*
Y99313D01*
X715835Y99892D01*
X715392Y100335D01*
X714813Y100575D01*
X714187D01*
X713608Y100335D01*
X713165Y99892D01*
X713091Y99714D01*
X704000D01*
X703727Y99659D01*
X703495Y99505D01*
X700211Y96220D01*
X699811Y96386D01*
Y96665D01*
X699755Y96946D01*
X699597Y97183D01*
X699517Y97236D01*
X699640Y97531D01*
Y98240D01*
X699475Y98637D01*
X699475Y98710D01*
X699640Y99106D01*
Y99815D01*
X699475Y100212D01*
X699475Y100285D01*
X699640Y100681D01*
Y101390D01*
X699475Y101786D01*
X699475Y101859D01*
X699640Y102256D01*
Y102965D01*
X699475Y103361D01*
X699475Y103434D01*
X699640Y103831D01*
Y104539D01*
X699575Y104694D01*
X699585Y104770D01*
X699804Y105130D01*
X699898Y105148D01*
X700130Y105303D01*
X701827Y107001D01*
X702389D01*
X702469Y107034D01*
X702869Y106767D01*
Y105943D01*
X702608Y105835D01*
X702165Y105392D01*
X701925Y104813D01*
Y104187D01*
X702165Y103608D01*
X702608Y103165D01*
X703187Y102925D01*
X703746D01*
X703935Y102742D01*
X704038Y102585D01*
X703925Y102313D01*
Y101687D01*
X704165Y101108D01*
X704608Y100665D01*
X705187Y100425D01*
X705813D01*
X706392Y100665D01*
X706835Y101108D01*
X707075Y101687D01*
Y102313D01*
X706962Y102585D01*
X707065Y102742D01*
X707254Y102925D01*
X707746D01*
X707935Y102742D01*
X708038Y102585D01*
X707925Y102313D01*
Y101687D01*
X708165Y101108D01*
X708608Y100665D01*
X709187Y100425D01*
X709813D01*
X710392Y100665D01*
X710835Y101108D01*
X711075Y101687D01*
Y102313D01*
X710835Y102892D01*
X710392Y103335D01*
X710214Y103409D01*
Y106000D01*
X710159Y106273D01*
X710005Y106505D01*
X709103Y107406D01*
Y108344D01*
X709324Y108459D01*
X709504Y108487D01*
X710499Y107492D01*
X710425Y107313D01*
Y106687D01*
X710665Y106108D01*
X711108Y105665D01*
X711687Y105425D01*
X712313D01*
X712892Y105665D01*
X713335Y106108D01*
X713575Y106687D01*
Y107313D01*
X713335Y107892D01*
X712892Y108335D01*
X712313Y108575D01*
X711687D01*
X711508Y108501D01*
X710678Y109331D01*
Y110952D01*
X711078Y111210D01*
X711185Y111189D01*
X711239D01*
Y114697D01*
X711839D01*
Y111189D01*
X711894D01*
X712174Y111245D01*
X712411Y111404D01*
X712464Y111483D01*
X712760Y111361D01*
X713469D01*
X713558Y111398D01*
X713902Y111512D01*
X714245Y111398D01*
X714335Y111361D01*
X715043D01*
X715339Y111483D01*
X715392Y111404D01*
X715629Y111245D01*
X715909Y111189D01*
X715964D01*
Y114697D01*
Y118205D01*
X715909D01*
X715803Y118183D01*
X715403Y118442D01*
Y120098D01*
X715348Y120371D01*
X715194Y120603D01*
X712741Y123056D01*
Y124596D01*
X714337D01*
Y128939D01*
D02*
G37*
G36*
X757435Y125140D02*
X752620D01*
Y121413D01*
X750405Y119198D01*
X750250Y118966D01*
X750196Y118693D01*
Y118442D01*
X749796Y118183D01*
X749689Y118205D01*
X749635D01*
Y114697D01*
Y111189D01*
X749689D01*
X749969Y111245D01*
X750207Y111404D01*
X750260Y111483D01*
X750555Y111361D01*
X751264D01*
X751660Y111525D01*
X751825Y111921D01*
Y117472D01*
X751660Y117869D01*
X751623Y117884D01*
Y118397D01*
X753629Y120403D01*
X757435D01*
Y121772D01*
X757835Y121938D01*
X758108Y121665D01*
X758687Y121425D01*
X759313D01*
X759892Y121665D01*
X760335Y122108D01*
X760575Y122687D01*
Y123313D01*
X760335Y123892D01*
X759892Y124335D01*
X759313Y124575D01*
X758687D01*
X758108Y124335D01*
X757835Y124063D01*
X757435Y124228D01*
Y125140D01*
D02*
G37*
G36*
X748935D02*
X744120D01*
Y120403D01*
X745471D01*
Y118442D01*
X745071Y118183D01*
X744965Y118205D01*
X744910D01*
Y114697D01*
X744310D01*
Y118205D01*
X744256D01*
X744149Y118183D01*
X743749Y118442D01*
Y118465D01*
X743695Y118738D01*
X743540Y118969D01*
X742476Y120034D01*
X742629Y120403D01*
X742935D01*
Y125140D01*
X738120D01*
Y122075D01*
X737687D01*
X737108Y121835D01*
X736835Y121563D01*
X736435Y121728D01*
Y125140D01*
X731620D01*
Y120403D01*
X732873D01*
Y118442D01*
X732473Y118183D01*
X732366Y118205D01*
X732312D01*
Y114697D01*
Y111189D01*
X732366D01*
X732603Y110853D01*
X732626Y110635D01*
X731992Y110001D01*
X731813Y110075D01*
X731187D01*
X730608Y109835D01*
X730165Y109392D01*
X729925Y108813D01*
Y108187D01*
X730165Y107608D01*
X730608Y107165D01*
X731187Y106925D01*
X731813D01*
X732392Y107165D01*
X732835Y107608D01*
X732964Y107920D01*
X733397D01*
X733526Y107608D01*
X733969Y107165D01*
X734548Y106925D01*
X735175D01*
X735753Y107165D01*
X736197Y107608D01*
X736378Y108047D01*
X736414Y108061D01*
X736786Y107987D01*
Y107409D01*
X736608Y107335D01*
X736165Y106892D01*
X735925Y106313D01*
Y105687D01*
X736165Y105108D01*
X736608Y104665D01*
X737187Y104425D01*
X737813D01*
X738392Y104665D01*
X738665Y104392D01*
X738425Y103813D01*
Y103187D01*
X738665Y102608D01*
X739108Y102165D01*
X739687Y101925D01*
X740313D01*
X740892Y102165D01*
X741165Y101892D01*
X740925Y101313D01*
Y100687D01*
X741165Y100108D01*
X741608Y99665D01*
X742187Y99425D01*
X742813D01*
X743056Y99526D01*
X743071Y99522D01*
X743425Y99246D01*
Y98812D01*
X743665Y98233D01*
X744108Y97790D01*
X744534Y97614D01*
X744454Y97214D01*
X743909D01*
X743835Y97392D01*
X743392Y97835D01*
X742813Y98075D01*
X742187D01*
X741608Y97835D01*
X741165Y97392D01*
X740925Y96813D01*
Y96187D01*
X741165Y95608D01*
X741608Y95165D01*
X742187Y94925D01*
X742813D01*
X743392Y95165D01*
X743835Y95608D01*
X743909Y95786D01*
X745537D01*
X745690Y95417D01*
X745652Y95379D01*
X745412Y94800D01*
Y94287D01*
X745323Y94214D01*
X741909D01*
X741835Y94392D01*
X741392Y94835D01*
X740813Y95075D01*
X740187D01*
X739608Y94835D01*
X739165Y94392D01*
X738925Y93813D01*
Y93187D01*
X739165Y92608D01*
X739608Y92165D01*
X740187Y91925D01*
X740813D01*
X741392Y92165D01*
X741835Y92608D01*
X741909Y92786D01*
X745027D01*
X746688Y91126D01*
X746660Y90946D01*
X746545Y90725D01*
X745575D01*
Y91063D01*
X745335Y91642D01*
X744892Y92085D01*
X744313Y92324D01*
X743687D01*
X743108Y92085D01*
X742665Y91642D01*
X742425Y91063D01*
Y90436D01*
X742611Y89988D01*
X742411Y89588D01*
X741251D01*
X740817Y90022D01*
X740239Y90262D01*
X739612D01*
X739033Y90022D01*
X738590Y89579D01*
X738350Y89000D01*
Y88374D01*
X738590Y87795D01*
X739033Y87352D01*
X739612Y87112D01*
X740239D01*
X740817Y87352D01*
X741260Y87795D01*
X741412Y88161D01*
X742411D01*
X742611Y87761D01*
X742425Y87313D01*
Y86687D01*
X742665Y86108D01*
X743108Y85665D01*
X743687Y85425D01*
X744313D01*
X744892Y85665D01*
X745335Y86108D01*
X745352Y86149D01*
X753137D01*
X753405Y85748D01*
X753361Y85642D01*
Y84933D01*
X753525Y84536D01*
X753525Y84464D01*
X753361Y84067D01*
Y83358D01*
X753525Y82962D01*
X753525Y82889D01*
X753361Y82492D01*
Y81783D01*
X753525Y81387D01*
X753525Y81314D01*
X753361Y80917D01*
Y80209D01*
X753483Y79913D01*
X753404Y79860D01*
X753245Y79623D01*
X753189Y79343D01*
Y79288D01*
X756697D01*
X760205D01*
Y79343D01*
X760183Y79449D01*
X760442Y79849D01*
X763371D01*
X763384Y79852D01*
X767408D01*
Y83034D01*
X767823D01*
X768047Y83127D01*
X768447Y82859D01*
Y82560D01*
X770716D01*
Y84868D01*
X769085D01*
Y84922D01*
X768845Y85501D01*
X768402Y85944D01*
X767823Y86184D01*
X767197D01*
X766618Y85944D01*
X766175Y85501D01*
X765935Y84922D01*
Y84668D01*
X762671D01*
Y81277D01*
X760256D01*
X759989Y81677D01*
X760033Y81783D01*
Y82492D01*
X759869Y82889D01*
X759869Y82962D01*
X760033Y83358D01*
Y84067D01*
X759869Y84464D01*
X759869Y84536D01*
X760033Y84933D01*
Y85642D01*
X759869Y86038D01*
X759869Y86111D01*
X760033Y86508D01*
Y87217D01*
X759869Y87613D01*
X759869Y87686D01*
X760033Y88083D01*
Y88791D01*
X759869Y89188D01*
X759869Y89261D01*
X760033Y89657D01*
Y90366D01*
X759989Y90473D01*
X760256Y90873D01*
X762671D01*
Y87352D01*
X767408D01*
Y92168D01*
X763642D01*
X763525Y92246D01*
X763252Y92300D01*
X760442D01*
X760183Y92700D01*
X760205Y92807D01*
Y92861D01*
X756697D01*
Y93462D01*
X760205D01*
Y93516D01*
X760183Y93622D01*
X760442Y94023D01*
X762671D01*
Y93352D01*
X767408D01*
Y96534D01*
X767823D01*
X768047Y96627D01*
X768447Y96359D01*
Y96060D01*
X770716D01*
Y98368D01*
X769085D01*
Y98422D01*
X768948Y98752D01*
X769215Y99152D01*
X770716D01*
Y101460D01*
X768447D01*
Y99858D01*
X768047Y99591D01*
X767823Y99683D01*
X767408D01*
Y104168D01*
X762671D01*
Y103324D01*
X760442D01*
X760183Y103724D01*
X760205Y103831D01*
Y103885D01*
X756697D01*
X753189D01*
Y103831D01*
X752836Y103619D01*
X752675Y103597D01*
X752268Y104005D01*
X752036Y104159D01*
X751763Y104214D01*
X750296D01*
X746734Y107776D01*
X746774Y108170D01*
X746985Y108257D01*
X747428Y108701D01*
X747667Y109279D01*
Y109906D01*
X747428Y110485D01*
X747063Y110849D01*
X747232Y111207D01*
X747253Y111220D01*
X747405Y111189D01*
X747460D01*
Y114697D01*
Y118205D01*
X747405D01*
X747299Y118183D01*
X746899Y118442D01*
Y120403D01*
X748935D01*
Y125140D01*
D02*
G37*
G36*
X724168Y125223D02*
X715887D01*
Y122848D01*
X717125D01*
Y118442D01*
X716725Y118183D01*
X716618Y118205D01*
X716564D01*
Y114697D01*
Y111189D01*
X716618D01*
X716898Y111245D01*
X717136Y111404D01*
X717189Y111483D01*
X717484Y111361D01*
X718193D01*
X718282Y111398D01*
X718626Y111512D01*
X718970Y111398D01*
X719059Y111361D01*
X719768D01*
X720063Y111483D01*
X720116Y111404D01*
X720354Y111245D01*
X720634Y111189D01*
X720688D01*
Y114697D01*
X721288D01*
Y111189D01*
X721343D01*
X721623Y111245D01*
X721776Y111347D01*
X721929Y111245D01*
X722209Y111189D01*
X722263D01*
Y114697D01*
X722863D01*
Y111189D01*
X722917D01*
X723198Y111245D01*
X723435Y111404D01*
X723488Y111483D01*
X723783Y111361D01*
X724492D01*
X724788Y111483D01*
X724840Y111404D01*
X725078Y111245D01*
X725358Y111189D01*
X725413D01*
Y114697D01*
X726013D01*
Y111189D01*
X726067D01*
X726358Y110889D01*
X726384Y110611D01*
X726165Y110392D01*
X725925Y109813D01*
Y109187D01*
X726165Y108608D01*
X726608Y108165D01*
X727187Y107925D01*
X727813D01*
X728392Y108165D01*
X728835Y108608D01*
X729075Y109187D01*
Y109813D01*
X728835Y110392D01*
X728430Y110797D01*
X728487Y111126D01*
X728508Y111189D01*
X728562D01*
Y114697D01*
X729162D01*
Y111189D01*
X729216D01*
X729497Y111245D01*
X729734Y111404D01*
X729787Y111483D01*
X730083Y111361D01*
X730791D01*
X731087Y111483D01*
X731140Y111404D01*
X731377Y111245D01*
X731658Y111189D01*
X731712D01*
Y114697D01*
Y118205D01*
X731658D01*
X731551Y118183D01*
X731151Y118442D01*
Y120402D01*
X731096Y120675D01*
X730942Y120906D01*
X730435Y121413D01*
Y125140D01*
X725620D01*
Y123130D01*
X725220Y122906D01*
X724813Y123075D01*
X724187D01*
X724168Y123088D01*
Y125223D01*
D02*
G37*
G36*
X749035Y118205D02*
X748980D01*
X748700Y118149D01*
X748547Y118047D01*
X748394Y118149D01*
X748114Y118205D01*
X748060D01*
Y114697D01*
Y111189D01*
X748114D01*
X748394Y111245D01*
X748547Y111347D01*
X748700Y111245D01*
X748980Y111189D01*
X749035D01*
Y114697D01*
Y118205D01*
D02*
G37*
G36*
X767279Y118714D02*
X759000D01*
X758727Y118659D01*
X758495Y118505D01*
X757992Y118001D01*
X757813Y118075D01*
X757187D01*
X756608Y117835D01*
X756165Y117392D01*
X755925Y116813D01*
Y116187D01*
X756165Y115608D01*
X756608Y115165D01*
X757187Y114925D01*
X757813D01*
X758392Y115165D01*
X758835Y115608D01*
X759075Y116187D01*
Y116813D01*
X759001Y116992D01*
X759296Y117286D01*
X766984D01*
X767367Y116903D01*
X767135Y116569D01*
X766837Y116569D01*
X762864D01*
Y114974D01*
X759528D01*
X759254Y114919D01*
X759023Y114764D01*
X756192Y111934D01*
X756038Y111702D01*
X755983Y111429D01*
Y109825D01*
X753921D01*
X753525Y109660D01*
X753361Y109264D01*
Y108555D01*
X753405Y108448D01*
X753137Y108048D01*
X752477D01*
X752335Y108392D01*
X751892Y108835D01*
X751313Y109075D01*
X750687D01*
X750108Y108835D01*
X749665Y108392D01*
X749425Y107813D01*
Y107187D01*
X749665Y106608D01*
X750108Y106165D01*
X750687Y105925D01*
X751313D01*
X751892Y106165D01*
X752335Y106608D01*
X752340Y106621D01*
X753137D01*
X753405Y106221D01*
X753361Y106114D01*
Y105405D01*
X753483Y105110D01*
X753404Y105057D01*
X753245Y104820D01*
X753189Y104539D01*
Y104485D01*
X756697D01*
X760205D01*
Y104539D01*
X760183Y104646D01*
X760442Y105046D01*
X763079D01*
X763352Y105101D01*
X763583Y105255D01*
X763680Y105352D01*
X767408D01*
Y108685D01*
X767813D01*
X768047Y108782D01*
X768447Y108515D01*
Y108060D01*
X770716D01*
Y110368D01*
X769075D01*
Y110573D01*
X768835Y111152D01*
X768392Y111595D01*
X767813Y111835D01*
X767559D01*
X767207Y111950D01*
Y116176D01*
X767207Y116497D01*
X767541Y116729D01*
X768848Y115422D01*
Y111950D01*
X773191D01*
Y116569D01*
X769720D01*
X767784Y118505D01*
X767553Y118659D01*
X767279Y118714D01*
D02*
G37*
G36*
X699079Y109996D02*
X696603D01*
Y109209D01*
X699811D01*
Y109264D01*
X699755Y109544D01*
X699597Y109782D01*
X699359Y109940D01*
X699079Y109996D01*
D02*
G37*
G36*
X696003D02*
X693528D01*
X693247Y109940D01*
X693010Y109782D01*
X692851Y109544D01*
X692795Y109264D01*
Y109209D01*
X696003D01*
Y109996D01*
D02*
G37*
G36*
X773584Y110368D02*
X771316D01*
Y108060D01*
X773584D01*
Y110368D01*
D02*
G37*
G36*
X684608D02*
X682339D01*
Y108060D01*
X684608D01*
Y110368D01*
D02*
G37*
G36*
X681739D02*
X679471D01*
Y108060D01*
X681739D01*
Y110368D01*
D02*
G37*
G36*
X773584Y107460D02*
X771316D01*
Y105152D01*
X773584D01*
Y107460D01*
D02*
G37*
G36*
X770716D02*
X768447D01*
Y105152D01*
X770716D01*
Y107460D01*
D02*
G37*
G36*
X684608D02*
X682339D01*
Y105152D01*
X684608D01*
Y107460D01*
D02*
G37*
G36*
X681739D02*
X679471D01*
Y105152D01*
X681739D01*
Y107460D01*
D02*
G37*
G36*
X773584Y104368D02*
X771316D01*
Y102060D01*
X773584D01*
Y104368D01*
D02*
G37*
G36*
X770716D02*
X768447D01*
Y102060D01*
X770716D01*
Y104368D01*
D02*
G37*
G36*
X648008Y100316D02*
X648008Y100316D01*
X544500D01*
X544500Y100316D01*
X544188Y100254D01*
X543923Y100077D01*
X543923Y100077D01*
X490670Y46823D01*
X453309D01*
Y48180D01*
X448691D01*
Y45816D01*
X446246D01*
Y46624D01*
X443872D01*
Y41139D01*
X446246D01*
Y44184D01*
X448691D01*
Y43836D01*
X453309D01*
Y45192D01*
X491008D01*
X491008Y45192D01*
X491320Y45254D01*
X491585Y45431D01*
X544838Y98684D01*
X647670D01*
X667322Y79033D01*
X667322Y79033D01*
X667336Y79023D01*
Y75691D01*
X668692D01*
Y68870D01*
X668608Y68835D01*
X668165Y68392D01*
X667925Y67813D01*
Y67187D01*
X668165Y66608D01*
X668608Y66165D01*
X669187Y65925D01*
X669813D01*
X670392Y66165D01*
X670835Y66608D01*
X671075Y67187D01*
Y67813D01*
X670835Y68392D01*
X670392Y68835D01*
X670324Y68863D01*
Y75691D01*
X671679D01*
Y80309D01*
X668429D01*
X668348Y80363D01*
X668286Y80375D01*
X648585Y100077D01*
X648320Y100254D01*
X648008Y100316D01*
D02*
G37*
G36*
X684608Y101868D02*
X682339D01*
Y99560D01*
X684608D01*
Y101868D01*
D02*
G37*
G36*
X681739D02*
X679471D01*
Y99560D01*
X681739D01*
Y101868D01*
D02*
G37*
G36*
X773584Y101460D02*
X771316D01*
Y99152D01*
X773584D01*
Y101460D01*
D02*
G37*
G36*
X684608Y98960D02*
X682339D01*
Y96652D01*
X684608D01*
Y98960D01*
D02*
G37*
G36*
X681739D02*
X679471D01*
Y96652D01*
X681739D01*
Y98960D01*
D02*
G37*
G36*
X773584Y98368D02*
X771316D01*
Y96060D01*
X773584D01*
Y98368D01*
D02*
G37*
G36*
X684608Y95868D02*
X682339D01*
Y93560D01*
X684608D01*
Y95868D01*
D02*
G37*
G36*
X681739D02*
X679471D01*
Y93560D01*
X681739D01*
Y95868D01*
D02*
G37*
G36*
X773584Y95460D02*
X771316D01*
Y93152D01*
X773584D01*
Y95460D01*
D02*
G37*
G36*
X770716D02*
X768447D01*
Y93152D01*
X770716D01*
Y95460D01*
D02*
G37*
G36*
X630813Y95575D02*
X630187D01*
X629608Y95335D01*
X629165Y94892D01*
X629091Y94714D01*
X575000D01*
X574727Y94659D01*
X574495Y94505D01*
X534771Y54780D01*
X534616Y54549D01*
X534562Y54276D01*
Y34811D01*
X534399Y34478D01*
X533607D01*
Y30827D01*
Y27176D01*
X534399D01*
Y27376D01*
X536168D01*
Y27376D01*
X536352D01*
Y27376D01*
X538136D01*
Y27376D01*
X538320D01*
Y27376D01*
X540105D01*
Y27376D01*
X540289D01*
Y27376D01*
X542235Y27376D01*
X542518Y27093D01*
Y25800D01*
X542421Y25760D01*
X541978Y25317D01*
X541739Y24738D01*
Y24112D01*
X541978Y23533D01*
X542421Y23090D01*
X543000Y22850D01*
X543626D01*
X544205Y23090D01*
X544648Y23533D01*
X544888Y24112D01*
Y24738D01*
X544648Y25317D01*
X544205Y25760D01*
X543945Y25868D01*
Y27092D01*
X544226Y27376D01*
X544442Y27376D01*
X546010D01*
Y27376D01*
X546195D01*
Y27376D01*
X547979D01*
Y27376D01*
X548163D01*
Y27376D01*
X549931D01*
Y27176D01*
X550724D01*
Y30827D01*
X551324D01*
Y27176D01*
X552116D01*
Y27376D01*
X553884D01*
Y27376D01*
X554069D01*
Y27376D01*
X555637D01*
X555853Y27376D01*
X556094Y27076D01*
Y25884D01*
X555795Y25760D01*
X555352Y25317D01*
X555112Y24738D01*
Y24112D01*
X555352Y23533D01*
X555795Y23090D01*
X556374Y22850D01*
X557000D01*
X557579Y23090D01*
X558022Y23533D01*
X558261Y24112D01*
Y24738D01*
X558022Y25317D01*
X557579Y25760D01*
X557522Y25784D01*
Y27093D01*
X557804Y27376D01*
X558221Y27376D01*
X559790D01*
Y27376D01*
X559974D01*
Y27376D01*
X561758D01*
Y27376D01*
X561943D01*
Y27376D01*
X563727D01*
Y27376D01*
X563911D01*
Y27376D01*
X565695D01*
Y27376D01*
X565880D01*
Y27376D01*
X567648D01*
Y27176D01*
X568440D01*
Y30827D01*
X569040D01*
Y27176D01*
X569832D01*
Y27376D01*
X571385D01*
X571601Y27376D01*
X571842D01*
X572125Y27093D01*
Y25342D01*
X572108Y25335D01*
X571665Y24892D01*
X571425Y24313D01*
Y23687D01*
X571665Y23108D01*
X572108Y22665D01*
X572687Y22425D01*
X573313D01*
X573892Y22665D01*
X574335Y23108D01*
X574575Y23687D01*
Y24313D01*
X574335Y24892D01*
X573892Y25335D01*
X573552Y25476D01*
Y27059D01*
X573754Y27376D01*
X573969Y27376D01*
X575538D01*
Y27376D01*
X575722D01*
Y27376D01*
X577290D01*
X577506Y27376D01*
X577828Y27186D01*
Y23426D01*
X577608Y23335D01*
X577165Y22892D01*
X576925Y22313D01*
Y21687D01*
X577165Y21108D01*
X577608Y20665D01*
X578187Y20425D01*
X578813D01*
X579392Y20665D01*
X579835Y21108D01*
X580075Y21687D01*
Y22313D01*
X579962Y22585D01*
X580065Y22741D01*
X580254Y22925D01*
X580746D01*
X580935Y22741D01*
X581038Y22585D01*
X580925Y22313D01*
Y21687D01*
X581165Y21108D01*
X581608Y20665D01*
X582187Y20425D01*
X582813D01*
X583392Y20665D01*
X583835Y21108D01*
X584075Y21687D01*
Y22313D01*
X583962Y22585D01*
X584065Y22741D01*
X584254Y22925D01*
X584813D01*
X585392Y23165D01*
X585835Y23608D01*
X586075Y24187D01*
Y24813D01*
X585835Y25392D01*
X585392Y25835D01*
X585208Y25911D01*
Y26840D01*
X585365Y27176D01*
X586157D01*
Y30827D01*
Y34478D01*
X585365D01*
Y34278D01*
X583596D01*
Y34278D01*
X583412D01*
Y34278D01*
X581628D01*
Y34278D01*
X581443D01*
Y34278D01*
X579659D01*
Y34278D01*
X579475D01*
Y34278D01*
X577906D01*
X577691Y34278D01*
X577328Y34368D01*
Y43386D01*
X577274Y43659D01*
X577119Y43891D01*
X574073Y46936D01*
X574239Y47336D01*
X579573D01*
Y54239D01*
X574271D01*
X574118Y54608D01*
X580421Y60912D01*
X612539D01*
X612665Y60608D01*
X613108Y60165D01*
X613687Y59925D01*
X614313D01*
X614892Y60165D01*
X615335Y60608D01*
X615575Y61187D01*
Y61813D01*
X615335Y62392D01*
X614892Y62835D01*
X614313Y63075D01*
X613687D01*
X613415Y62962D01*
X613259Y63065D01*
X613075Y63254D01*
Y63670D01*
X613362Y63920D01*
X613444Y63950D01*
X613687Y63850D01*
X614313D01*
X614892Y64090D01*
X615335Y64533D01*
X615575Y65112D01*
Y65738D01*
X615335Y66317D01*
X614892Y66760D01*
X614313Y67000D01*
X613687D01*
X613551Y66943D01*
X613207Y67224D01*
X613230Y67512D01*
X613361Y67599D01*
X613988D01*
X614566Y67839D01*
X615009Y68282D01*
X615249Y68861D01*
Y69488D01*
X615009Y70066D01*
X614566Y70509D01*
X613988Y70749D01*
X613430D01*
X613297Y70819D01*
X613075Y71064D01*
Y71564D01*
X612889Y72012D01*
X613089Y72412D01*
X617579D01*
X628995Y60995D01*
X629227Y60841D01*
X629500Y60786D01*
X642091D01*
X642165Y60608D01*
X642608Y60165D01*
X643187Y59925D01*
X643813D01*
X644392Y60165D01*
X644835Y60608D01*
X645075Y61187D01*
Y61813D01*
X644835Y62392D01*
X644392Y62835D01*
X643813Y63075D01*
X643187D01*
X642608Y62835D01*
X642165Y62392D01*
X642091Y62214D01*
X629796D01*
X618623Y73386D01*
X618789Y73786D01*
X627204D01*
X629995Y70995D01*
X630227Y70841D01*
X630500Y70786D01*
X635591D01*
X635665Y70608D01*
X636108Y70165D01*
X636687Y69925D01*
X637313D01*
X637892Y70165D01*
X638335Y70608D01*
X638575Y71187D01*
Y71813D01*
X638335Y72392D01*
X637892Y72835D01*
X637313Y73075D01*
X636687D01*
X636108Y72835D01*
X635665Y72392D01*
X635591Y72214D01*
X633089D01*
X632889Y72614D01*
X633075Y73062D01*
Y73688D01*
X632874Y74172D01*
X633052Y74572D01*
X635674D01*
X636108Y74139D01*
X636687Y73899D01*
X637313D01*
X637892Y74139D01*
X638335Y74582D01*
X638575Y75160D01*
Y75787D01*
X638335Y76366D01*
X637892Y76809D01*
X637313Y77049D01*
X636687D01*
X636108Y76809D01*
X635665Y76366D01*
X635513Y75999D01*
X632938D01*
X632772Y76399D01*
X632829Y76456D01*
X633069Y77035D01*
Y77662D01*
X632829Y78241D01*
X632777Y78292D01*
X632930Y78662D01*
X635643D01*
X635665Y78608D01*
X636108Y78165D01*
X636687Y77925D01*
X637313D01*
X637892Y78165D01*
X638335Y78608D01*
X638575Y79187D01*
Y79813D01*
X638335Y80392D01*
X637892Y80835D01*
X637313Y81075D01*
X636687D01*
X636108Y80835D01*
X635665Y80392D01*
X635539Y80089D01*
X633089D01*
X632889Y80489D01*
X633075Y80937D01*
Y81564D01*
X632835Y82142D01*
X632392Y82586D01*
X631813Y82825D01*
X631187D01*
X630608Y82586D01*
X630365Y82343D01*
X630026Y82569D01*
X630075Y82687D01*
Y83313D01*
X629835Y83892D01*
X629392Y84335D01*
X628813Y84575D01*
X628187D01*
X627608Y84335D01*
X627165Y83892D01*
X627091Y83714D01*
X575500D01*
X575227Y83659D01*
X574995Y83505D01*
X549487Y57997D01*
X549333Y57765D01*
X549278Y57492D01*
Y45288D01*
X544613Y40623D01*
X544459Y40391D01*
X544404Y40118D01*
Y34368D01*
X544042Y34278D01*
X543826Y34278D01*
X542473D01*
X542257Y34278D01*
X541895Y34368D01*
Y47046D01*
X542159Y47336D01*
X548077D01*
Y54239D01*
X542771D01*
X542618Y54608D01*
X573421Y85412D01*
X627685D01*
X627733Y85402D01*
X629143D01*
X629416Y85456D01*
X629603Y85582D01*
X629645Y85566D01*
X629925Y85313D01*
Y84687D01*
X630165Y84108D01*
X630608Y83665D01*
X631187Y83425D01*
X631813D01*
X632392Y83665D01*
X632835Y84108D01*
X633075Y84687D01*
Y85313D01*
X632835Y85892D01*
X632392Y86335D01*
X631813Y86575D01*
X631187D01*
X631170Y86568D01*
X630943Y86907D01*
X631528Y87491D01*
X631687Y87425D01*
X632313D01*
X632892Y87665D01*
X633335Y88108D01*
X633575Y88687D01*
Y89313D01*
X633335Y89892D01*
X632892Y90335D01*
X632313Y90575D01*
X631687D01*
X631108Y90335D01*
X630665Y89892D01*
X630425Y89313D01*
Y88766D01*
X630323Y88657D01*
X629999Y88677D01*
X629846Y88764D01*
X629769Y88950D01*
X629326Y89393D01*
X628747Y89633D01*
X628121D01*
X627542Y89393D01*
X627099Y88950D01*
X627025Y88772D01*
X573347D01*
X573181Y89172D01*
X575421Y91412D01*
X641588D01*
X642000Y91000D01*
X642579Y90760D01*
X643205D01*
X643784Y91000D01*
X644227Y91443D01*
X644467Y92022D01*
Y92648D01*
X644227Y93227D01*
X643784Y93670D01*
X643205Y93910D01*
X642579D01*
X642000Y93670D01*
X641557Y93227D01*
X641396Y92839D01*
X632089D01*
X631889Y93239D01*
X632075Y93687D01*
Y94313D01*
X631835Y94892D01*
X631392Y95335D01*
X630813Y95575D01*
D02*
G37*
G36*
X684608Y92960D02*
X682339D01*
Y90652D01*
X684608D01*
Y92960D01*
D02*
G37*
G36*
X681739D02*
X679471D01*
Y90652D01*
X681739D01*
Y92960D01*
D02*
G37*
G36*
X773584Y92368D02*
X771316D01*
Y90060D01*
X773584D01*
Y92368D01*
D02*
G37*
G36*
X770716D02*
X768447D01*
Y90060D01*
X770716D01*
Y92368D01*
D02*
G37*
G36*
X684608Y89868D02*
X682339D01*
Y87560D01*
X684608D01*
Y89868D01*
D02*
G37*
G36*
X681739D02*
X679471D01*
Y87560D01*
X681739D01*
Y89868D01*
D02*
G37*
G36*
X773584Y89460D02*
X771316D01*
Y87152D01*
X773584D01*
Y89460D01*
D02*
G37*
G36*
X770716D02*
X768447D01*
Y87152D01*
X770716D01*
Y89460D01*
D02*
G37*
G36*
X681739Y86960D02*
X679471D01*
Y84652D01*
X681739D01*
Y86960D01*
D02*
G37*
G36*
X773584Y84868D02*
X771316D01*
Y82560D01*
X773584D01*
Y84868D01*
D02*
G37*
G36*
X681739Y83868D02*
X679471D01*
Y81560D01*
X681739D01*
Y83868D01*
D02*
G37*
G36*
X773584Y81960D02*
X771316D01*
Y79652D01*
X773584D01*
Y81960D01*
D02*
G37*
G36*
X770716D02*
X768447D01*
Y79652D01*
X770716D01*
Y81960D01*
D02*
G37*
G36*
X760205Y78688D02*
X756697D01*
X753189D01*
Y78634D01*
X753210Y78527D01*
X752952Y78127D01*
X749413D01*
X749140Y78073D01*
X748909Y77918D01*
X747992Y77001D01*
X747813Y77075D01*
X747187D01*
X746608Y76835D01*
X746165Y76392D01*
X745925Y75813D01*
Y75187D01*
X746165Y74608D01*
X746608Y74165D01*
X747187Y73925D01*
X747813D01*
X748392Y74165D01*
X748835Y74608D01*
X749075Y75187D01*
Y75813D01*
X749001Y75992D01*
X749709Y76700D01*
X753137D01*
X753405Y76300D01*
X753361Y76193D01*
Y75484D01*
X753525Y75088D01*
X753525Y75015D01*
X753361Y74618D01*
Y73909D01*
X753525Y73513D01*
X753525Y73440D01*
X753361Y73043D01*
Y72335D01*
X753525Y71938D01*
X753525Y71865D01*
X753361Y71469D01*
Y70760D01*
X753525Y70363D01*
X753525Y70290D01*
X753361Y69894D01*
Y69185D01*
X753525Y68788D01*
X753525Y68715D01*
X753361Y68319D01*
Y67610D01*
X753483Y67315D01*
X753404Y67262D01*
X753245Y67024D01*
X753189Y66744D01*
Y66690D01*
X756697D01*
X760205D01*
Y66744D01*
X760183Y66851D01*
X760442Y67251D01*
X762671D01*
Y65352D01*
X767408D01*
Y68593D01*
X767721D01*
X768047Y68728D01*
X768447Y68461D01*
Y68060D01*
X770716D01*
Y70368D01*
X768983D01*
Y70481D01*
X768743Y71060D01*
X768300Y71503D01*
X767721Y71742D01*
X767095D01*
X766516Y71503D01*
X766073Y71060D01*
X765833Y70481D01*
Y70168D01*
X762671D01*
Y68678D01*
X760256D01*
X759989Y69078D01*
X760033Y69185D01*
Y69894D01*
X759869Y70290D01*
X759869Y70363D01*
X760033Y70760D01*
Y71469D01*
X759869Y71865D01*
X759869Y71938D01*
X760033Y72335D01*
Y73043D01*
X759869Y73440D01*
X759869Y73513D01*
X760033Y73909D01*
Y74618D01*
X759869Y75015D01*
X759869Y75088D01*
X760033Y75484D01*
Y76193D01*
X759989Y76300D01*
X760256Y76700D01*
X762659D01*
Y73852D01*
X767396D01*
Y78668D01*
X762659D01*
Y78127D01*
X760442D01*
X760183Y78527D01*
X760205Y78634D01*
Y78688D01*
D02*
G37*
G36*
X773572Y78868D02*
X771304D01*
Y76560D01*
X773572D01*
Y78868D01*
D02*
G37*
G36*
X770704D02*
X768435D01*
Y76560D01*
X770704D01*
Y78868D01*
D02*
G37*
G36*
X773572Y75960D02*
X771304D01*
Y73652D01*
X773572D01*
Y75960D01*
D02*
G37*
G36*
X770704D02*
X768435D01*
Y73652D01*
X770704D01*
Y75960D01*
D02*
G37*
G36*
X684608Y74960D02*
X682339D01*
Y72652D01*
X684608D01*
Y74960D01*
D02*
G37*
G36*
X681739D02*
X679471D01*
Y72652D01*
X681739D01*
Y74960D01*
D02*
G37*
G36*
X684608Y71868D02*
X682339D01*
Y69560D01*
X684608D01*
Y71868D01*
D02*
G37*
G36*
X681739D02*
X679471D01*
Y69560D01*
X681739D01*
Y71868D01*
D02*
G37*
G36*
X773584Y70368D02*
X771316D01*
Y68060D01*
X773584D01*
Y70368D01*
D02*
G37*
G36*
X681739Y68960D02*
X679471D01*
Y66652D01*
X681739D01*
Y68960D01*
D02*
G37*
G36*
X773584Y67460D02*
X771316D01*
Y65152D01*
X773584D01*
Y67460D01*
D02*
G37*
G36*
X770716D02*
X768447D01*
Y65152D01*
X770716D01*
Y67460D01*
D02*
G37*
G36*
X773584Y64368D02*
X771316D01*
Y62060D01*
X773584D01*
Y64368D01*
D02*
G37*
G36*
X770716D02*
X768447D01*
Y62060D01*
X770716D01*
Y64368D01*
D02*
G37*
G36*
X684608Y62868D02*
X682339D01*
Y60560D01*
X684608D01*
Y62868D01*
D02*
G37*
G36*
X681739D02*
X679471D01*
Y60560D01*
X681739D01*
Y62868D01*
D02*
G37*
G36*
X751313Y66575D02*
X750687D01*
X750108Y66335D01*
X749665Y65892D01*
X749425Y65313D01*
Y64687D01*
X749665Y64108D01*
X750108Y63665D01*
X750687Y63425D01*
X751313D01*
X751892Y63665D01*
X752328Y64101D01*
X753137D01*
X753405Y63701D01*
X753361Y63595D01*
Y62886D01*
X753398Y62796D01*
X753525Y62416D01*
X753361Y62020D01*
Y61311D01*
X753525Y60914D01*
X753525Y60841D01*
X753361Y60445D01*
Y59736D01*
X753525Y59340D01*
X753921Y59175D01*
X755426D01*
X755489Y59057D01*
X755548Y58775D01*
X755165Y58392D01*
X754925Y57813D01*
Y57187D01*
X755165Y56608D01*
X755608Y56165D01*
X756187Y55925D01*
X756813D01*
X757392Y56165D01*
X757835Y56608D01*
X758075Y57187D01*
Y57813D01*
X757835Y58392D01*
X757452Y58775D01*
X757511Y59057D01*
X757574Y59175D01*
X759472D01*
X759869Y59340D01*
X759884Y59377D01*
X762671D01*
Y59352D01*
X767408D01*
Y64168D01*
X762671D01*
Y60804D01*
X760256D01*
X759989Y61204D01*
X760033Y61311D01*
Y62020D01*
X759869Y62416D01*
X759996Y62796D01*
X760033Y62886D01*
Y63595D01*
X759869Y63991D01*
X759869Y64064D01*
X760033Y64461D01*
Y65169D01*
X759911Y65465D01*
X759990Y65518D01*
X760149Y65755D01*
X760205Y66035D01*
Y66090D01*
X756697D01*
X753189D01*
Y66035D01*
X753210Y65929D01*
X752952Y65529D01*
X752486D01*
X752335Y65892D01*
X751892Y66335D01*
X751313Y66575D01*
D02*
G37*
G36*
X773584Y61460D02*
X771316D01*
Y59152D01*
X773584D01*
Y61460D01*
D02*
G37*
G36*
X770716D02*
X768447D01*
Y59152D01*
X770716D01*
Y61460D01*
D02*
G37*
G36*
X684608Y59960D02*
X682339D01*
Y57652D01*
X684608D01*
Y59960D01*
D02*
G37*
G36*
X681739D02*
X679471D01*
Y57652D01*
X681739D01*
Y59960D01*
D02*
G37*
G36*
X818313Y74575D02*
X817687D01*
X817108Y74335D01*
X816665Y73892D01*
X816425Y73313D01*
Y72687D01*
X816665Y72108D01*
X817108Y71665D01*
X817243Y71609D01*
Y58672D01*
X812691D01*
Y57214D01*
X808000D01*
X807727Y57159D01*
X807495Y57005D01*
X806492Y56001D01*
X806313Y56075D01*
X805687D01*
X805108Y55835D01*
X804665Y55392D01*
X804425Y54813D01*
Y54187D01*
X804665Y53608D01*
X805108Y53165D01*
X805687Y52925D01*
X806313D01*
X806892Y53165D01*
X807335Y53608D01*
X807575Y54187D01*
Y54813D01*
X807501Y54992D01*
X808296Y55786D01*
X812691D01*
Y54328D01*
X817243D01*
Y52687D01*
X812691D01*
Y48344D01*
X815231D01*
Y40737D01*
X815167Y40364D01*
X814276D01*
Y37008D01*
Y33652D01*
X815167D01*
Y33852D01*
X842474D01*
X842526Y33852D01*
X842874Y33727D01*
Y27559D01*
X843001Y27253D01*
X843307Y27126D01*
X848228D01*
X848534Y27253D01*
X848661Y27559D01*
Y29882D01*
X853740D01*
X854046Y30009D01*
X854173Y30315D01*
Y34646D01*
X854046Y34952D01*
X853740Y35079D01*
X851417D01*
Y36614D01*
X851290Y36920D01*
X850984Y37047D01*
X843307D01*
X843001Y36920D01*
X842926Y36739D01*
X842526Y36819D01*
Y40164D01*
X842231D01*
Y52098D01*
X842392Y52165D01*
X842835Y52608D01*
X843075Y53187D01*
Y53813D01*
X842835Y54392D01*
X842392Y54835D01*
X841813Y55075D01*
X841187D01*
X840854Y54937D01*
X840628Y55276D01*
X840959Y55608D01*
X841199Y56187D01*
Y56813D01*
X840959Y57392D01*
X840516Y57835D01*
X839938Y58075D01*
X839311D01*
X838863Y57889D01*
X838463Y58089D01*
Y58591D01*
X838642Y58665D01*
X839085Y59108D01*
X839324Y59687D01*
Y60313D01*
X839085Y60892D01*
X838642Y61335D01*
X838063Y61575D01*
X837436D01*
X836989Y61389D01*
X836588Y61589D01*
Y63591D01*
X836767Y63665D01*
X837210Y64108D01*
X837450Y64687D01*
Y65313D01*
X837210Y65892D01*
X836767Y66335D01*
X836188Y66575D01*
X835561D01*
X835114Y66389D01*
X834714Y66589D01*
Y68591D01*
X834892Y68665D01*
X835335Y69108D01*
X835575Y69687D01*
Y70313D01*
X835335Y70892D01*
X834892Y71335D01*
X834313Y71575D01*
X833687D01*
X833108Y71335D01*
X832665Y70892D01*
X832425Y70313D01*
Y69687D01*
X832665Y69108D01*
X833108Y68665D01*
X833286Y68591D01*
Y51848D01*
X832886Y51768D01*
X832835Y51892D01*
X832392Y52335D01*
X831813Y52575D01*
X831187D01*
X830608Y52335D01*
X830165Y51892D01*
X829925Y51313D01*
Y50687D01*
X830165Y50108D01*
X830608Y49665D01*
X830883Y49551D01*
Y48410D01*
X830483Y48244D01*
X830392Y48335D01*
X829813Y48575D01*
X829444D01*
X829161Y48661D01*
X829075Y48944D01*
Y49313D01*
X828835Y49892D01*
X828392Y50335D01*
X827813Y50575D01*
X827187D01*
X826739Y50389D01*
X826339Y50589D01*
Y65643D01*
X826392Y65665D01*
X826835Y66108D01*
X827075Y66687D01*
Y67313D01*
X826835Y67892D01*
X826392Y68335D01*
X825813Y68575D01*
X825187D01*
X824608Y68335D01*
X824165Y67892D01*
X823925Y67313D01*
Y66687D01*
X824165Y66108D01*
X824608Y65665D01*
X824911Y65539D01*
Y63881D01*
X824512Y63716D01*
X824392Y63835D01*
X823813Y64075D01*
X823187D01*
X822608Y63835D01*
X822165Y63392D01*
X821925Y62813D01*
Y62187D01*
X822165Y61608D01*
X822608Y61165D01*
X823105Y60959D01*
Y54956D01*
X822705Y54917D01*
X822697Y54957D01*
X822542Y55189D01*
X821376Y56355D01*
X821450Y56534D01*
Y57160D01*
X821210Y57739D01*
X820767Y58182D01*
X820188Y58422D01*
X819561D01*
X819070Y58218D01*
X818670Y58392D01*
Y71573D01*
X818892Y71665D01*
X819335Y72108D01*
X819575Y72687D01*
Y73313D01*
X819335Y73892D01*
X818892Y74335D01*
X818313Y74575D01*
D02*
G37*
G36*
X701791Y57811D02*
X701736D01*
X701456Y57755D01*
X701219Y57596D01*
X701060Y57359D01*
X701004Y57079D01*
Y54603D01*
X701791D01*
Y57811D01*
D02*
G37*
G36*
X751264D02*
X751209D01*
Y54603D01*
X751996D01*
Y57079D01*
X751940Y57359D01*
X751782Y57596D01*
X751544Y57755D01*
X751264Y57811D01*
D02*
G37*
G36*
X453510Y54364D02*
X451300D01*
Y52292D01*
X453510D01*
Y54364D01*
D02*
G37*
G36*
X450700D02*
X448490D01*
Y52292D01*
X450700D01*
Y54364D01*
D02*
G37*
G36*
X447057Y54108D02*
X444788D01*
Y51800D01*
X447057D01*
Y54108D01*
D02*
G37*
G36*
X444188D02*
X441920D01*
Y51800D01*
X444188D01*
Y54108D01*
D02*
G37*
G36*
X751996Y54003D02*
X751209D01*
Y50795D01*
X751264D01*
X751544Y50851D01*
X751782Y51010D01*
X751940Y51247D01*
X751996Y51528D01*
Y54003D01*
D02*
G37*
G36*
X701791Y54003D02*
X701004D01*
Y51528D01*
X701060Y51247D01*
X701219Y51010D01*
X701456Y50851D01*
X701736Y50795D01*
X701791D01*
Y54003D01*
D02*
G37*
G36*
X453510Y51692D02*
X451300D01*
Y49621D01*
X453510D01*
Y51692D01*
D02*
G37*
G36*
X450700D02*
X448490D01*
Y49621D01*
X450700D01*
Y51692D01*
D02*
G37*
G36*
X447057Y51200D02*
X444788D01*
Y48892D01*
X447057D01*
Y51200D01*
D02*
G37*
G36*
X444188D02*
X441920D01*
Y48892D01*
X444188D01*
Y51200D01*
D02*
G37*
G36*
X611069Y54239D02*
X605151D01*
Y47336D01*
X611069D01*
Y54239D01*
D02*
G37*
G36*
X595321D02*
X589403D01*
Y47336D01*
X595321D01*
Y54239D01*
D02*
G37*
G36*
X532329D02*
X526411D01*
Y47336D01*
X532329D01*
Y54239D01*
D02*
G37*
G36*
X783723Y47782D02*
X778159D01*
Y46954D01*
X777273D01*
X776892Y47335D01*
X776313Y47575D01*
X775687D01*
X775108Y47335D01*
X774665Y46892D01*
X774425Y46313D01*
Y45687D01*
X774665Y45108D01*
X775108Y44665D01*
X775687Y44425D01*
X776313D01*
X776892Y44665D01*
X777335Y45108D01*
X777508Y45526D01*
X778159D01*
Y44698D01*
X783723D01*
Y47782D01*
D02*
G37*
G36*
X773841D02*
X768277D01*
Y44698D01*
X773841D01*
Y47782D01*
D02*
G37*
G36*
X783923Y44242D02*
X781241D01*
Y42800D01*
X783923D01*
Y44242D01*
D02*
G37*
G36*
X780641D02*
X777959D01*
Y42800D01*
X780641D01*
Y44242D01*
D02*
G37*
G36*
X453510Y42864D02*
X451300D01*
Y40792D01*
X453510D01*
Y42864D01*
D02*
G37*
G36*
X450700D02*
X448490D01*
Y40792D01*
X450700D01*
Y42864D01*
D02*
G37*
G36*
X783923Y42200D02*
X781241D01*
Y40758D01*
X783923D01*
Y42200D01*
D02*
G37*
G36*
X780641D02*
X777959D01*
Y40758D01*
X780641D01*
Y42200D01*
D02*
G37*
G36*
X754635Y42840D02*
X752327D01*
Y40572D01*
X754635D01*
Y42840D01*
D02*
G37*
G36*
X748635D02*
X746327D01*
Y40572D01*
X748635D01*
Y42840D01*
D02*
G37*
G36*
X751727D02*
X749420D01*
Y40572D01*
X751727D01*
Y42840D01*
D02*
G37*
G36*
X745727D02*
X743420D01*
Y40572D01*
X745727D01*
Y42840D01*
D02*
G37*
G36*
X773841Y40302D02*
X768277D01*
Y40187D01*
X765760D01*
X765760Y40187D01*
X765214Y40079D01*
X765208Y40075D01*
X765187D01*
X764608Y39835D01*
X764165Y39392D01*
X763925Y38813D01*
Y38187D01*
X764165Y37608D01*
X764608Y37165D01*
X765187Y36925D01*
X765813D01*
X766392Y37165D01*
X766560Y37332D01*
X768277D01*
Y37218D01*
X770523D01*
Y34719D01*
X769033D01*
Y29982D01*
X773849D01*
Y34719D01*
X772359D01*
Y37218D01*
X773841D01*
Y40302D01*
D02*
G37*
G36*
X737135Y42340D02*
X734828D01*
Y40072D01*
X737135D01*
Y42340D01*
D02*
G37*
G36*
X731135D02*
X728827D01*
Y40072D01*
X731135D01*
Y42340D01*
D02*
G37*
G36*
X717635D02*
X715328D01*
Y40072D01*
X717635D01*
Y42340D01*
D02*
G37*
G36*
X706135D02*
X703827D01*
Y40072D01*
X706135D01*
Y42340D01*
D02*
G37*
G36*
X734228D02*
X731920D01*
Y40072D01*
X734228D01*
Y42340D01*
D02*
G37*
G36*
X728228D02*
X725920D01*
Y40072D01*
X728228D01*
Y42340D01*
D02*
G37*
G36*
X714727D02*
X712420D01*
Y40072D01*
X714727D01*
Y42340D01*
D02*
G37*
G36*
X703228D02*
X700920D01*
Y40072D01*
X703228D01*
Y42340D01*
D02*
G37*
G36*
X723635Y42328D02*
X721327D01*
Y40060D01*
X723635D01*
Y42328D01*
D02*
G37*
G36*
X720727D02*
X718420D01*
Y40060D01*
X720727D01*
Y42328D01*
D02*
G37*
G36*
X453510Y40192D02*
X451300D01*
Y38120D01*
X453510D01*
Y40192D01*
D02*
G37*
G36*
X450700D02*
X448490D01*
Y38120D01*
X450700D01*
Y40192D01*
D02*
G37*
G36*
X754635Y39972D02*
X752327D01*
Y37703D01*
X754635D01*
Y39972D01*
D02*
G37*
G36*
X751727D02*
X749420D01*
Y37703D01*
X751727D01*
Y39972D01*
D02*
G37*
G36*
X748635D02*
X746327D01*
Y37703D01*
X748635D01*
Y39972D01*
D02*
G37*
G36*
X745727D02*
X743420D01*
Y37703D01*
X745727D01*
Y39972D01*
D02*
G37*
G36*
X635774Y48215D02*
X626903D01*
Y37572D01*
X635774D01*
Y48215D01*
D02*
G37*
G36*
X510577D02*
X501706D01*
Y37572D01*
X510577D01*
Y48215D01*
D02*
G37*
G36*
X737135Y39472D02*
X734828D01*
Y37203D01*
X737135D01*
Y39472D01*
D02*
G37*
G36*
X734228D02*
X731920D01*
Y37203D01*
X734228D01*
Y39472D01*
D02*
G37*
G36*
X731135D02*
X728827D01*
Y37203D01*
X731135D01*
Y39472D01*
D02*
G37*
G36*
X728228D02*
X725920D01*
Y37203D01*
X728228D01*
Y39472D01*
D02*
G37*
G36*
X717635D02*
X715328D01*
Y37203D01*
X717635D01*
Y39472D01*
D02*
G37*
G36*
X714727D02*
X712420D01*
Y37203D01*
X714727D01*
Y39472D01*
D02*
G37*
G36*
X706135D02*
X703827D01*
Y37203D01*
X706135D01*
Y39472D01*
D02*
G37*
G36*
X703228D02*
X700920D01*
Y37203D01*
X703228D01*
Y39472D01*
D02*
G37*
G36*
X723635Y39460D02*
X721327D01*
Y37191D01*
X723635D01*
Y39460D01*
D02*
G37*
G36*
X720727D02*
X718420D01*
Y37191D01*
X720727D01*
Y39460D01*
D02*
G37*
G36*
X776313Y40575D02*
X775687D01*
X775108Y40335D01*
X774665Y39892D01*
X774425Y39313D01*
Y38687D01*
X774665Y38108D01*
X775108Y37665D01*
X775687Y37425D01*
X775774D01*
X776240Y37332D01*
X776240Y37332D01*
X778159D01*
Y37218D01*
X779523D01*
Y34719D01*
X778033D01*
Y29982D01*
X782849D01*
Y34719D01*
X781359D01*
Y37218D01*
X783723D01*
Y37587D01*
X811017D01*
Y36819D01*
X810617Y36739D01*
X810542Y36920D01*
X810236Y37047D01*
X802559D01*
X802253Y36920D01*
X802126Y36614D01*
Y35079D01*
X799803D01*
X799497Y34952D01*
X799370Y34646D01*
Y30315D01*
X799497Y30009D01*
X799803Y29882D01*
X804882D01*
Y27559D01*
X805009Y27253D01*
X805315Y27126D01*
X810236D01*
X810542Y27253D01*
X810669Y27559D01*
Y33727D01*
X811017Y33852D01*
X811069Y33852D01*
X812786D01*
Y33652D01*
X813676D01*
Y37008D01*
Y40364D01*
X812786D01*
Y40164D01*
X811017D01*
Y39932D01*
X783723D01*
Y40302D01*
X778159D01*
Y40187D01*
X777040D01*
X776892Y40335D01*
X776313Y40575D01*
D02*
G37*
G36*
X597968Y34478D02*
X597176D01*
Y34278D01*
X595423D01*
Y34478D01*
X594631D01*
Y30827D01*
Y27176D01*
X595423D01*
X595686Y26885D01*
Y25867D01*
X595608Y25835D01*
X595165Y25392D01*
X594925Y24813D01*
Y24187D01*
X595165Y23608D01*
X595608Y23165D01*
X596187Y22925D01*
X596813D01*
X597392Y23165D01*
X597835Y23608D01*
X598075Y24187D01*
Y24813D01*
X597835Y25392D01*
X597392Y25835D01*
X597113Y25951D01*
Y26801D01*
X597176Y27176D01*
X597968D01*
Y30827D01*
Y34478D01*
D02*
G37*
G36*
X594031D02*
X593239D01*
Y34278D01*
X591486D01*
Y34478D01*
X590694D01*
Y30827D01*
Y27176D01*
X591486D01*
X591717Y26871D01*
Y25880D01*
X591608Y25835D01*
X591165Y25392D01*
X590925Y24813D01*
Y24187D01*
X591165Y23608D01*
X591608Y23165D01*
X592187Y22925D01*
X592813D01*
X593392Y23165D01*
X593835Y23608D01*
X594075Y24187D01*
Y24813D01*
X593835Y25392D01*
X593392Y25835D01*
X593145Y25938D01*
Y26814D01*
X593239Y27176D01*
X594031D01*
Y30827D01*
Y34478D01*
D02*
G37*
G36*
X590094D02*
X589302D01*
Y34278D01*
X587549D01*
Y34478D01*
X586757D01*
Y30827D01*
Y27176D01*
X587549D01*
X587749Y26858D01*
Y25893D01*
X587608Y25835D01*
X587165Y25392D01*
X586925Y24813D01*
Y24187D01*
X587165Y23608D01*
X587608Y23165D01*
X588187Y22925D01*
X588813D01*
X589392Y23165D01*
X589835Y23608D01*
X590075Y24187D01*
Y24813D01*
X589835Y25392D01*
X589392Y25835D01*
X589176Y25924D01*
Y26827D01*
X589302Y27176D01*
X590094D01*
Y30827D01*
Y34478D01*
D02*
G37*
G36*
X533007D02*
X532215D01*
Y34278D01*
X530446D01*
Y34278D01*
X530262D01*
Y34278D01*
X528478D01*
Y30955D01*
X528452Y30827D01*
Y26180D01*
X528165Y25892D01*
X527925Y25313D01*
Y24687D01*
X528165Y24108D01*
X528608Y23665D01*
X529187Y23425D01*
X529813D01*
X530392Y23665D01*
X530835Y24108D01*
X531075Y24687D01*
Y25313D01*
X530835Y25892D01*
X530392Y26335D01*
X530288Y26378D01*
Y27041D01*
X530446Y27376D01*
X532215D01*
Y27176D01*
X533007D01*
Y30827D01*
Y34478D01*
D02*
G37*
G36*
X446608Y32159D02*
X444300D01*
Y29891D01*
X446608D01*
Y32159D01*
D02*
G37*
G36*
X625243Y34239D02*
X614600D01*
Y27336D01*
X625243D01*
Y34239D01*
D02*
G37*
G36*
X522880D02*
X512238D01*
Y27336D01*
X522880D01*
Y34239D01*
D02*
G37*
G36*
X446608Y29291D02*
X444300D01*
Y27022D01*
X446608D01*
Y29291D01*
D02*
G37*
G36*
X783049Y28942D02*
X780741D01*
Y26674D01*
X783049D01*
Y28942D01*
D02*
G37*
G36*
X774049D02*
X771741D01*
Y26674D01*
X774049D01*
Y28942D01*
D02*
G37*
G36*
X780141D02*
X777833D01*
Y26674D01*
X780141D01*
Y28942D01*
D02*
G37*
G36*
X771141D02*
X768833D01*
Y26674D01*
X771141D01*
Y28942D01*
D02*
G37*
G36*
X441000Y55035D02*
X416000D01*
X415694Y54909D01*
X415567Y54602D01*
Y37602D01*
X415694Y37296D01*
X415694Y36909D01*
X415567Y36602D01*
Y24602D01*
X415694Y24296D01*
X416000Y24169D01*
X436500D01*
X436806Y24296D01*
X438179Y25669D01*
X441000D01*
X441192Y25749D01*
X441592Y25560D01*
Y24264D01*
X440187D01*
Y24731D01*
X437813D01*
Y21962D01*
X440187D01*
Y22429D01*
X441592D01*
Y21246D01*
X446408D01*
Y22696D01*
X489506D01*
X501351Y10851D01*
X501649Y10652D01*
X502000Y10582D01*
X598500D01*
X598851Y10652D01*
X599149Y10851D01*
X608759Y20461D01*
X608958Y20759D01*
X609028Y21110D01*
Y30827D01*
X609002Y30955D01*
Y34278D01*
X607218D01*
Y34278D01*
X607034D01*
Y34278D01*
X605465D01*
X605250Y34278D01*
X604850Y34278D01*
X603281D01*
Y34278D01*
X603097D01*
Y34278D01*
X601528D01*
X601313Y34278D01*
X600913Y34278D01*
X599360D01*
Y34478D01*
X598568D01*
Y30827D01*
Y27176D01*
X599360D01*
X599654Y26921D01*
Y25854D01*
X599608Y25835D01*
X599165Y25392D01*
X598925Y24813D01*
Y24187D01*
X599165Y23608D01*
X599608Y23165D01*
X600187Y22925D01*
X600813D01*
X601392Y23165D01*
X601835Y23608D01*
X602075Y24187D01*
Y24813D01*
X601835Y25392D01*
X601392Y25835D01*
X601082Y25964D01*
Y27071D01*
X601313Y27376D01*
X601528Y27376D01*
X603097D01*
X603256Y27041D01*
Y23426D01*
X595747Y15918D01*
X505880D01*
X486641Y35157D01*
X486343Y35356D01*
X485992Y35425D01*
X453309D01*
Y36680D01*
X448691D01*
Y35425D01*
X446246D01*
Y39065D01*
X443887D01*
Y39265D01*
X442800D01*
Y36323D01*
Y33380D01*
X443887D01*
Y33580D01*
X446246D01*
Y33590D01*
X448691D01*
Y32336D01*
X453309D01*
Y33590D01*
X485612D01*
X504851Y14351D01*
X505149Y14152D01*
X505500Y14082D01*
X596127D01*
X596478Y14152D01*
X596776Y14351D01*
X604822Y22397D01*
X605021Y22695D01*
X605091Y23046D01*
Y27041D01*
X605250Y27376D01*
X605491Y27376D01*
X607034D01*
X607193Y27041D01*
Y21490D01*
X598120Y12418D01*
X502380D01*
X490535Y24263D01*
X490237Y24462D01*
X489886Y24532D01*
X446408D01*
Y25983D01*
X441803D01*
X441554Y26063D01*
X441433Y26317D01*
Y27022D01*
X443700D01*
Y29591D01*
Y32159D01*
X441433D01*
Y33380D01*
X442200D01*
Y36323D01*
Y39265D01*
X441365D01*
X441306Y39408D01*
X441306Y39796D01*
X441433Y40102D01*
Y45141D01*
X441400Y45220D01*
Y45306D01*
X441358Y45407D01*
Y45862D01*
X441400Y45963D01*
Y46049D01*
X441433Y46128D01*
Y47102D01*
Y54602D01*
X441306Y54909D01*
X441000Y55035D01*
D02*
G37*
G36*
X783049Y26074D02*
X780741D01*
Y23806D01*
X783049D01*
Y26074D01*
D02*
G37*
G36*
X780141D02*
X777833D01*
Y23806D01*
X780141D01*
Y26074D01*
D02*
G37*
G36*
X774049D02*
X771741D01*
Y23806D01*
X774049D01*
Y26074D01*
D02*
G37*
G36*
X771141D02*
X768833D01*
Y23806D01*
X771141D01*
Y26074D01*
D02*
G37*
%LPD*%
G36*
X578506Y75011D02*
X578495Y75005D01*
X564995Y61505D01*
X564841Y61273D01*
X564786Y61000D01*
Y46796D01*
X558393Y40402D01*
X558238Y40171D01*
X558184Y39898D01*
Y34368D01*
X557821Y34278D01*
X557606Y34278D01*
X556253D01*
X556037Y34278D01*
X555674Y34368D01*
Y54165D01*
X576921Y75411D01*
X578384D01*
X578506Y75011D01*
D02*
G37*
%LPC*%
G36*
X563825Y54239D02*
X557907D01*
Y47336D01*
X563825D01*
Y54239D01*
D02*
G37*
%LPD*%
G36*
X850984Y34646D02*
X853740D01*
Y30315D01*
X848228D01*
Y27559D01*
X843307D01*
Y36614D01*
X850984D01*
Y34646D01*
D02*
G37*
G36*
X810236Y27559D02*
X805315D01*
Y30315D01*
X799803D01*
Y34646D01*
X802559D01*
Y36614D01*
X810236D01*
Y27559D01*
D02*
G37*
G36*
X441000Y47102D02*
Y46128D01*
X440925Y45948D01*
Y45321D01*
X441000Y45141D01*
Y40102D01*
X438500D01*
X436000Y37602D01*
X416000D01*
Y54602D01*
X441000D01*
Y47102D01*
D02*
G37*
G36*
Y26102D02*
X438000D01*
X436500Y24602D01*
X416000D01*
Y36602D01*
X436000D01*
X438500Y39102D01*
X441000D01*
Y26102D01*
D02*
G37*
D13*
X757500Y116500D02*
X759000Y118000D01*
X767279D01*
X699752Y45748D02*
X703528D01*
X697000Y48500D02*
Y53000D01*
Y48500D02*
X699752Y45748D01*
X704451Y94826D02*
Y94826D01*
X696472Y93331D02*
X702956D01*
X704451Y94826D01*
X556808Y30706D02*
X556929Y30827D01*
X556687Y24425D02*
X556808Y24546D01*
Y30706D01*
X543150Y30827D02*
X543231Y30745D01*
Y24507D02*
Y30745D01*
Y24507D02*
X543313Y24425D01*
X630500Y71500D02*
X637000D01*
X627500Y74500D02*
X630500Y71500D01*
X579000Y74500D02*
X627500D01*
X565500Y61000D02*
X579000Y74500D01*
X566500Y60000D02*
X579625Y73125D01*
X617875D01*
X629500Y61500D01*
X579750Y71250D02*
X611500D01*
X554961Y54461D02*
X576625Y76125D01*
X554961Y30827D02*
Y54461D01*
X566772Y30827D02*
Y41772D01*
X611375Y67625D02*
X611500Y67500D01*
X580125Y67625D02*
X611375D01*
X569500Y57000D02*
X580125Y67625D01*
X569500Y44500D02*
Y57000D01*
X566772Y41772D02*
X569500Y44500D01*
X558898Y30827D02*
Y39898D01*
X560866Y30827D02*
Y40366D01*
X562835Y30827D02*
Y40920D01*
X564803Y41389D02*
X568500Y45086D01*
X558898Y39898D02*
X565500Y46500D01*
X562835Y40920D02*
X567500Y45586D01*
X560866Y40366D02*
X566500Y46000D01*
X564803Y30827D02*
Y41389D01*
X576625Y76125D02*
X629375D01*
X630214Y75286D01*
X636812D01*
X631262Y77580D02*
X631494Y77349D01*
X576124Y77624D02*
X630537D01*
X630581Y77580D02*
X631262D01*
X630537Y77624D02*
X630581Y77580D01*
X629500Y61500D02*
X643500D01*
X690000Y78000D02*
X692563Y80563D01*
X675492Y78000D02*
X690000D01*
X692563Y80563D02*
X696303D01*
X713114Y54303D02*
Y65484D01*
X708125Y63557D02*
X708390Y63292D01*
X711875Y63836D02*
Y71000D01*
X712875Y68875D02*
X714500Y70500D01*
X711539Y63501D02*
X711875Y63836D01*
X712875Y65723D02*
X713114Y65484D01*
X708125Y63557D02*
Y70684D01*
X712875Y65723D02*
Y68875D01*
X708390Y54303D02*
Y63292D01*
X711539Y54303D02*
Y63501D01*
X717839Y48886D02*
Y63411D01*
X710000Y58485D02*
Y65500D01*
X714750Y66500D02*
X717839Y63411D01*
X704014Y70572D02*
Y70625D01*
X714500Y70500D02*
Y74000D01*
X706815Y54303D02*
Y69185D01*
X705240Y54303D02*
Y69346D01*
X705889Y70111D02*
X706815Y69185D01*
X705889Y70111D02*
Y72776D01*
X704014Y70572D02*
X705240Y69346D01*
X705665Y73000D02*
X705889Y72776D01*
X709965Y58450D02*
X710000Y58485D01*
X709965Y54303D02*
Y58450D01*
X719000Y70000D02*
X719839Y69161D01*
Y61161D02*
Y69161D01*
X719000Y70000D02*
Y74000D01*
X721000Y71000D02*
X721200Y70800D01*
Y62300D02*
Y70800D01*
X718839Y60161D02*
Y66661D01*
X716500Y69000D02*
X718839Y66661D01*
X715964Y59183D02*
Y59500D01*
X716264Y54303D02*
Y58883D01*
X715964Y59183D02*
X716264Y58883D01*
X739925Y88687D02*
X740113Y88875D01*
X744777D01*
X765039Y67799D02*
X767408Y70168D01*
X642682Y92125D02*
X642892Y92335D01*
X575125Y92125D02*
X642682D01*
X537244Y54244D02*
X575125Y92125D01*
X575000Y94000D02*
X630500D01*
X535276Y54276D02*
X575000Y94000D01*
X823724Y61657D02*
Y62276D01*
X823500Y62500D02*
X823724Y62276D01*
X629143Y86116D02*
X632000Y88973D01*
Y89000D01*
X573125Y86125D02*
X627723D01*
X627733Y86116D02*
X629143D01*
X627723Y86125D02*
X627733Y86116D01*
X636876Y79376D02*
X637000Y79500D01*
X631375Y81125D02*
X631500Y81250D01*
X551992Y55492D02*
X575876Y79376D01*
X636876D01*
X575625Y81125D02*
X631375D01*
X636812Y75286D02*
X637000Y75474D01*
X711500Y45500D02*
X714780D01*
X742500Y46000D02*
X745780D01*
X720988Y54303D02*
Y60012D01*
X718839Y60161D02*
X719413Y59587D01*
Y54303D02*
Y59587D01*
X719839Y61161D02*
X720988Y60012D01*
X696351Y105808D02*
X699625D01*
X696303Y105760D02*
X696351Y105808D01*
X699625D02*
X702076Y108259D01*
Y108576D01*
X738000Y120500D02*
X738216D01*
X740488Y122772D01*
X740528D01*
X755256Y123000D02*
X759000D01*
X755028Y122772D02*
X755256Y123000D01*
X742500Y96500D02*
X750000D01*
X751386Y97886D01*
X746987Y94487D02*
X750754D01*
X752578Y96311D01*
X751000Y107500D02*
X751165Y107335D01*
X756697D01*
X746000Y107500D02*
Y109500D01*
X750000Y103500D02*
X751763D01*
X746000Y107500D02*
X750000Y103500D01*
X746139Y109639D02*
Y114651D01*
X751763Y103500D02*
X752653Y102610D01*
X746000Y109500D02*
X746139Y109639D01*
X714780Y45500D02*
X715028Y45748D01*
X745780Y46000D02*
X746185Y46406D01*
X725000Y45500D02*
X728279D01*
X728862Y46083D01*
X765039Y82299D02*
X767349Y84609D01*
X765039Y82231D02*
Y82299D01*
X767349Y84609D02*
X767510D01*
X746139Y114651D02*
X746185Y114697D01*
X747236Y91587D02*
X756697D01*
X740500Y93500D02*
X745323D01*
X747236Y91587D01*
X749106Y99461D02*
X756697D01*
X748200Y98700D02*
X748346D01*
X749106Y99461D01*
X703951Y107492D02*
Y109352D01*
X703583Y107124D02*
X703951Y107492D01*
X703583Y104583D02*
Y107124D01*
X703500Y104500D02*
X703583Y104583D01*
X705500Y102000D02*
Y106000D01*
X703583Y109720D02*
X703951Y109352D01*
X703583Y109720D02*
Y114614D01*
X701537Y85287D02*
X703000Y86750D01*
X699963Y75839D02*
X701500Y77376D01*
X688594Y75839D02*
X699963D01*
X806000Y54500D02*
X808000Y56500D01*
X815000D01*
X529370Y25130D02*
X529500Y25000D01*
X688016Y60299D02*
X690276Y62559D01*
Y63016D01*
X690500Y63240D01*
X731500Y59683D02*
X732012Y59171D01*
X731500Y59683D02*
Y60000D01*
X732012Y48224D02*
Y59171D01*
X735500Y64500D02*
X735636Y64364D01*
X733674Y62480D02*
X733761Y62567D01*
X733674Y54390D02*
Y62480D01*
X735636Y60579D02*
Y64364D01*
X735161Y54303D02*
Y60104D01*
X735636Y60579D01*
X733587Y54303D02*
X733674Y54390D01*
X749335Y48902D02*
Y59665D01*
X748000Y61000D02*
X749335Y59665D01*
X688000Y69205D02*
Y69283D01*
X685647Y66852D02*
X688000Y69205D01*
Y69283D02*
X691405Y72689D01*
X701293Y68865D02*
X701508D01*
X700393Y67965D02*
X701293Y68865D01*
X703229Y66990D02*
X703365Y66853D01*
X696476Y69712D02*
X699704D01*
X708500Y78500D02*
X729000D01*
X700739Y70739D02*
X708500Y78500D01*
X700731Y70739D02*
X700739D01*
X699704Y69712D02*
X700731Y70739D01*
X700697Y66990D02*
X703229D01*
X685647Y84852D02*
X688016Y87221D01*
Y87260D01*
X688500Y107394D02*
Y111500D01*
X688441Y107335D02*
X688500Y107394D01*
X692000Y115000D02*
X694500D01*
X688500Y111500D02*
X692000Y115000D01*
X765039Y67760D02*
Y67799D01*
X751386Y97886D02*
X756697D01*
X752653Y102610D02*
X756697D01*
X751304Y101625D02*
X751894Y101035D01*
X750987Y101625D02*
X751304D01*
X751894Y101035D02*
X756697D01*
X745000Y99125D02*
Y107000D01*
X741461Y110539D02*
X745000Y107000D01*
X767279Y118000D02*
X769410Y115869D01*
X771020Y114260D02*
Y114398D01*
X769548Y115869D02*
X771020Y114398D01*
X769410Y115869D02*
X769548D01*
X765039Y107799D02*
X767500Y110260D01*
X765039Y107720D02*
Y107799D01*
X763079Y105760D02*
X765039Y107720D01*
X746185Y114697D02*
Y122429D01*
X741461Y110539D02*
Y114697D01*
X765039Y95799D02*
X767240Y98000D01*
X767401D01*
X767510Y98109D01*
X765039Y95760D02*
Y95799D01*
X764016Y94736D02*
X765039Y95760D01*
X743035Y114697D02*
Y118465D01*
X740528Y122772D02*
X741245Y122054D01*
Y120255D02*
X743035Y118465D01*
X741245Y120255D02*
Y122054D01*
X751185Y64815D02*
X756697D01*
X751000Y65000D02*
X751185Y64815D01*
X747500Y75500D02*
X749413Y77413D01*
X756697D01*
X756500Y59918D02*
X756672Y60091D01*
X756500Y57500D02*
Y59918D01*
X756672Y60091D02*
X756697D01*
X724138Y114697D02*
X724310Y114869D01*
Y121310D01*
X724500Y121500D01*
X719413Y119913D02*
X720000Y120500D01*
X719413Y114697D02*
Y119913D01*
X713114Y114697D02*
Y118886D01*
X710000Y122000D02*
X713114Y118886D01*
X724500Y121500D02*
X726756D01*
X728028Y122772D01*
X733587Y110587D02*
Y114697D01*
X731500Y108500D02*
X733587Y110587D01*
X727287Y109713D02*
Y114697D01*
Y109713D02*
X727500Y109500D01*
X709965Y109035D02*
Y114697D01*
Y109035D02*
X712000Y107000D01*
X696228Y122772D02*
X700028D01*
X696303Y85287D02*
X701537D01*
X696303Y69539D02*
X696476Y69712D01*
X696303Y94736D02*
X699736D01*
X704000Y99000D01*
X714500D01*
X688000Y103500D02*
X688016Y103484D01*
Y99260D02*
Y103484D01*
X776000Y46000D02*
X776240Y46240D01*
X780941D01*
X780441Y38260D02*
X780941Y38760D01*
X812008Y37008D02*
Y38469D01*
X811717Y38760D02*
X812008Y38469D01*
X815000Y50516D02*
X815945Y49571D01*
Y37008D02*
Y49571D01*
X825625Y37170D02*
Y66875D01*
X825500Y67000D02*
X825625Y66875D01*
X841500Y53500D02*
X841518Y53482D01*
Y37026D02*
Y53482D01*
Y37026D02*
X841535Y37008D01*
X839534Y37041D02*
Y56409D01*
X839624Y56500D01*
X837750Y37159D02*
Y60000D01*
X837598Y37008D02*
X837750Y37159D01*
X835630Y37008D02*
X835875Y37253D01*
Y65000D01*
X834000Y39815D02*
Y70000D01*
X833952Y39767D02*
X834000Y39815D01*
X833661Y37008D02*
X833952Y37298D01*
Y39767D01*
X821850Y37008D02*
X822038Y37195D01*
Y54684D01*
X819875Y56847D02*
X822038Y54684D01*
X827500Y37264D02*
X827756Y37008D01*
X827500Y37264D02*
Y49000D01*
X831596Y37104D02*
X831693Y37008D01*
X831596Y37104D02*
Y50904D01*
X831500Y51000D02*
X831596Y50904D01*
X829500Y47000D02*
X829612Y46888D01*
Y37120D02*
Y46888D01*
X825625Y37170D02*
X825787Y37008D01*
X829612Y37120D02*
X829724Y37008D01*
X820022Y53172D02*
X820163Y53313D01*
X819882Y37008D02*
X820022Y37148D01*
Y53172D01*
X745055Y90012D02*
X756697D01*
X744000Y90750D02*
X744317D01*
X745055Y90012D01*
X744138Y86862D02*
X756697D01*
X744777Y88875D02*
X745214Y88437D01*
X744000Y87000D02*
X744138Y86862D01*
X745214Y88437D02*
X756697D01*
X817957Y37051D02*
Y72957D01*
X818000Y73000D01*
X817913Y37008D02*
X817957Y37051D01*
X823724Y61657D02*
X823819Y61563D01*
Y37008D02*
Y61563D01*
X839534Y37041D02*
X839567Y37008D01*
X752578Y96311D02*
X756697D01*
X734861Y108817D02*
X735161Y109117D01*
X734861Y108500D02*
Y108817D01*
X735161Y109117D02*
Y114697D01*
X737500Y106000D02*
Y108500D01*
X736736Y109264D02*
Y114697D01*
Y109264D02*
X737500Y108500D01*
X740000Y103500D02*
Y107883D01*
X738311Y109572D02*
Y114697D01*
Y109572D02*
X740000Y107883D01*
X742500Y101000D02*
Y107500D01*
X739886Y110114D02*
Y114697D01*
Y110114D02*
X742500Y107500D01*
X535276Y30827D02*
Y54276D01*
X537244Y30827D02*
Y54244D01*
X539213Y54213D02*
X573058Y88058D01*
X539213Y30827D02*
Y54213D01*
X573058Y88058D02*
X628434D01*
X541181Y54181D02*
X573125Y86125D01*
X541181Y30827D02*
Y54181D01*
X552992Y54492D02*
X576124Y77624D01*
X566500Y46000D02*
Y60000D01*
X550992Y56492D02*
X575625Y81125D01*
X549992Y57492D02*
X575500Y83000D01*
X628500D01*
X570709Y56209D02*
X580125Y65625D01*
X613474Y69375D02*
X613674Y69174D01*
X580125Y65625D02*
X613799D01*
X568500Y58000D02*
X579875Y69375D01*
X613474D01*
X613799Y65625D02*
X614000Y65425D01*
X549992Y44992D02*
Y57492D01*
X550992Y43992D02*
Y56492D01*
X551992Y42992D02*
Y55492D01*
X552992Y30827D02*
Y54492D01*
X572000Y46500D02*
X574646Y43854D01*
Y30827D02*
Y43854D01*
X572000Y46500D02*
Y55500D01*
X576614Y30827D02*
Y43386D01*
X573000Y47000D02*
X576614Y43386D01*
X573000Y47000D02*
Y54500D01*
X570709Y30827D02*
Y56209D01*
X565500Y46500D02*
Y61000D01*
X567500Y45586D02*
Y59000D01*
X579750Y71250D01*
X568500Y45086D02*
Y58000D01*
X580125Y63625D02*
X611375D01*
X572000Y55500D02*
X580125Y63625D01*
X573000Y54500D02*
X580125Y61625D01*
X613875D01*
X572839Y24161D02*
X573000Y24000D01*
X572677Y30827D02*
X572839Y30665D01*
Y24161D02*
Y30665D01*
X584494Y24506D02*
Y30821D01*
Y24506D02*
X584500Y24500D01*
X600368Y24632D02*
Y30695D01*
X600236Y30827D02*
X600368Y30695D01*
Y24632D02*
X600500Y24500D01*
X596299Y30827D02*
X596400Y30726D01*
Y24600D02*
Y30726D01*
Y24600D02*
X596500Y24500D01*
X592431Y24569D02*
X592500Y24500D01*
X592431Y24569D02*
Y30758D01*
X578541Y30785D02*
X578583Y30827D01*
X578541Y22041D02*
Y30785D01*
X578500Y22000D02*
X578541Y22041D01*
X582500Y22000D02*
X582510Y22010D01*
Y30817D01*
X588463Y24537D02*
X588500Y24500D01*
X588463Y24537D02*
Y30789D01*
X580500Y24500D02*
X580526Y24526D01*
Y30801D02*
X580551Y30827D01*
X580526Y24526D02*
Y30801D01*
X584488Y30827D02*
X584494Y30821D01*
X588425Y30827D02*
X588463Y30789D01*
X708390Y107110D02*
X709500Y106000D01*
X708390Y107110D02*
Y114697D01*
X709500Y102000D02*
Y106000D01*
X707500Y104500D02*
Y106000D01*
X706815Y106685D02*
X707500Y106000D01*
X706815Y106685D02*
Y114697D01*
X705240Y106260D02*
Y114697D01*
Y106260D02*
X705500Y106000D01*
X703583Y114614D02*
X703665Y114697D01*
X706138Y91587D02*
X709177Y94625D01*
X696303Y91587D02*
X706138D01*
X709177Y94625D02*
X709494D01*
X708761Y90012D02*
X713500Y94750D01*
X696303Y90012D02*
X708761D01*
X696303Y93161D02*
X696472Y93331D01*
X696303Y83713D02*
X704713D01*
X707000Y86000D01*
X725000Y62500D02*
Y71000D01*
Y62500D02*
X725713Y61787D01*
Y54303D02*
Y61787D01*
X723125Y62375D02*
X724138Y61362D01*
Y54303D02*
Y61362D01*
X723125Y62375D02*
Y73875D01*
X722563Y54303D02*
Y60937D01*
X721200Y62300D02*
X722563Y60937D01*
X723000Y74000D02*
X723125Y73875D01*
X727000Y74000D02*
X727144Y73856D01*
Y54447D02*
X727287Y54303D01*
X727144Y54447D02*
Y73856D01*
X700931Y61365D02*
X701248D01*
X696303Y61665D02*
X700631D01*
X700931Y61365D01*
X701348Y64965D02*
X701498Y65115D01*
X696453Y64965D02*
X701348D01*
X702629Y63206D02*
X702951Y62885D01*
X703268D01*
X702579Y63206D02*
X702629D01*
X700097Y66390D02*
X700697Y66990D01*
X702545Y63240D02*
X702579Y63206D01*
X696303Y63240D02*
X702545D01*
X696303Y64815D02*
X696453Y64965D01*
X613875Y61625D02*
X614000Y61500D01*
X611375Y63625D02*
X611500Y63500D01*
X696303Y67965D02*
X700393D01*
X696303Y66390D02*
X700097D01*
X592362Y30827D02*
X592431Y30758D01*
X582510Y30817D02*
X582520Y30827D01*
X547087Y40087D02*
X550992Y43992D01*
X549055Y40055D02*
X551992Y42992D01*
X545118Y40118D02*
X549992Y44992D01*
X549055Y30827D02*
Y40055D01*
X547087Y30827D02*
Y40087D01*
X545118Y30827D02*
Y40118D01*
X728028Y122772D02*
X728067D01*
X730437Y120402D01*
X750910Y118693D02*
X754988Y122772D01*
X750910Y114697D02*
Y118693D01*
X754988Y122772D02*
X755028D01*
X688185Y60091D02*
X696303D01*
X688016Y60260D02*
X688185Y60091D01*
X691405Y72689D02*
X696303D01*
X688016Y75260D02*
X688594Y75839D01*
X688016Y81299D02*
X692004Y85287D01*
X696303D01*
X688016Y81260D02*
Y81299D01*
X689193Y88437D02*
X696303D01*
X688016Y87260D02*
X689193Y88437D01*
X688016Y93260D02*
X689492Y94736D01*
X696303D01*
X688016Y99260D02*
X689390Y97886D01*
X696303D01*
X688441Y107335D02*
X696303D01*
X714689Y114697D02*
Y120098D01*
X712028Y122760D02*
Y126768D01*
Y122760D02*
X714689Y120098D01*
X700067Y122772D02*
X702091Y120748D01*
X700028Y122772D02*
X700067D01*
X702091Y114697D02*
Y120748D01*
X706067Y122772D02*
X709965Y118874D01*
X706028Y122772D02*
X706067D01*
X709965Y114697D02*
Y118874D01*
X733587Y114697D02*
Y122331D01*
X734028Y122772D01*
X730437Y114697D02*
Y120402D01*
X746185Y122429D02*
X746528Y122772D01*
X703528Y45748D02*
X703665Y45886D01*
Y54303D01*
X714689Y46087D02*
Y54303D01*
Y46087D02*
X715028Y45748D01*
X720988Y45736D02*
X721028D01*
X717839Y48886D02*
X720988Y45736D01*
X728862Y46083D02*
Y54303D01*
X732012Y48224D02*
X734488Y45748D01*
X734528D01*
X746185Y46406D02*
Y54303D01*
X749335Y48902D02*
X751988Y46248D01*
X752028D01*
X763371Y60091D02*
X765039Y61759D01*
Y61760D01*
X756697Y60091D02*
X763371D01*
X756697Y67965D02*
X764835D01*
X765039Y67760D01*
X763874Y77413D02*
X765028Y76260D01*
X756697Y77413D02*
X763874D01*
X763371Y80563D02*
X765039Y82231D01*
X756697Y80563D02*
X763371D01*
X763252Y91587D02*
X765039Y89799D01*
Y89760D02*
Y89799D01*
X756697Y91587D02*
X763252D01*
X756697Y94736D02*
X764016D01*
X764189Y102610D02*
X765039Y101760D01*
X756697Y102610D02*
X764189D01*
X756697Y105760D02*
X763079D01*
X759528Y114260D02*
X765035D01*
X756697Y111429D02*
X759528Y114260D01*
X756697Y108909D02*
Y111429D01*
X712760Y133484D02*
X720028D01*
X712028Y132752D02*
X712760Y133484D01*
X717839Y123548D02*
X718326Y124035D01*
X720028D01*
X717839Y114697D02*
Y123548D01*
D14*
X489886Y23614D02*
X502000Y11500D01*
X444000Y23614D02*
X489886D01*
X502000Y11500D02*
X598500D01*
X451000Y34508D02*
X485992D01*
X505500Y15000D02*
X596127D01*
X485992Y34508D02*
X505500Y15000D01*
X445546Y34508D02*
X451000D01*
X608110Y21110D02*
Y30827D01*
X443732Y23346D02*
X444000Y23614D01*
X598500Y11500D02*
X608110Y21110D01*
X606142Y30827D02*
X608110D01*
X439000Y23346D02*
X443732D01*
X529370Y25130D02*
Y30827D01*
X604173Y23046D02*
Y30827D01*
X596127Y15000D02*
X604173Y23046D01*
X445059Y34995D02*
X445546Y34508D01*
X445059Y34995D02*
Y36323D01*
X602205Y30827D02*
X604173D01*
X771059Y38760D02*
X771441Y38378D01*
Y32350D02*
Y38378D01*
X780441Y32350D02*
Y38260D01*
D33*
X815000Y56500D02*
D03*
Y50516D02*
D03*
X451000Y46008D02*
D03*
Y51992D02*
D03*
X712028Y126768D02*
D03*
Y132752D02*
D03*
X451000Y34508D02*
D03*
Y40492D02*
D03*
D34*
X755028Y128748D02*
D03*
Y122772D02*
D03*
X728028Y128748D02*
D03*
Y122772D02*
D03*
X734028Y128748D02*
D03*
Y122772D02*
D03*
X740528D02*
D03*
Y128748D02*
D03*
X700028D02*
D03*
Y122772D02*
D03*
X706028Y128748D02*
D03*
Y122772D02*
D03*
X746528Y128748D02*
D03*
Y122772D02*
D03*
X752028Y46248D02*
D03*
Y40272D02*
D03*
X734528Y45748D02*
D03*
Y39772D02*
D03*
X721028Y45736D02*
D03*
Y39760D02*
D03*
X703528Y45748D02*
D03*
Y39772D02*
D03*
X728528Y45748D02*
D03*
Y39772D02*
D03*
X746028Y46248D02*
D03*
Y40272D02*
D03*
X715028Y45748D02*
D03*
Y39772D02*
D03*
X771441Y26374D02*
D03*
Y32350D02*
D03*
X780441Y26374D02*
D03*
Y32350D02*
D03*
X444000Y23614D02*
D03*
Y29591D02*
D03*
D35*
X669508Y78000D02*
D03*
X675492D02*
D03*
X771020Y114260D02*
D03*
X765035D02*
D03*
D36*
X682039Y87260D02*
D03*
X688016D02*
D03*
X682039Y60260D02*
D03*
X688016D02*
D03*
X682039Y69260D02*
D03*
X688016D02*
D03*
X682039Y75260D02*
D03*
X688016D02*
D03*
X682039Y81260D02*
D03*
X688016D02*
D03*
X682039Y99260D02*
D03*
X688016D02*
D03*
X682039Y93260D02*
D03*
X688016D02*
D03*
X682039Y107760D02*
D03*
X688016D02*
D03*
X765039D02*
D03*
X771016D02*
D03*
X765039Y101760D02*
D03*
X771016D02*
D03*
X765039Y95760D02*
D03*
X771016D02*
D03*
X765039Y89760D02*
D03*
X771016D02*
D03*
X765039Y82260D02*
D03*
X771016D02*
D03*
X765028Y76260D02*
D03*
X771004D02*
D03*
X765039Y61760D02*
D03*
X771016D02*
D03*
X765039Y67760D02*
D03*
X771016D02*
D03*
X438512Y51500D02*
D03*
X444488D02*
D03*
D37*
X812008Y37008D02*
D03*
X813976D02*
D03*
X815945D02*
D03*
X817913D02*
D03*
X819882D02*
D03*
X821850D02*
D03*
X823819D02*
D03*
X825787D02*
D03*
X827756D02*
D03*
X829724D02*
D03*
X831693D02*
D03*
X833661D02*
D03*
X835630D02*
D03*
X837598D02*
D03*
X839567D02*
D03*
X841535D02*
D03*
D38*
X806614Y33583D02*
D03*
X846929D02*
D03*
D39*
X696303Y108909D02*
D03*
Y107335D02*
D03*
Y105760D02*
D03*
Y104185D02*
D03*
Y102610D02*
D03*
Y101035D02*
D03*
Y99461D02*
D03*
Y97886D02*
D03*
Y96311D02*
D03*
Y94736D02*
D03*
Y93161D02*
D03*
Y91587D02*
D03*
Y90012D02*
D03*
Y88437D02*
D03*
Y86862D02*
D03*
Y85287D02*
D03*
Y83713D02*
D03*
Y82138D02*
D03*
Y80563D02*
D03*
Y78988D02*
D03*
Y77413D02*
D03*
Y75839D02*
D03*
Y74264D02*
D03*
Y72689D02*
D03*
Y71114D02*
D03*
Y69539D02*
D03*
Y67965D02*
D03*
Y66390D02*
D03*
Y64815D02*
D03*
Y63240D02*
D03*
Y61665D02*
D03*
Y60091D02*
D03*
X756697D02*
D03*
Y61665D02*
D03*
Y63240D02*
D03*
Y64815D02*
D03*
Y66390D02*
D03*
Y67965D02*
D03*
Y69539D02*
D03*
Y71114D02*
D03*
Y72689D02*
D03*
Y74264D02*
D03*
Y75839D02*
D03*
Y77413D02*
D03*
Y78988D02*
D03*
Y80563D02*
D03*
Y82138D02*
D03*
Y83713D02*
D03*
Y85287D02*
D03*
Y86862D02*
D03*
Y88437D02*
D03*
Y90012D02*
D03*
Y91587D02*
D03*
Y93161D02*
D03*
Y94736D02*
D03*
Y96311D02*
D03*
Y97886D02*
D03*
Y99461D02*
D03*
Y101035D02*
D03*
Y102610D02*
D03*
Y104185D02*
D03*
Y105760D02*
D03*
Y107335D02*
D03*
Y108909D02*
D03*
D40*
X750910Y114697D02*
D03*
X749335D02*
D03*
X747760D02*
D03*
X746185D02*
D03*
X744610D02*
D03*
X743035D02*
D03*
X741461D02*
D03*
X739886D02*
D03*
X738311D02*
D03*
X736736D02*
D03*
X735161D02*
D03*
X733587D02*
D03*
X732012D02*
D03*
X730437D02*
D03*
X728862D02*
D03*
X727287D02*
D03*
X725713D02*
D03*
X724138D02*
D03*
X722563D02*
D03*
X720988D02*
D03*
X719413D02*
D03*
X717839D02*
D03*
X716264D02*
D03*
X714689D02*
D03*
X713114D02*
D03*
X711539D02*
D03*
X709965D02*
D03*
X708390D02*
D03*
X706815D02*
D03*
X705240D02*
D03*
X703665D02*
D03*
X702091D02*
D03*
Y54303D02*
D03*
X703665D02*
D03*
X705240D02*
D03*
X706815D02*
D03*
X708390D02*
D03*
X709965D02*
D03*
X711539D02*
D03*
X713114D02*
D03*
X714689D02*
D03*
X716264D02*
D03*
X717839D02*
D03*
X719413D02*
D03*
X720988D02*
D03*
X722563D02*
D03*
X724138D02*
D03*
X725713D02*
D03*
X727287D02*
D03*
X728862D02*
D03*
X730437D02*
D03*
X732012D02*
D03*
X733587D02*
D03*
X735161D02*
D03*
X736736D02*
D03*
X738311D02*
D03*
X739886D02*
D03*
X741461D02*
D03*
X743035D02*
D03*
X744610D02*
D03*
X746185D02*
D03*
X747760D02*
D03*
X749335D02*
D03*
X750910D02*
D03*
D41*
X720028Y133484D02*
D03*
Y128760D02*
D03*
Y124035D02*
D03*
D42*
X780941Y38760D02*
D03*
Y42500D02*
D03*
Y46240D02*
D03*
X771059Y38760D02*
D03*
Y46240D02*
D03*
D43*
X427000Y43000D02*
D03*
Y30205D02*
D03*
D44*
X439941Y43882D02*
D03*
X445059D02*
D03*
Y36323D02*
D03*
X442500D02*
D03*
X439941D02*
D03*
D45*
X439000Y28858D02*
D03*
Y23346D02*
D03*
D46*
X608110Y30827D02*
D03*
X606142D02*
D03*
X604173D02*
D03*
X602205D02*
D03*
X600236D02*
D03*
X598268D02*
D03*
X596299D02*
D03*
X594331D02*
D03*
X592362D02*
D03*
X590394D02*
D03*
X588425D02*
D03*
X586457D02*
D03*
X584488D02*
D03*
X582520D02*
D03*
X580551D02*
D03*
X578583D02*
D03*
X576614D02*
D03*
X574646D02*
D03*
X572677D02*
D03*
X570709D02*
D03*
X568740D02*
D03*
X566772D02*
D03*
X564803D02*
D03*
X562835D02*
D03*
X560866D02*
D03*
X558898D02*
D03*
X556929D02*
D03*
X554961D02*
D03*
X552992D02*
D03*
X551024D02*
D03*
X549055D02*
D03*
X547087D02*
D03*
X545118D02*
D03*
X543150D02*
D03*
X541181D02*
D03*
X539213D02*
D03*
X537244D02*
D03*
X535276D02*
D03*
X533307D02*
D03*
X531339D02*
D03*
X529370D02*
D03*
D47*
X517559Y30787D02*
D03*
X619921D02*
D03*
D48*
X631339Y42893D02*
D03*
X506142D02*
D03*
D49*
X608110Y50787D02*
D03*
X592362D02*
D03*
X576614D02*
D03*
X560866D02*
D03*
X545118D02*
D03*
X529370D02*
D03*
D50*
X776240Y38760D02*
X780941D01*
X776000Y39000D02*
X776240Y38760D01*
X765500Y38500D02*
X765760Y38760D01*
X771059D01*
D51*
X445446Y45000D02*
X449992D01*
X451000Y46008D01*
X445059Y44613D02*
X445446Y45000D01*
X445059Y43882D02*
Y44613D01*
X451000Y46008D02*
X491008D01*
X669500Y67500D02*
X669508Y67508D01*
Y78000D01*
X491008Y46008D02*
X544500Y99500D01*
X648008D01*
X668036Y79610D02*
X669508Y78138D01*
Y78000D02*
Y78138D01*
X667898Y79610D02*
X668036D01*
X648008Y99500D02*
X667898Y79610D01*
X529370Y30827D02*
X531339D01*
D52*
X780941Y38760D02*
X811717D01*
D53*
X1177165Y143701D02*
D03*
Y19685D02*
D03*
X-39370D02*
D03*
Y143701D02*
D03*
D54*
X648500Y95000D02*
D03*
X704451Y94826D02*
D03*
X656500Y73500D02*
D03*
X585000Y22000D02*
D03*
X551000Y37000D02*
D03*
X556687Y24425D02*
D03*
X543313D02*
D03*
X611500Y71250D02*
D03*
X568500Y24000D02*
D03*
X450000Y28500D02*
D03*
X442500Y45634D02*
D03*
X456500Y40500D02*
D03*
X559500Y44500D02*
D03*
X776000Y22500D02*
D03*
X788000Y42500D02*
D03*
X544000Y45000D02*
D03*
X533500Y22500D02*
D03*
X551000Y24000D02*
D03*
X709000Y40000D02*
D03*
X761500Y129000D02*
D03*
X646000Y63500D02*
D03*
X575500Y22000D02*
D03*
X580500Y20000D02*
D03*
X611000Y59500D02*
D03*
X626000Y90000D02*
D03*
X634500Y69500D02*
D03*
X842500Y56000D02*
D03*
X840500Y59500D02*
D03*
X838000Y63000D02*
D03*
X837000Y68500D02*
D03*
X828000Y65000D02*
D03*
X828500Y53000D02*
D03*
X745500Y74000D02*
D03*
X748000Y64000D02*
D03*
X738000Y62500D02*
D03*
X712000Y104000D02*
D03*
X716000Y96500D02*
D03*
X738500Y91500D02*
D03*
X740500Y99000D02*
D03*
X729000Y107000D02*
D03*
X734500Y105500D02*
D03*
X714750Y66500D02*
D03*
X710000Y65500D02*
D03*
X708125Y70684D02*
D03*
X711875Y71000D02*
D03*
X704014Y70625D02*
D03*
X721000Y71000D02*
D03*
X716500Y69000D02*
D03*
X715964Y59500D02*
D03*
X739925Y88687D02*
D03*
X767408Y70168D02*
D03*
X630500Y94000D02*
D03*
X823500Y62500D02*
D03*
X659000Y104500D02*
D03*
X632000Y89000D02*
D03*
X642892Y92335D02*
D03*
X631500Y85000D02*
D03*
Y81250D02*
D03*
X637000Y79500D02*
D03*
Y75474D02*
D03*
X631500Y73375D02*
D03*
X631494Y77349D02*
D03*
X637000Y71500D02*
D03*
X821000Y73000D02*
D03*
X781000Y72000D02*
D03*
X809000Y54000D02*
D03*
X635000Y85000D02*
D03*
X590500Y22000D02*
D03*
X598500D02*
D03*
X594500D02*
D03*
X451000Y57000D02*
D03*
X813500Y43500D02*
D03*
X691500Y41000D02*
D03*
X682000Y114500D02*
D03*
X666500Y67000D02*
D03*
X795000Y78500D02*
D03*
X736500Y102500D02*
D03*
X730000Y75500D02*
D03*
X690500Y63240D02*
D03*
X711500Y45500D02*
D03*
X742500Y46000D02*
D03*
X696228Y122772D02*
D03*
X738000Y120500D02*
D03*
X759000Y123000D02*
D03*
X742500Y96500D02*
D03*
X746987Y94487D02*
D03*
X751000Y107500D02*
D03*
X725000Y45500D02*
D03*
X767510Y84609D02*
D03*
X767500Y110260D02*
D03*
X746093Y109592D02*
D03*
X705500Y102000D02*
D03*
X702076Y108576D02*
D03*
X703000Y86750D02*
D03*
X701500Y77376D02*
D03*
X806000Y54500D02*
D03*
X669500Y67500D02*
D03*
X529500Y25000D02*
D03*
X432000Y52000D02*
D03*
X757500Y116500D02*
D03*
X748169Y98669D02*
D03*
X697000Y53000D02*
D03*
X731500Y60000D02*
D03*
X733761Y62567D02*
D03*
X748000Y61000D02*
D03*
X685647Y66852D02*
D03*
X703365Y66853D02*
D03*
X701508Y68865D02*
D03*
X705665Y73000D02*
D03*
X685647Y84852D02*
D03*
X694500Y115000D02*
D03*
X750987Y101625D02*
D03*
X767510Y98109D02*
D03*
X751000Y65000D02*
D03*
X740500Y93500D02*
D03*
X747500Y75500D02*
D03*
X756500Y57500D02*
D03*
X720000Y120500D02*
D03*
X710000Y122000D02*
D03*
X724500Y121500D02*
D03*
X731500Y108500D02*
D03*
X727500Y109500D02*
D03*
X712000Y107000D02*
D03*
X729000Y78500D02*
D03*
X714500Y99000D02*
D03*
X688000Y103500D02*
D03*
X765500Y38500D02*
D03*
X776000Y39000D02*
D03*
Y46000D02*
D03*
X825500Y67000D02*
D03*
X841500Y53500D02*
D03*
X839624Y56500D02*
D03*
X837750Y60000D02*
D03*
X835875Y65000D02*
D03*
X831500Y51000D02*
D03*
X829500Y47000D02*
D03*
X827500Y49000D02*
D03*
X820163Y53313D02*
D03*
X819875Y56847D02*
D03*
X744000Y90750D02*
D03*
Y87000D02*
D03*
X834000Y70000D02*
D03*
X818000Y73000D02*
D03*
X745000Y99125D02*
D03*
X734861Y108500D02*
D03*
X742500Y101000D02*
D03*
X740000Y103500D02*
D03*
X737500Y106000D02*
D03*
X628434Y88058D02*
D03*
X611500Y67500D02*
D03*
X573000Y24000D02*
D03*
X584500Y24500D02*
D03*
X600500D02*
D03*
X596500D02*
D03*
X592500D02*
D03*
X578500Y22000D02*
D03*
X582500D02*
D03*
X588500Y24500D02*
D03*
X580500D02*
D03*
X707500Y104500D02*
D03*
X709500Y102000D02*
D03*
X703500Y104500D02*
D03*
X709494Y94625D02*
D03*
X713500Y94750D02*
D03*
X707000Y86000D02*
D03*
X714500Y74000D02*
D03*
X725000Y71000D02*
D03*
X727000Y74000D02*
D03*
X723000D02*
D03*
X719000D02*
D03*
X628500Y83000D02*
D03*
X643500Y61500D02*
D03*
X701248Y61365D02*
D03*
X701498Y65115D02*
D03*
X703268Y62885D02*
D03*
X614000Y65425D02*
D03*
X613674Y69174D02*
D03*
X735500Y64500D02*
D03*
X614000Y61500D02*
D03*
X611500Y63500D02*
D03*
M02*
