G04*
G04 #@! TF.GenerationSoftware,Altium Limited,Altium Designer,24.5.2 (23)*
G04*
G04 Layer_Color=8388736*
%FSLAX25Y25*%
%MOIN*%
G70*
G04*
G04 #@! TF.SameCoordinates,AE59F967-4308-4E31-992B-2E3713F9A3AE*
G04*
G04*
G04 #@! TF.FilePolarity,Negative*
G04*
G01*
G75*
%ADD16R,0.05318X0.06302*%
%ADD17R,0.08271X0.10043*%
%ADD18R,0.10043X0.06302*%
%ADD19R,0.01184X0.06302*%
%ADD20R,0.04410X0.04134*%
%ADD21R,0.04606X0.04528*%
%ADD22R,0.04134X0.04410*%
%ADD23R,0.04528X0.04606*%
%ADD24R,0.01575X0.05906*%
G04:AMPARAMS|DCode=25|XSize=15.35mil|YSize=63.78mil|CornerRadius=4.13mil|HoleSize=0mil|Usage=FLASHONLY|Rotation=270.000|XOffset=0mil|YOffset=0mil|HoleType=Round|Shape=RoundedRectangle|*
%AMROUNDEDRECTD25*
21,1,0.01535,0.05551,0,0,270.0*
21,1,0.00709,0.06378,0,0,270.0*
1,1,0.00827,-0.02776,-0.00354*
1,1,0.00827,-0.02776,0.00354*
1,1,0.00827,0.02776,0.00354*
1,1,0.00827,0.02776,-0.00354*
%
%ADD25ROUNDEDRECTD25*%
G04:AMPARAMS|DCode=26|XSize=63.78mil|YSize=15.35mil|CornerRadius=4.13mil|HoleSize=0mil|Usage=FLASHONLY|Rotation=270.000|XOffset=0mil|YOffset=0mil|HoleType=Round|Shape=RoundedRectangle|*
%AMROUNDEDRECTD26*
21,1,0.06378,0.00709,0,0,270.0*
21,1,0.05551,0.01535,0,0,270.0*
1,1,0.00827,-0.00354,-0.02776*
1,1,0.00827,-0.00354,0.02776*
1,1,0.00827,0.00354,0.02776*
1,1,0.00827,0.00354,-0.02776*
%
%ADD26ROUNDEDRECTD26*%
%ADD27R,0.08071X0.02165*%
%ADD28R,0.05354X0.02874*%
%ADD29R,0.18307X0.07480*%
%ADD30R,0.02165X0.05276*%
%ADD31R,0.02165X0.02559*%
%ADD32C,0.24213*%
G36*
X810630Y27165D02*
X804921D01*
Y29921D01*
X799409D01*
Y35039D01*
X802165D01*
Y37008D01*
X810630D01*
Y27165D01*
D02*
G37*
G36*
X851378Y35039D02*
X854134D01*
Y29921D01*
X848622D01*
Y27165D01*
X842913D01*
Y37008D01*
X851378D01*
Y35039D01*
D02*
G37*
D16*
X529370Y50787D02*
D03*
X545118D02*
D03*
X560866D02*
D03*
X576614D02*
D03*
X592362D02*
D03*
X608110D02*
D03*
D17*
X506142Y42893D02*
D03*
X631339D02*
D03*
D18*
X619921Y30787D02*
D03*
X517559D02*
D03*
D19*
X529370Y30827D02*
D03*
X531339D02*
D03*
X533307D02*
D03*
X535276D02*
D03*
X537244D02*
D03*
X539213D02*
D03*
X541181D02*
D03*
X543150D02*
D03*
X545118D02*
D03*
X547087D02*
D03*
X549055D02*
D03*
X551024D02*
D03*
X552992D02*
D03*
X554961D02*
D03*
X556929D02*
D03*
X558898D02*
D03*
X560866D02*
D03*
X562835D02*
D03*
X564803D02*
D03*
X566772D02*
D03*
X568740D02*
D03*
X570709D02*
D03*
X572677D02*
D03*
X574646D02*
D03*
X576614D02*
D03*
X578583D02*
D03*
X580551D02*
D03*
X582520D02*
D03*
X584488D02*
D03*
X586457D02*
D03*
X588425D02*
D03*
X590394D02*
D03*
X592362D02*
D03*
X594331D02*
D03*
X596299D02*
D03*
X598268D02*
D03*
X600236D02*
D03*
X602205D02*
D03*
X604173D02*
D03*
X606142D02*
D03*
X608110D02*
D03*
D20*
X815000Y56500D02*
D03*
Y50516D02*
D03*
X451000Y46008D02*
D03*
Y51992D02*
D03*
X712028Y126768D02*
D03*
Y132752D02*
D03*
X451000Y34508D02*
D03*
Y40492D02*
D03*
D21*
X755028Y128748D02*
D03*
Y122772D02*
D03*
X728028Y128748D02*
D03*
Y122772D02*
D03*
X734028Y128748D02*
D03*
Y122772D02*
D03*
X740528D02*
D03*
Y128748D02*
D03*
X700028D02*
D03*
Y122772D02*
D03*
X706028Y128748D02*
D03*
Y122772D02*
D03*
X746528Y128748D02*
D03*
Y122772D02*
D03*
X752028Y46248D02*
D03*
Y40272D02*
D03*
X734528Y45748D02*
D03*
Y39772D02*
D03*
X721028Y45736D02*
D03*
Y39760D02*
D03*
X703528Y45748D02*
D03*
Y39772D02*
D03*
X728528Y45748D02*
D03*
Y39772D02*
D03*
X746028Y46248D02*
D03*
Y40272D02*
D03*
X715028Y45748D02*
D03*
Y39772D02*
D03*
X771441Y26374D02*
D03*
Y32350D02*
D03*
X780441Y26374D02*
D03*
Y32350D02*
D03*
X444000Y23614D02*
D03*
Y29591D02*
D03*
D22*
X669508Y78000D02*
D03*
X675492D02*
D03*
X771020Y114260D02*
D03*
X765035D02*
D03*
D23*
X682039Y87260D02*
D03*
X688016D02*
D03*
X682039Y60260D02*
D03*
X688016D02*
D03*
X682039Y69260D02*
D03*
X688016D02*
D03*
X682039Y75260D02*
D03*
X688016D02*
D03*
X682039Y81260D02*
D03*
X688016D02*
D03*
X682039Y99260D02*
D03*
X688016D02*
D03*
X682039Y93260D02*
D03*
X688016D02*
D03*
X682039Y107760D02*
D03*
X688016D02*
D03*
X765039D02*
D03*
X771016D02*
D03*
X765039Y101760D02*
D03*
X771016D02*
D03*
X765039Y95760D02*
D03*
X771016D02*
D03*
X765039Y89760D02*
D03*
X771016D02*
D03*
X765039Y82260D02*
D03*
X771016D02*
D03*
X765028Y76260D02*
D03*
X771004D02*
D03*
X765039Y61760D02*
D03*
X771016D02*
D03*
X765039Y67760D02*
D03*
X771016D02*
D03*
X438512Y51500D02*
D03*
X444488D02*
D03*
D24*
X812008Y37008D02*
D03*
X813976D02*
D03*
X815945D02*
D03*
X817913D02*
D03*
X819882D02*
D03*
X821850D02*
D03*
X823819D02*
D03*
X825787D02*
D03*
X827756D02*
D03*
X829724D02*
D03*
X831693D02*
D03*
X833661D02*
D03*
X835630D02*
D03*
X837598D02*
D03*
X839567D02*
D03*
X841535D02*
D03*
D25*
X696303Y108909D02*
D03*
Y107335D02*
D03*
Y105760D02*
D03*
Y104185D02*
D03*
Y102610D02*
D03*
Y101035D02*
D03*
Y99461D02*
D03*
Y97886D02*
D03*
Y96311D02*
D03*
Y94736D02*
D03*
Y93161D02*
D03*
Y91587D02*
D03*
Y90012D02*
D03*
Y88437D02*
D03*
Y86862D02*
D03*
Y85287D02*
D03*
Y83713D02*
D03*
Y82138D02*
D03*
Y80563D02*
D03*
Y78988D02*
D03*
Y77413D02*
D03*
Y75839D02*
D03*
Y74264D02*
D03*
Y72689D02*
D03*
Y71114D02*
D03*
Y69539D02*
D03*
Y67965D02*
D03*
Y66390D02*
D03*
Y64815D02*
D03*
Y63240D02*
D03*
Y61665D02*
D03*
Y60091D02*
D03*
X756697D02*
D03*
Y61665D02*
D03*
Y63240D02*
D03*
Y64815D02*
D03*
Y66390D02*
D03*
Y67965D02*
D03*
Y69539D02*
D03*
Y71114D02*
D03*
Y72689D02*
D03*
Y74264D02*
D03*
Y75839D02*
D03*
Y77413D02*
D03*
Y78988D02*
D03*
Y80563D02*
D03*
Y82138D02*
D03*
Y83713D02*
D03*
Y85287D02*
D03*
Y86862D02*
D03*
Y88437D02*
D03*
Y90012D02*
D03*
Y91587D02*
D03*
Y93161D02*
D03*
Y94736D02*
D03*
Y96311D02*
D03*
Y97886D02*
D03*
Y99461D02*
D03*
Y101035D02*
D03*
Y102610D02*
D03*
Y104185D02*
D03*
Y105760D02*
D03*
Y107335D02*
D03*
Y108909D02*
D03*
D26*
X750910Y114697D02*
D03*
X749335D02*
D03*
X747760D02*
D03*
X746185D02*
D03*
X744610D02*
D03*
X743035D02*
D03*
X741461D02*
D03*
X739886D02*
D03*
X738311D02*
D03*
X736736D02*
D03*
X735161D02*
D03*
X733587D02*
D03*
X732012D02*
D03*
X730437D02*
D03*
X728862D02*
D03*
X727287D02*
D03*
X725713D02*
D03*
X724138D02*
D03*
X722563D02*
D03*
X720988D02*
D03*
X719413D02*
D03*
X717839D02*
D03*
X716264D02*
D03*
X714689D02*
D03*
X713114D02*
D03*
X711539D02*
D03*
X709965D02*
D03*
X708390D02*
D03*
X706815D02*
D03*
X705240D02*
D03*
X703665D02*
D03*
X702091D02*
D03*
Y54303D02*
D03*
X703665D02*
D03*
X705240D02*
D03*
X706815D02*
D03*
X708390D02*
D03*
X709965D02*
D03*
X711539D02*
D03*
X713114D02*
D03*
X714689D02*
D03*
X716264D02*
D03*
X717839D02*
D03*
X719413D02*
D03*
X720988D02*
D03*
X722563D02*
D03*
X724138D02*
D03*
X725713D02*
D03*
X727287D02*
D03*
X728862D02*
D03*
X730437D02*
D03*
X732012D02*
D03*
X733587D02*
D03*
X735161D02*
D03*
X736736D02*
D03*
X738311D02*
D03*
X739886D02*
D03*
X741461D02*
D03*
X743035D02*
D03*
X744610D02*
D03*
X746185D02*
D03*
X747760D02*
D03*
X749335D02*
D03*
X750910D02*
D03*
D27*
X720028Y133484D02*
D03*
Y128760D02*
D03*
Y124035D02*
D03*
D28*
X780941Y38760D02*
D03*
Y42500D02*
D03*
Y46240D02*
D03*
X771059Y38760D02*
D03*
Y46240D02*
D03*
D29*
X427000Y43000D02*
D03*
Y30205D02*
D03*
D30*
X439941Y43882D02*
D03*
X445059D02*
D03*
Y36323D02*
D03*
X442500D02*
D03*
X439941D02*
D03*
D31*
X439000Y28858D02*
D03*
Y23346D02*
D03*
D32*
X1177165Y143701D02*
D03*
Y19685D02*
D03*
X-39370D02*
D03*
Y143701D02*
D03*
M02*
