G04*
G04 #@! TF.GenerationSoftware,Altium Limited,Altium Designer,24.5.2 (23)*
G04*
G04 Layer_Color=65535*
%FSLAX25Y25*%
%MOIN*%
G70*
G04*
G04 #@! TF.SameCoordinates,AE59F967-4308-4E31-992B-2E3713F9A3AE*
G04*
G04*
G04 #@! TF.FilePolarity,Positive*
G04*
G01*
G75*
%ADD10C,0.00787*%
%ADD11C,0.00984*%
%ADD12C,0.00600*%
%ADD13C,0.00500*%
%ADD14C,0.01000*%
%ADD15C,0.00700*%
G36*
X64433Y122322D02*
X67332D01*
Y121356D01*
X69264D01*
Y120389D01*
X71197D01*
Y119423D01*
X73130D01*
Y118457D01*
X74096D01*
Y117490D01*
X75063D01*
Y116524D01*
X76029D01*
Y115558D01*
X76995D01*
Y114591D01*
X77961D01*
Y113625D01*
X78928D01*
Y111692D01*
X79894D01*
Y110726D01*
X80861D01*
Y108793D01*
X81827D01*
Y105894D01*
X82793D01*
Y102029D01*
X83760D01*
Y100096D01*
X84726D01*
Y101063D01*
X85692D01*
Y100096D01*
X87625D01*
Y99130D01*
X89558D01*
Y98163D01*
X90524D01*
Y97197D01*
X91490D01*
Y96231D01*
X92457D01*
Y95264D01*
X93423D01*
Y94298D01*
X94389D01*
Y92365D01*
X95356D01*
Y88500D01*
X96322D01*
Y87534D01*
X95356D01*
Y86567D01*
X96322D01*
Y85601D01*
X95356D01*
Y81736D01*
X94389D01*
Y79803D01*
X93423D01*
Y77870D01*
X91490D01*
Y75937D01*
X89558D01*
Y74971D01*
X88591D01*
Y74005D01*
X85692D01*
Y73039D01*
X84726D01*
Y72072D01*
X83760D01*
Y71106D01*
X82793D01*
Y70139D01*
X81827D01*
Y69173D01*
X80861D01*
Y68207D01*
X79894D01*
Y67240D01*
X78928D01*
Y66274D01*
X77961D01*
Y65308D01*
X76995D01*
Y64341D01*
X76029D01*
Y63375D01*
X75063D01*
Y62409D01*
X74096D01*
Y61442D01*
X73130D01*
Y60476D01*
X71197D01*
Y58543D01*
X70231D01*
Y57577D01*
X69264D01*
Y56611D01*
X68298D01*
Y55644D01*
X67332D01*
Y54678D01*
X65399D01*
Y53711D01*
X64433D01*
Y56611D01*
X66365D01*
Y58543D01*
X68298D01*
Y60476D01*
X69264D01*
Y61442D01*
X71197D01*
Y63375D01*
X73130D01*
Y65308D01*
X75063D01*
Y67240D01*
X76995D01*
Y69173D01*
X78928D01*
Y71106D01*
X80861D01*
Y73039D01*
X71197D01*
Y74971D01*
X70231D01*
Y75937D01*
X69264D01*
Y77870D01*
X68298D01*
Y79803D01*
X67332D01*
Y81736D01*
X66365D01*
Y82702D01*
Y87534D01*
X65399D01*
Y88500D01*
Y90433D01*
X64433D01*
Y91399D01*
X63466D01*
Y92365D01*
X62500D01*
Y95264D01*
X61534D01*
Y98163D01*
X60567D01*
Y102029D01*
X59601D01*
Y102995D01*
X58635D01*
Y105894D01*
X57668D01*
Y106861D01*
X56702D01*
Y107827D01*
X55736D01*
Y108793D01*
Y109760D01*
Y110726D01*
X54769D01*
Y113625D01*
X53803D01*
Y116524D01*
X52837D01*
Y118457D01*
X51870D01*
Y119423D01*
X50904D01*
Y118457D01*
X51870D01*
Y116524D01*
X52837D01*
Y113625D01*
X53803D01*
Y110726D01*
X54769D01*
Y107827D01*
X55736D01*
Y106861D01*
X56702D01*
Y105894D01*
X57668D01*
Y102995D01*
X58635D01*
Y102029D01*
X59601D01*
Y98163D01*
X60567D01*
Y95264D01*
X61534D01*
Y92365D01*
X62500D01*
Y91399D01*
X63466D01*
Y90433D01*
X64433D01*
Y87534D01*
X65399D01*
Y81736D01*
X66365D01*
Y79803D01*
X67332D01*
Y77870D01*
X68298D01*
Y75937D01*
X69264D01*
Y74971D01*
Y74005D01*
X68298D01*
Y74971D01*
X67332D01*
Y76904D01*
X66365D01*
Y78837D01*
X65399D01*
Y80769D01*
X64433D01*
Y86567D01*
X63466D01*
Y90433D01*
X62500D01*
Y91399D01*
X61534D01*
Y90433D01*
X62500D01*
Y86567D01*
X63466D01*
Y80769D01*
X64433D01*
Y78837D01*
X65399D01*
Y76904D01*
X66365D01*
Y74971D01*
X67332D01*
Y73039D01*
X59601D01*
Y72072D01*
X58635D01*
Y70139D01*
X56702D01*
Y69173D01*
X55736D01*
Y68207D01*
X54769D01*
Y66274D01*
X51870D01*
Y68207D01*
X52837D01*
Y69173D01*
X53803D01*
Y70139D01*
X54769D01*
Y71106D01*
X55736D01*
Y72072D01*
X56702D01*
Y73039D01*
X46072D01*
Y72072D01*
X45106D01*
Y71106D01*
X44139D01*
Y70139D01*
X43173D01*
Y69173D01*
X42207D01*
Y68207D01*
X41240D01*
Y67240D01*
X40274D01*
Y65308D01*
X41240D01*
Y66274D01*
X42207D01*
Y65308D01*
X43173D01*
Y66274D01*
X44139D01*
Y65308D01*
X45106D01*
Y66274D01*
X46072D01*
Y65308D01*
X47038D01*
Y66274D01*
X48005D01*
Y65308D01*
X48971D01*
Y64341D01*
X49937D01*
Y62409D01*
X48971D01*
Y60476D01*
X47038D01*
Y59510D01*
X46072D01*
Y58543D01*
X44139D01*
Y57577D01*
X43173D01*
Y56611D01*
X41240D01*
Y55644D01*
X40274D01*
Y54678D01*
X38341D01*
Y53711D01*
X37375D01*
Y52745D01*
X35442D01*
Y51779D01*
X34476D01*
Y50813D01*
X32543D01*
Y49846D01*
X31577D01*
Y48880D01*
X29644D01*
Y47914D01*
X28678D01*
Y46947D01*
X26745D01*
Y45981D01*
X25779D01*
Y45014D01*
X23846D01*
Y44048D01*
X22880D01*
Y43082D01*
X20947D01*
Y42115D01*
X19981D01*
Y41149D01*
X18048D01*
Y40183D01*
X16115D01*
Y41149D01*
X15149D01*
Y42115D01*
X14183D01*
Y45014D01*
X16115D01*
Y46947D01*
X17082D01*
Y47914D01*
X18048D01*
Y48880D01*
X19981D01*
Y50813D01*
X21914D01*
Y52745D01*
X23846D01*
Y54678D01*
X25779D01*
Y56611D01*
X26745D01*
Y57577D01*
X22880D01*
Y58543D01*
X21914D01*
Y57577D01*
X19981D01*
Y58543D01*
X19014D01*
Y59510D01*
X18048D01*
Y62409D01*
X19014D01*
Y63375D01*
X19981D01*
Y64341D01*
X20947D01*
Y65308D01*
X21914D01*
Y66274D01*
X22880D01*
Y67240D01*
X23846D01*
Y68207D01*
X24813D01*
Y69173D01*
X25779D01*
Y70139D01*
X26745D01*
Y71106D01*
X27711D01*
Y72072D01*
X28678D01*
Y73039D01*
X21914D01*
Y72072D01*
X19981D01*
Y70139D01*
X18048D01*
Y68207D01*
X16115D01*
Y66274D01*
X14183D01*
Y64341D01*
X12250D01*
Y62409D01*
X10317D01*
Y60476D01*
X8385D01*
Y58543D01*
X6452D01*
Y56611D01*
X4519D01*
Y54678D01*
X2586D01*
Y53711D01*
X1620D01*
Y56611D01*
X2586D01*
Y57577D01*
X3553D01*
Y58543D01*
X4519D01*
Y59510D01*
X5486D01*
Y60476D01*
X6452D01*
Y61442D01*
X7418D01*
Y62409D01*
X9351D01*
Y64341D01*
X10317D01*
Y65308D01*
X11284D01*
Y66274D01*
X12250D01*
Y67240D01*
X13216D01*
Y68207D01*
X15149D01*
Y70139D01*
X16115D01*
Y71106D01*
X17082D01*
Y72072D01*
X18048D01*
Y73039D01*
X14183D01*
Y74005D01*
X11284D01*
Y74971D01*
X10317D01*
Y75937D01*
X9351D01*
Y76904D01*
X8385D01*
Y77870D01*
X7418D01*
Y80769D01*
X6452D01*
Y86567D01*
X7418D01*
Y88500D01*
X8385D01*
Y89466D01*
X9351D01*
Y91399D01*
X11284D01*
Y92365D01*
X13216D01*
Y93332D01*
X15149D01*
Y95264D01*
X16115D01*
Y98163D01*
X17082D01*
Y100096D01*
X18048D01*
Y102029D01*
X19014D01*
Y102995D01*
X19981D01*
Y103962D01*
X20947D01*
Y104928D01*
X22880D01*
Y102029D01*
X23846D01*
Y101063D01*
X24813D01*
Y100096D01*
X25779D01*
Y99130D01*
X24813D01*
Y100096D01*
X23846D01*
Y101063D01*
X22880D01*
Y102029D01*
X21914D01*
Y101063D01*
X20947D01*
Y99130D01*
X19014D01*
Y96231D01*
X19981D01*
Y95264D01*
X20947D01*
Y94298D01*
X19981D01*
Y95264D01*
X19014D01*
Y96231D01*
X18048D01*
Y95264D01*
X19014D01*
Y94298D01*
X18048D01*
Y92365D01*
X19014D01*
Y91399D01*
X19981D01*
Y90433D01*
X20947D01*
Y89466D01*
X21914D01*
Y88500D01*
X20947D01*
Y89466D01*
X19981D01*
Y90433D01*
X19014D01*
Y91399D01*
X18048D01*
Y92365D01*
X17082D01*
Y90433D01*
X18048D01*
Y89466D01*
X19014D01*
Y87534D01*
X19981D01*
Y86567D01*
X20947D01*
Y85601D01*
X19981D01*
Y86567D01*
X19014D01*
Y87534D01*
X18048D01*
Y89466D01*
X17082D01*
Y90433D01*
X16115D01*
Y91399D01*
X15149D01*
Y89466D01*
X16115D01*
Y88500D01*
X17082D01*
Y87534D01*
X16115D01*
Y88500D01*
X15149D01*
Y89466D01*
X14183D01*
Y90433D01*
X12250D01*
Y89466D01*
X13216D01*
Y88500D01*
X14183D01*
Y87534D01*
X15149D01*
Y86567D01*
X16115D01*
Y85601D01*
X17082D01*
Y84635D01*
X18048D01*
Y83668D01*
X19014D01*
Y82702D01*
X19981D01*
Y81736D01*
X19014D01*
Y82702D01*
X18048D01*
Y83668D01*
X17082D01*
Y84635D01*
X16115D01*
Y85601D01*
X15149D01*
Y86567D01*
X14183D01*
Y87534D01*
X13216D01*
Y88500D01*
X12250D01*
Y89466D01*
X11284D01*
Y87534D01*
X12250D01*
Y86567D01*
X13216D01*
Y84635D01*
Y83668D01*
X12250D01*
Y86567D01*
X11284D01*
Y87534D01*
X10317D01*
Y86567D01*
X9351D01*
Y84635D01*
X10317D01*
Y83668D01*
X9351D01*
Y84635D01*
X8385D01*
Y83668D01*
X9351D01*
Y80769D01*
X10317D01*
Y79803D01*
X11284D01*
Y78837D01*
X12250D01*
Y77870D01*
X11284D01*
Y78837D01*
X10317D01*
Y79803D01*
X9351D01*
Y78837D01*
X10317D01*
Y77870D01*
X11284D01*
Y76904D01*
X12250D01*
Y75937D01*
X13216D01*
Y80769D01*
X14183D01*
Y75937D01*
X16115D01*
Y74971D01*
X17082D01*
Y75937D01*
X16115D01*
Y76904D01*
X15149D01*
Y77870D01*
X16115D01*
Y76904D01*
X17082D01*
Y75937D01*
X19014D01*
Y74971D01*
X19981D01*
Y75937D01*
X19014D01*
Y76904D01*
X18048D01*
Y77870D01*
X19014D01*
Y76904D01*
X19981D01*
Y75937D01*
X21914D01*
Y74971D01*
X22880D01*
Y75937D01*
X21914D01*
Y76904D01*
Y77870D01*
X20947D01*
Y78837D01*
X21914D01*
Y77870D01*
X22880D01*
Y75937D01*
X23846D01*
Y74971D01*
X24813D01*
Y75937D01*
X23846D01*
Y76904D01*
X24813D01*
Y75937D01*
X27711D01*
Y74971D01*
X28678D01*
Y75937D01*
X27711D01*
Y76904D01*
X26745D01*
Y78837D01*
X25779D01*
Y80769D01*
X24813D01*
Y81736D01*
X23846D01*
Y82702D01*
Y83668D01*
X22880D01*
Y84635D01*
X21914D01*
Y85601D01*
X22880D01*
Y84635D01*
X23846D01*
Y83668D01*
X24813D01*
Y81736D01*
X25779D01*
Y80769D01*
X26745D01*
Y79803D01*
Y78837D01*
X27711D01*
Y77870D01*
Y76904D01*
X28678D01*
Y75937D01*
X30611D01*
Y74971D01*
X31577D01*
Y75937D01*
X30611D01*
Y76904D01*
X29644D01*
Y77870D01*
X28678D01*
Y78837D01*
X29644D01*
Y77870D01*
X30611D01*
Y76904D01*
X31577D01*
Y75937D01*
X33510D01*
Y74971D01*
X34476D01*
Y75937D01*
X33510D01*
Y76904D01*
X32543D01*
Y77870D01*
X31577D01*
Y78837D01*
X30611D01*
Y79803D01*
X29644D01*
Y81736D01*
X28678D01*
Y82702D01*
Y83668D01*
X29644D01*
Y81736D01*
X30611D01*
Y80769D01*
Y79803D01*
X31577D01*
Y78837D01*
X32543D01*
Y77870D01*
X33510D01*
Y76904D01*
X34476D01*
Y75937D01*
X36409D01*
Y74971D01*
X37375D01*
Y75937D01*
X36409D01*
Y76904D01*
X35442D01*
Y77870D01*
X34476D01*
Y79803D01*
X35442D01*
Y78837D01*
Y77870D01*
X36409D01*
Y76904D01*
X37375D01*
Y75937D01*
X39308D01*
Y74971D01*
X40274D01*
Y75937D01*
X39308D01*
Y76904D01*
X38341D01*
Y77870D01*
X37375D01*
Y78837D01*
X36409D01*
Y79803D01*
X37375D01*
Y78837D01*
X38341D01*
Y77870D01*
X39308D01*
Y76904D01*
X40274D01*
Y75937D01*
X41240D01*
Y74971D01*
X42207D01*
Y75937D01*
X41240D01*
Y76904D01*
X40274D01*
Y77870D01*
X41240D01*
Y76904D01*
X43173D01*
Y75937D01*
X44139D01*
Y74971D01*
X45106D01*
Y77870D01*
X44139D01*
Y79803D01*
X45106D01*
Y77870D01*
X46072D01*
Y74971D01*
X47038D01*
Y76904D01*
X48005D01*
Y74971D01*
X48971D01*
Y77870D01*
X48005D01*
Y78837D01*
X47038D01*
Y79803D01*
X48005D01*
Y78837D01*
X48971D01*
Y77870D01*
X49937D01*
Y75937D01*
X52837D01*
Y76904D01*
X50904D01*
Y77870D01*
X52837D01*
Y76904D01*
X53803D01*
Y75937D01*
X54769D01*
Y76904D01*
X53803D01*
Y77870D01*
X52837D01*
Y78837D01*
X51870D01*
Y79803D01*
X50904D01*
Y80769D01*
X51870D01*
Y79803D01*
X52837D01*
Y78837D01*
X53803D01*
Y77870D01*
X55736D01*
Y80769D01*
X54769D01*
Y87534D01*
X53803D01*
Y88500D01*
X54769D01*
Y87534D01*
X55736D01*
Y81736D01*
Y80769D01*
X56702D01*
Y78837D01*
X57668D01*
Y80769D01*
X56702D01*
Y82702D01*
X57668D01*
Y81736D01*
Y80769D01*
X58635D01*
Y82702D01*
X57668D01*
Y83668D01*
X56702D01*
Y86567D01*
X57668D01*
Y83668D01*
X58635D01*
Y82702D01*
X59601D01*
Y83668D01*
X58635D01*
Y84635D01*
Y85601D01*
Y86567D01*
X59601D01*
Y83668D01*
X60567D01*
Y86567D01*
X59601D01*
Y87534D01*
X60567D01*
Y86567D01*
X61534D01*
Y84635D01*
X62500D01*
Y86567D01*
X61534D01*
Y87534D01*
X60567D01*
Y88500D01*
X58635D01*
Y89466D01*
Y91399D01*
X57668D01*
Y93332D01*
X56702D01*
Y91399D01*
X57668D01*
Y88500D01*
X56702D01*
Y89466D01*
Y90433D01*
Y91399D01*
X55736D01*
Y94298D01*
X53803D01*
Y95264D01*
X51870D01*
Y96231D01*
X50904D01*
Y95264D01*
X51870D01*
Y93332D01*
X52837D01*
Y91399D01*
X53803D01*
Y89466D01*
X52837D01*
Y91399D01*
X51870D01*
Y93332D01*
X50904D01*
Y94298D01*
Y95264D01*
X49937D01*
Y96231D01*
X48005D01*
Y98163D01*
X47038D01*
Y100096D01*
X46072D01*
Y101063D01*
X45106D01*
Y102029D01*
X44139D01*
Y102995D01*
X43173D01*
Y103962D01*
X42207D01*
Y104928D01*
X40274D01*
Y105894D01*
X39308D01*
Y106861D01*
X38341D01*
Y105894D01*
X39308D01*
Y104928D01*
X40274D01*
Y102995D01*
X41240D01*
Y102029D01*
X40274D01*
Y102995D01*
X39308D01*
Y104928D01*
X38341D01*
Y105894D01*
X37375D01*
Y106861D01*
X36409D01*
Y105894D01*
X37375D01*
Y104928D01*
X38341D01*
Y102995D01*
X39308D01*
Y102029D01*
X40274D01*
Y98163D01*
X41240D01*
Y96231D01*
X42207D01*
Y93332D01*
X41240D01*
Y96231D01*
X40274D01*
Y97197D01*
Y98163D01*
X39308D01*
Y99130D01*
Y102029D01*
X38341D01*
Y102995D01*
X37375D01*
Y103962D01*
Y104928D01*
X36409D01*
Y105894D01*
X35442D01*
Y106861D01*
X30611D01*
Y105894D01*
X31577D01*
Y104928D01*
X32543D01*
Y103962D01*
X33510D01*
Y102995D01*
X32543D01*
Y103962D01*
X31577D01*
Y104928D01*
X30611D01*
Y105894D01*
X29644D01*
Y106861D01*
X28678D01*
Y105894D01*
X29644D01*
Y104928D01*
X30611D01*
Y103962D01*
X31577D01*
Y102995D01*
X32543D01*
Y101063D01*
X33510D01*
Y100096D01*
X34476D01*
Y99130D01*
X35442D01*
Y97197D01*
X36409D01*
Y96231D01*
X37375D01*
Y95264D01*
X36409D01*
Y96231D01*
X35442D01*
Y97197D01*
X34476D01*
Y98163D01*
Y99130D01*
X33510D01*
Y100096D01*
X32543D01*
Y101063D01*
X31577D01*
Y102995D01*
X30611D01*
Y103962D01*
X29644D01*
Y104928D01*
X28678D01*
Y105894D01*
X27711D01*
Y104928D01*
X28678D01*
Y103962D01*
X27711D01*
Y104928D01*
X26745D01*
Y105894D01*
X25779D01*
Y107827D01*
X26745D01*
Y108793D01*
X28678D01*
Y109760D01*
X29644D01*
Y108793D01*
X30611D01*
Y109760D01*
X36409D01*
Y110726D01*
X37375D01*
Y112659D01*
X38341D01*
Y113625D01*
X39308D01*
Y115558D01*
X41240D01*
Y117490D01*
X43173D01*
Y118457D01*
X44139D01*
Y119423D01*
X46072D01*
Y120389D01*
X47038D01*
Y121356D01*
X49937D01*
Y122322D01*
X53803D01*
Y123289D01*
X62500D01*
Y122322D01*
X63466D01*
Y123289D01*
X64433D01*
Y122322D01*
D02*
G37*
G36*
X25779Y104928D02*
X24813D01*
Y105894D01*
X25779D01*
Y104928D01*
D02*
G37*
G36*
X26745Y102995D02*
X27711D01*
Y102029D01*
X26745D01*
Y102995D01*
X25779D01*
Y103962D01*
X26745D01*
Y102995D01*
D02*
G37*
G36*
X34476Y104928D02*
X36409D01*
Y103962D01*
X35442D01*
Y102029D01*
Y101063D01*
X36409D01*
Y100096D01*
X35442D01*
Y101063D01*
X34476D01*
Y104928D01*
X32543D01*
Y105894D01*
X34476D01*
Y104928D01*
D02*
G37*
G36*
X37375Y101063D02*
X38341D01*
Y100096D01*
Y99130D01*
X37375D01*
Y101063D01*
X36409D01*
Y102995D01*
X37375D01*
Y101063D01*
D02*
G37*
G36*
X27711Y98163D02*
X26745D01*
Y99130D01*
X27711D01*
Y98163D01*
D02*
G37*
G36*
X22880D02*
X21914D01*
Y99130D01*
Y100096D01*
X22880D01*
Y98163D01*
D02*
G37*
G36*
X29644Y101063D02*
X30611D01*
Y100096D01*
X31577D01*
Y99130D01*
X32543D01*
Y98163D01*
X33510D01*
Y97197D01*
X32543D01*
Y98163D01*
X31577D01*
Y99130D01*
X30611D01*
Y100096D01*
X29644D01*
Y101063D01*
X28678D01*
Y102995D01*
X29644D01*
Y101063D01*
D02*
G37*
G36*
X24813Y97197D02*
X23846D01*
Y98163D01*
Y99130D01*
X24813D01*
Y97197D01*
D02*
G37*
G36*
X42207Y98163D02*
X43173D01*
Y96231D01*
X42207D01*
Y98163D01*
X41240D01*
Y99130D01*
Y100096D01*
Y101063D01*
X42207D01*
Y98163D01*
D02*
G37*
G36*
X29644Y96231D02*
X28678D01*
Y97197D01*
X29644D01*
Y96231D01*
D02*
G37*
G36*
X20947Y97197D02*
X21914D01*
Y96231D01*
X20947D01*
Y97197D01*
X19981D01*
Y98163D01*
X20947D01*
Y97197D01*
D02*
G37*
G36*
X23846Y95264D02*
X22880D01*
Y96231D01*
Y97197D01*
X23846D01*
Y95264D01*
D02*
G37*
G36*
X37375Y98163D02*
X38341D01*
Y97197D01*
X39308D01*
Y95264D01*
X40274D01*
Y94298D01*
X39308D01*
Y95264D01*
X38341D01*
Y97197D01*
X37375D01*
Y98163D01*
X36409D01*
Y99130D01*
X37375D01*
Y98163D01*
D02*
G37*
G36*
X24813Y103962D02*
Y102995D01*
X25779D01*
Y102029D01*
X26745D01*
Y101063D01*
X27711D01*
Y100096D01*
X28678D01*
Y99130D01*
X29644D01*
Y98163D01*
X30611D01*
Y97197D01*
X31577D01*
Y96231D01*
X32543D01*
Y95264D01*
X33510D01*
Y94298D01*
X32543D01*
Y95264D01*
X31577D01*
Y96231D01*
X30611D01*
Y97197D01*
X29644D01*
Y98163D01*
X28678D01*
Y99130D01*
X27711D01*
Y100096D01*
X26745D01*
Y101063D01*
X25779D01*
Y102029D01*
X24813D01*
Y102995D01*
X23846D01*
Y104928D01*
X24813D01*
Y103962D01*
D02*
G37*
G36*
X26745Y97197D02*
X27711D01*
Y96231D01*
X28678D01*
Y95264D01*
X29644D01*
Y94298D01*
X28678D01*
Y95264D01*
X27711D01*
Y96231D01*
X26745D01*
Y97197D01*
X25779D01*
Y98163D01*
X26745D01*
Y97197D01*
D02*
G37*
G36*
X31577Y93332D02*
X30611D01*
Y94298D01*
Y95264D01*
X31577D01*
Y93332D01*
D02*
G37*
G36*
X28678D02*
X27711D01*
Y94298D01*
X28678D01*
Y93332D01*
D02*
G37*
G36*
X24813D02*
X23846D01*
Y94298D01*
X24813D01*
Y93332D01*
D02*
G37*
G36*
X22880Y94298D02*
Y93332D01*
X21914D01*
Y95264D01*
X22880D01*
Y94298D01*
D02*
G37*
G36*
X42207Y102995D02*
X43173D01*
Y102029D01*
Y101063D01*
X44139D01*
Y100096D01*
Y99130D01*
Y98163D01*
X45106D01*
Y95264D01*
X46072D01*
Y93332D01*
X47038D01*
Y92365D01*
X46072D01*
Y93332D01*
X45106D01*
Y95264D01*
X44139D01*
Y98163D01*
X43173D01*
Y101063D01*
X42207D01*
Y102995D01*
X41240D01*
Y103962D01*
X42207D01*
Y102995D01*
D02*
G37*
G36*
X44139Y93332D02*
X45106D01*
Y92365D01*
X44139D01*
Y93332D01*
X43173D01*
Y95264D01*
X44139D01*
Y93332D01*
D02*
G37*
G36*
X34476Y92365D02*
X32543D01*
Y93332D01*
X34476D01*
Y92365D01*
D02*
G37*
G36*
X19981D02*
X19014D01*
Y93332D01*
X19981D01*
Y92365D01*
D02*
G37*
G36*
X46072Y99130D02*
Y98163D01*
X47038D01*
Y96231D01*
X48005D01*
Y93332D01*
X48971D01*
Y92365D01*
Y91399D01*
X48005D01*
Y93332D01*
X47038D01*
Y96231D01*
X46072D01*
Y98163D01*
X45106D01*
Y100096D01*
X46072D01*
Y99130D01*
D02*
G37*
G36*
X44139Y91399D02*
X43173D01*
Y92365D01*
X44139D01*
Y91399D01*
D02*
G37*
G36*
X34476Y95264D02*
X35442D01*
Y94298D01*
X36409D01*
Y93332D01*
Y92365D01*
X37375D01*
Y91399D01*
X36409D01*
Y92365D01*
X35442D01*
Y94298D01*
X34476D01*
Y95264D01*
X33510D01*
Y96231D01*
X34476D01*
Y95264D01*
D02*
G37*
G36*
X25779D02*
X26745D01*
Y93332D01*
X27711D01*
Y92365D01*
X28678D01*
Y91399D01*
X27711D01*
Y92365D01*
X26745D01*
Y93332D01*
X25779D01*
Y94298D01*
Y95264D01*
X24813D01*
Y96231D01*
X25779D01*
Y95264D01*
D02*
G37*
G36*
Y91399D02*
X24813D01*
Y92365D01*
X25779D01*
Y91399D01*
D02*
G37*
G36*
X46072Y90433D02*
X45106D01*
Y91399D01*
X46072D01*
Y90433D01*
D02*
G37*
G36*
X34476D02*
X33510D01*
Y91399D01*
X34476D01*
Y90433D01*
D02*
G37*
G36*
X30611D02*
X29644D01*
Y91399D01*
X30611D01*
Y90433D01*
D02*
G37*
G36*
X21914Y91399D02*
X22880D01*
Y90433D01*
X21914D01*
Y91399D01*
X20947D01*
Y92365D01*
Y93332D01*
X21914D01*
Y91399D01*
D02*
G37*
G36*
X48005Y89466D02*
X47038D01*
Y90433D01*
Y91399D01*
X48005D01*
Y89466D01*
D02*
G37*
G36*
X41240Y92365D02*
X42207D01*
Y91399D01*
X43173D01*
Y90433D01*
Y89466D01*
X42207D01*
Y91399D01*
X41240D01*
Y92365D01*
X40274D01*
Y93332D01*
X41240D01*
Y92365D01*
D02*
G37*
G36*
X38341Y89466D02*
X37375D01*
Y90433D01*
X38341D01*
Y89466D01*
D02*
G37*
G36*
X36409D02*
X35442D01*
Y90433D01*
Y91399D01*
X36409D01*
Y89466D01*
D02*
G37*
G36*
X30611Y92365D02*
X31577D01*
Y91399D01*
X32543D01*
Y90433D01*
X33510D01*
Y89466D01*
X32543D01*
Y90433D01*
X31577D01*
Y91399D01*
X30611D01*
Y92365D01*
X29644D01*
Y93332D01*
X30611D01*
Y92365D01*
D02*
G37*
G36*
X27711Y89466D02*
X26745D01*
Y91399D01*
X27711D01*
Y89466D01*
D02*
G37*
G36*
X23846Y91399D02*
X24813D01*
Y89466D01*
X23846D01*
Y91399D01*
X22880D01*
Y92365D01*
X23846D01*
Y91399D01*
D02*
G37*
G36*
X49937Y89466D02*
X50904D01*
Y88500D01*
X49937D01*
Y89466D01*
X48971D01*
Y90433D01*
X49937D01*
Y89466D01*
D02*
G37*
G36*
X38341Y93332D02*
X39308D01*
Y91399D01*
X40274D01*
Y89466D01*
Y88500D01*
X39308D01*
Y91399D01*
X38341D01*
Y92365D01*
Y93332D01*
X37375D01*
Y94298D01*
X38341D01*
Y93332D01*
D02*
G37*
G36*
X53803D02*
X54769D01*
Y91399D01*
X55736D01*
Y88500D01*
X56702D01*
Y87534D01*
X55736D01*
Y88500D01*
X54769D01*
Y91399D01*
X53803D01*
Y93332D01*
X52837D01*
Y94298D01*
X53803D01*
Y93332D01*
D02*
G37*
G36*
X49937Y87534D02*
X48971D01*
Y88500D01*
X49937D01*
Y87534D01*
D02*
G37*
G36*
X44139D02*
X43173D01*
Y88500D01*
X44139D01*
Y87534D01*
D02*
G37*
G36*
X42207D02*
X41240D01*
Y89466D01*
X42207D01*
Y87534D01*
D02*
G37*
G36*
X28678D02*
X27711D01*
Y88500D01*
X28678D01*
Y87534D01*
D02*
G37*
G36*
X26745D02*
X25779D01*
Y88500D01*
Y89466D01*
X26745D01*
Y87534D01*
D02*
G37*
G36*
X20947D02*
X19981D01*
Y88500D01*
X20947D01*
Y87534D01*
D02*
G37*
G36*
X51870Y86567D02*
X50904D01*
Y87534D01*
X51870D01*
Y86567D01*
D02*
G37*
G36*
X38341Y87534D02*
X39308D01*
Y86567D01*
X38341D01*
Y87534D01*
X37375D01*
Y88500D01*
X38341D01*
Y87534D01*
D02*
G37*
G36*
X22880Y86567D02*
X21914D01*
Y87534D01*
X22880D01*
Y86567D01*
D02*
G37*
G36*
X48005Y87534D02*
X48971D01*
Y85601D01*
X48005D01*
Y87534D01*
X47038D01*
Y88500D01*
X48005D01*
Y87534D01*
D02*
G37*
G36*
X45106Y89466D02*
X46072D01*
Y85601D01*
X45106D01*
Y89466D01*
X44139D01*
Y90433D01*
X45106D01*
Y89466D01*
D02*
G37*
G36*
X41240Y85601D02*
X40274D01*
Y87534D01*
X41240D01*
Y85601D01*
D02*
G37*
G36*
X29644Y89466D02*
X30611D01*
Y87534D01*
X31577D01*
Y86567D01*
X32543D01*
Y85601D01*
X31577D01*
Y86567D01*
X30611D01*
Y87534D01*
X29644D01*
Y89466D01*
X28678D01*
Y90433D01*
X29644D01*
Y89466D01*
D02*
G37*
G36*
X18048Y85601D02*
X17082D01*
Y86567D01*
X18048D01*
Y85601D01*
D02*
G37*
G36*
X49937Y93332D02*
X50904D01*
Y90433D01*
X51870D01*
Y89466D01*
X52837D01*
Y87534D01*
X53803D01*
Y84635D01*
X52837D01*
Y85601D01*
Y87534D01*
X51870D01*
Y88500D01*
Y89466D01*
X50904D01*
Y90433D01*
X49937D01*
Y93332D01*
X48971D01*
Y94298D01*
Y95264D01*
X49937D01*
Y93332D01*
D02*
G37*
G36*
X43173Y85601D02*
Y84635D01*
X42207D01*
Y86567D01*
X43173D01*
Y85601D01*
D02*
G37*
G36*
X27711D02*
X28678D01*
Y84635D01*
X27711D01*
Y85601D01*
X25779D01*
Y86567D01*
X27711D01*
Y85601D01*
D02*
G37*
G36*
X15149Y84635D02*
X14183D01*
Y85601D01*
X15149D01*
Y84635D01*
D02*
G37*
G36*
X11284D02*
X10317D01*
Y85601D01*
X11284D01*
Y84635D01*
D02*
G37*
G36*
X48005Y83668D02*
X47038D01*
Y85601D01*
X48005D01*
Y83668D01*
D02*
G37*
G36*
X45106Y84635D02*
Y83668D01*
X44139D01*
Y85601D01*
X45106D01*
Y84635D01*
D02*
G37*
G36*
X32543Y88500D02*
X33510D01*
Y87534D01*
X34476D01*
Y85601D01*
X35442D01*
Y84635D01*
X36409D01*
Y83668D01*
X35442D01*
Y84635D01*
X34476D01*
Y85601D01*
X33510D01*
Y86567D01*
Y87534D01*
X32543D01*
Y88500D01*
X31577D01*
Y89466D01*
X32543D01*
Y88500D01*
D02*
G37*
G36*
X40274Y84635D02*
X41240D01*
Y83668D01*
X42207D01*
Y82702D01*
X41240D01*
Y83668D01*
X40274D01*
Y84635D01*
X39308D01*
Y85601D01*
X40274D01*
Y84635D01*
D02*
G37*
G36*
X17082Y82702D02*
X16115D01*
Y83668D01*
X17082D01*
Y82702D01*
D02*
G37*
G36*
X49937Y83668D02*
X50904D01*
Y82702D01*
X51870D01*
Y81736D01*
X50904D01*
Y82702D01*
X49937D01*
Y83668D01*
X48971D01*
Y84635D01*
X49937D01*
Y83668D01*
D02*
G37*
G36*
X35442Y88500D02*
X36409D01*
Y86567D01*
X37375D01*
Y85601D01*
X38341D01*
Y83668D01*
X39308D01*
Y81736D01*
X38341D01*
Y82702D01*
Y83668D01*
X37375D01*
Y84635D01*
Y85601D01*
X36409D01*
Y86567D01*
X35442D01*
Y87534D01*
Y88500D01*
X34476D01*
Y89466D01*
X35442D01*
Y88500D01*
D02*
G37*
G36*
X29644Y85601D02*
X30611D01*
Y84635D01*
X31577D01*
Y82702D01*
X32543D01*
Y81736D01*
X31577D01*
Y82702D01*
X30611D01*
Y84635D01*
X29644D01*
Y85601D01*
X28678D01*
Y86567D01*
X29644D01*
Y85601D01*
D02*
G37*
G36*
X23846Y88500D02*
Y87534D01*
X24813D01*
Y85601D01*
X25779D01*
Y84635D01*
X26745D01*
Y83668D01*
X27711D01*
Y82702D01*
Y81736D01*
X26745D01*
Y83668D01*
X25779D01*
Y84635D01*
X24813D01*
Y85601D01*
X23846D01*
Y86567D01*
Y87534D01*
X22880D01*
Y89466D01*
X23846D01*
Y88500D01*
D02*
G37*
G36*
X14183Y81736D02*
X13216D01*
Y82702D01*
X14183D01*
Y81736D01*
D02*
G37*
G36*
X12250D02*
X11284D01*
Y83668D01*
X12250D01*
Y81736D01*
D02*
G37*
G36*
X47038D02*
X48005D01*
Y80769D01*
X47038D01*
Y81736D01*
X46072D01*
Y82702D01*
Y83668D01*
X47038D01*
Y81736D01*
D02*
G37*
G36*
X36409D02*
Y80769D01*
X35442D01*
Y82702D01*
X36409D01*
Y81736D01*
D02*
G37*
G36*
X33510Y83668D02*
X34476D01*
Y80769D01*
X33510D01*
Y81736D01*
Y83668D01*
X32543D01*
Y84635D01*
X33510D01*
Y83668D01*
D02*
G37*
G36*
X23846Y80769D02*
X22880D01*
Y81736D01*
X23846D01*
Y80769D01*
D02*
G37*
G36*
X15149Y82702D02*
X16115D01*
Y81736D01*
X17082D01*
Y80769D01*
X16115D01*
Y81736D01*
X15149D01*
Y82702D01*
X14183D01*
Y83668D01*
X15149D01*
Y82702D01*
D02*
G37*
G36*
X44139Y81736D02*
X45106D01*
Y80769D01*
X46072D01*
Y79803D01*
X45106D01*
Y80769D01*
X44139D01*
Y81736D01*
X43173D01*
Y83668D01*
X44139D01*
Y81736D01*
D02*
G37*
G36*
X41240D02*
X42207D01*
Y80769D01*
X43173D01*
Y79803D01*
X42207D01*
Y80769D01*
X41240D01*
Y81736D01*
X40274D01*
Y82702D01*
X41240D01*
Y81736D01*
D02*
G37*
G36*
X38341Y79803D02*
X37375D01*
Y81736D01*
X38341D01*
Y79803D01*
D02*
G37*
G36*
X28678D02*
X27711D01*
Y80769D01*
X28678D01*
Y79803D01*
D02*
G37*
G36*
X11284Y80769D02*
X12250D01*
Y79803D01*
X11284D01*
Y80769D01*
X10317D01*
Y81736D01*
X11284D01*
Y80769D01*
D02*
G37*
G36*
X50904Y85601D02*
X51870D01*
Y84635D01*
X52837D01*
Y83668D01*
X53803D01*
Y80769D01*
X54769D01*
Y78837D01*
X53803D01*
Y80769D01*
X52837D01*
Y83668D01*
X51870D01*
Y84635D01*
X50904D01*
Y85601D01*
X49937D01*
Y86567D01*
X50904D01*
Y85601D01*
D02*
G37*
G36*
X48971Y81736D02*
X49937D01*
Y79803D01*
X50904D01*
Y78837D01*
X49937D01*
Y79803D01*
X48971D01*
Y81736D01*
X48005D01*
Y82702D01*
X48971D01*
Y81736D01*
D02*
G37*
G36*
X40274Y78837D02*
X39308D01*
Y79803D01*
Y80769D01*
X40274D01*
Y78837D01*
D02*
G37*
G36*
X32543Y79803D02*
X33510D01*
Y78837D01*
X32543D01*
Y79803D01*
X31577D01*
Y80769D01*
X32543D01*
Y79803D01*
D02*
G37*
G36*
X19981Y84635D02*
X20947D01*
Y83668D01*
X21914D01*
Y79803D01*
X22880D01*
Y78837D01*
X21914D01*
Y79803D01*
X20947D01*
Y80769D01*
Y83668D01*
X19981D01*
Y84635D01*
X19014D01*
Y85601D01*
X19981D01*
Y84635D01*
D02*
G37*
G36*
X47038Y77870D02*
X46072D01*
Y78837D01*
X47038D01*
Y77870D01*
D02*
G37*
G36*
X42207Y78837D02*
X43173D01*
Y77870D01*
X42207D01*
Y78837D01*
X41240D01*
Y79803D01*
X42207D01*
Y78837D01*
D02*
G37*
G36*
X19014Y79803D02*
X19981D01*
Y77870D01*
X19014D01*
Y79803D01*
X18048D01*
Y81736D01*
X19014D01*
Y79803D01*
D02*
G37*
G36*
X16115D02*
X17082D01*
Y77870D01*
X16115D01*
Y79803D01*
X15149D01*
Y80769D01*
X16115D01*
Y79803D01*
D02*
G37*
G36*
X24813Y77870D02*
X25779D01*
Y76904D01*
X24813D01*
Y77870D01*
X23846D01*
Y79803D01*
X24813D01*
Y77870D01*
D02*
G37*
G36*
X9351Y67240D02*
Y66274D01*
X8385D01*
Y64341D01*
X6452D01*
Y63375D01*
X4519D01*
Y65308D01*
X5486D01*
Y66274D01*
X6452D01*
Y67240D01*
X7418D01*
Y68207D01*
X9351D01*
Y67240D01*
D02*
G37*
G36*
X78928Y58543D02*
X76995D01*
Y60476D01*
X78928D01*
Y58543D01*
D02*
G37*
G36*
X69264Y68207D02*
X68298D01*
Y66274D01*
X66365D01*
Y65308D01*
X65399D01*
Y64341D01*
X64433D01*
Y62409D01*
X62500D01*
Y60476D01*
X60567D01*
Y59510D01*
X59601D01*
Y58543D01*
X58635D01*
Y57577D01*
Y56611D01*
X56702D01*
Y57577D01*
X55736D01*
Y58543D01*
X56702D01*
Y59510D01*
X57668D01*
Y60476D01*
X58635D01*
Y61442D01*
X59601D01*
Y62409D01*
X60567D01*
Y63375D01*
X61534D01*
Y64341D01*
X62500D01*
Y65308D01*
X63466D01*
Y66274D01*
X64433D01*
Y67240D01*
X65399D01*
Y68207D01*
X66365D01*
Y69173D01*
X67332D01*
Y70139D01*
X69264D01*
Y68207D01*
D02*
G37*
G36*
X62500Y48880D02*
X60567D01*
Y49846D01*
X59601D01*
Y50813D01*
X62500D01*
Y48880D01*
D02*
G37*
G36*
X52837Y53711D02*
X53803D01*
Y52745D01*
X52837D01*
Y50813D01*
X50904D01*
Y49846D01*
X49937D01*
Y48880D01*
X48005D01*
Y50813D01*
X48971D01*
Y51779D01*
X49937D01*
Y52745D01*
X50904D01*
Y53711D01*
X51870D01*
Y54678D01*
X52837D01*
Y53711D01*
D02*
G37*
G36*
X15149D02*
X16115D01*
Y52745D01*
X15149D01*
Y51779D01*
X14183D01*
Y50813D01*
X13216D01*
Y48880D01*
X10317D01*
Y49846D01*
Y50813D01*
X11284D01*
Y51779D01*
X12250D01*
Y52745D01*
X13216D01*
Y53711D01*
X14183D01*
Y54678D01*
X15149D01*
Y53711D01*
D02*
G37*
G36*
X9351Y46947D02*
Y45981D01*
X7418D01*
Y47914D01*
X9351D01*
Y46947D01*
D02*
G37*
%LPC*%
G36*
X53803Y120389D02*
X52837D01*
Y119423D01*
X53803D01*
Y120389D01*
D02*
G37*
G36*
X59601D02*
X58635D01*
Y118457D01*
X59601D01*
Y119423D01*
Y120389D01*
D02*
G37*
G36*
X57668D02*
X56702D01*
Y118457D01*
X57668D01*
Y119423D01*
Y120389D01*
D02*
G37*
G36*
X55736D02*
X54769D01*
Y118457D01*
X55736D01*
Y120389D01*
D02*
G37*
G36*
X61534D02*
X60567D01*
Y118457D01*
X61534D01*
Y117490D01*
X62500D01*
Y118457D01*
X61534D01*
Y119423D01*
Y120389D01*
D02*
G37*
G36*
X50904Y118457D02*
X49937D01*
Y117490D01*
X50904D01*
Y118457D01*
D02*
G37*
G36*
X63466Y120389D02*
X62500D01*
Y119423D01*
X63466D01*
Y116524D01*
X64433D01*
Y119423D01*
X63466D01*
Y120389D01*
D02*
G37*
G36*
X57668Y117490D02*
X56702D01*
Y116524D01*
X57668D01*
Y117490D01*
D02*
G37*
G36*
X46072Y116524D02*
X45106D01*
Y115558D01*
X46072D01*
Y116524D01*
D02*
G37*
G36*
X48971Y118457D02*
X48005D01*
Y117490D01*
X48971D01*
Y116524D01*
X49937D01*
Y115558D01*
X50904D01*
Y114591D01*
X51870D01*
Y115558D01*
X50904D01*
Y116524D01*
X49937D01*
Y117490D01*
X48971D01*
Y118457D01*
D02*
G37*
G36*
X73130Y115558D02*
X72163D01*
Y114591D01*
X73130D01*
Y115558D01*
D02*
G37*
G36*
X66365Y119423D02*
X65399D01*
Y118457D01*
X66365D01*
Y116524D01*
X67332D01*
Y115558D01*
X68298D01*
Y114591D01*
X69264D01*
Y115558D01*
X68298D01*
Y116524D01*
X67332D01*
Y118457D01*
X66365D01*
Y119423D01*
D02*
G37*
G36*
X54769Y118457D02*
X53803D01*
Y117490D01*
X54769D01*
Y115558D01*
X55736D01*
Y114591D01*
X56702D01*
Y115558D01*
X55736D01*
Y117490D01*
X54769D01*
Y118457D01*
D02*
G37*
G36*
X58635Y115558D02*
X57668D01*
Y114591D01*
Y113625D01*
X58635D01*
Y115558D01*
D02*
G37*
G36*
X65399Y113625D02*
X64433D01*
Y112659D01*
X65399D01*
Y113625D01*
D02*
G37*
G36*
X47038Y114591D02*
X46072D01*
Y112659D01*
X47038D01*
Y114591D01*
D02*
G37*
G36*
X52837Y113625D02*
X51870D01*
Y111692D01*
X52837D01*
Y113625D01*
D02*
G37*
G36*
X75063D02*
X74096D01*
Y112659D01*
X75063D01*
Y111692D01*
X76029D01*
Y112659D01*
X75063D01*
Y113625D01*
D02*
G37*
G36*
X76995Y110726D02*
X76029D01*
Y109760D01*
X76995D01*
Y110726D01*
D02*
G37*
G36*
X67332Y112659D02*
X66365D01*
Y111692D01*
X67332D01*
Y109760D01*
X68298D01*
Y111692D01*
X67332Y112659D01*
D02*
G37*
G36*
X60567Y114591D02*
X59601D01*
Y112659D01*
X60567D01*
Y111692D01*
X61534D01*
Y110726D01*
X62500D01*
Y109760D01*
X63466D01*
Y108793D01*
X64433D01*
Y109760D01*
X63466D01*
Y110726D01*
X62500D01*
Y111692D01*
X61534D01*
Y112659D01*
X60567D01*
Y114591D01*
D02*
G37*
G36*
X53803Y110726D02*
X52837D01*
Y108793D01*
X53803D01*
Y110726D01*
D02*
G37*
G36*
X44139D02*
X43173D01*
Y109760D01*
Y108793D01*
X44139D01*
Y110726D01*
D02*
G37*
G36*
X73130Y109760D02*
X72163D01*
Y108793D01*
X73130D01*
Y109760D01*
D02*
G37*
G36*
X70231Y110726D02*
X69264D01*
Y108793D01*
X70231D01*
Y110726D01*
D02*
G37*
G36*
X40274D02*
X39308D01*
Y109760D01*
Y108793D01*
X40274D01*
Y110726D01*
D02*
G37*
G36*
X69264Y118457D02*
X68298D01*
Y117490D01*
X69264D01*
Y116524D01*
X70231D01*
Y114591D01*
X71197D01*
Y113625D01*
X72163D01*
Y111692D01*
X73130D01*
Y110726D01*
X74096D01*
Y109760D01*
Y107827D01*
X75063D01*
Y110726D01*
X74096D01*
Y111692D01*
X73130D01*
Y113625D01*
X72163D01*
Y114591D01*
X71197D01*
Y116524D01*
X70231D01*
Y117490D01*
X69264D01*
Y118457D01*
D02*
G37*
G36*
X47038Y117490D02*
X46072D01*
Y116524D01*
X47038D01*
Y114591D01*
X48005D01*
Y110726D01*
X48971D01*
Y108793D01*
X49937D01*
Y107827D01*
X50904D01*
Y108793D01*
X49937D01*
Y110726D01*
X48971D01*
Y114591D01*
X48005D01*
Y116524D01*
X47038D01*
Y117490D01*
D02*
G37*
G36*
X42207Y112659D02*
X41240D01*
Y108793D01*
X42207D01*
Y107827D01*
X43173D01*
Y106861D01*
X44139D01*
Y107827D01*
X43173D01*
Y108793D01*
X42207D01*
Y112659D01*
D02*
G37*
G36*
X78928Y107827D02*
X77961D01*
Y106861D01*
X78928D01*
Y107827D01*
D02*
G37*
G36*
X65399D02*
X63466D01*
Y106861D01*
X65399D01*
Y107827D01*
D02*
G37*
G36*
X72163Y108793D02*
X71197D01*
Y107827D01*
X72163D01*
Y106861D01*
X73130D01*
Y105894D01*
X74096D01*
Y106861D01*
X73130D01*
Y107827D01*
X72163D01*
Y108793D01*
D02*
G37*
G36*
Y106861D02*
X71197D01*
Y105894D01*
X72163D01*
Y106861D01*
D02*
G37*
G36*
X55736Y114591D02*
X54769D01*
Y113625D01*
X55736D01*
Y112659D01*
Y111692D01*
Y110726D01*
X56702D01*
Y108793D01*
X57668D01*
Y106861D01*
X58635D01*
Y105894D01*
X59601D01*
Y106861D01*
X58635D01*
Y108793D01*
X57668D01*
Y110726D01*
X56702D01*
Y113625D01*
X55736D01*
Y114591D01*
D02*
G37*
G36*
X48005Y107827D02*
X47038D01*
Y105894D01*
X48005D01*
Y107827D01*
D02*
G37*
G36*
X66365Y105894D02*
X64433D01*
Y104928D01*
X66365D01*
Y105894D01*
D02*
G37*
G36*
X77961Y109760D02*
X76995D01*
X76029Y108793D01*
Y106861D01*
X76995D01*
Y105894D01*
X77961D01*
Y104928D01*
X78928D01*
Y103962D01*
X79894D01*
Y104928D01*
X78928D01*
Y105894D01*
X77961D01*
Y106861D01*
X76995D01*
Y107827D01*
Y108793D01*
X77961D01*
Y109760D01*
D02*
G37*
G36*
Y104928D02*
X76995D01*
Y103962D01*
X77961D01*
Y104928D01*
D02*
G37*
G36*
X69264Y108793D02*
X68298D01*
Y107827D01*
X69264D01*
Y105894D01*
X70231D01*
Y104928D01*
X71197D01*
Y103962D01*
X72163D01*
Y104928D01*
X71197D01*
Y105894D01*
X70231D01*
Y107827D01*
X69264D01*
Y108793D01*
D02*
G37*
G36*
X74096Y104928D02*
X73130D01*
Y102995D01*
X74096D01*
Y104928D01*
D02*
G37*
G36*
X71197Y103962D02*
X70231D01*
Y102995D01*
X71197D01*
Y103962D01*
D02*
G37*
G36*
X60567Y104928D02*
X59601D01*
Y102995D01*
X60567D01*
Y104928D01*
D02*
G37*
G36*
X51870Y106861D02*
X50904D01*
Y103962D01*
X51870D01*
Y102995D01*
X52837D01*
Y102029D01*
X53803D01*
Y102995D01*
X52837D01*
Y103962D01*
X51870D01*
Y106861D01*
D02*
G37*
G36*
X75063Y102029D02*
X74096D01*
Y101063D01*
X75063D01*
Y102029D01*
D02*
G37*
G36*
X62500Y114591D02*
X61534D01*
Y113625D01*
X62500D01*
Y112659D01*
X63466D01*
Y111692D01*
X64433D01*
Y110726D01*
X65399D01*
Y108793D01*
X66365D01*
Y106861D01*
X67332D01*
Y104928D01*
X68298D01*
Y102995D01*
X69264D01*
Y102029D01*
X70231D01*
Y101063D01*
X71197D01*
Y102029D01*
X70231D01*
Y102995D01*
X69264D01*
Y104928D01*
X68298D01*
Y106861D01*
X67332D01*
Y108793D01*
X66365D01*
Y110726D01*
X65399D01*
Y111692D01*
X64433D01*
Y112659D01*
X63466D01*
Y113625D01*
X62500D01*
Y114591D01*
D02*
G37*
G36*
X60567Y111692D02*
X59601D01*
Y110726D01*
X60567D01*
Y109760D01*
X61534D01*
Y106861D01*
X62500D01*
Y104928D01*
X63466D01*
Y102995D01*
Y102029D01*
Y101063D01*
X64433D01*
Y104928D01*
X63466D01*
Y106861D01*
X62500D01*
Y109760D01*
X61534D01*
Y110726D01*
X60567D01*
Y111692D01*
D02*
G37*
G36*
X79894Y102995D02*
X78928D01*
Y101063D01*
X79894D01*
Y100096D01*
X80861D01*
Y101063D01*
X79894D01*
Y102995D01*
D02*
G37*
G36*
X77961D02*
X76995D01*
Y101063D01*
X77961Y100096D01*
X78928D01*
Y101063D01*
X77961D01*
Y102995D01*
D02*
G37*
G36*
X49937Y115558D02*
X48971D01*
Y114591D01*
X49937D01*
Y113625D01*
Y112659D01*
Y111692D01*
X50904D01*
Y108793D01*
X51870D01*
Y106861D01*
X52837D01*
Y104928D01*
X53803D01*
Y102995D01*
X54769D01*
Y101063D01*
X55736D01*
Y100096D01*
Y99130D01*
X56702D01*
Y101063D01*
X55736D01*
Y102995D01*
X54769D01*
Y103962D01*
Y104928D01*
X53803D01*
Y106861D01*
X52837D01*
Y108793D01*
X51870D01*
Y111692D01*
X50904D01*
Y114591D01*
X49937D01*
Y115558D01*
D02*
G37*
G36*
X43173Y114591D02*
X42207D01*
Y112659D01*
X43173D01*
Y111692D01*
X44139D01*
Y110726D01*
X45106D01*
Y105894D01*
X46072D01*
Y104928D01*
X47038D01*
Y103962D01*
X48005D01*
Y102995D01*
X48971D01*
Y101063D01*
X49937D01*
Y99130D01*
X50904D01*
Y101063D01*
X49937D01*
Y102995D01*
X48971D01*
Y103962D01*
X48005D01*
Y104928D01*
X47038D01*
Y105894D01*
X46072D01*
Y110726D01*
X45106D01*
Y111692D01*
X44139D01*
Y112659D01*
X43173D01*
Y114591D01*
D02*
G37*
G36*
X70231Y101063D02*
X69264D01*
Y99130D01*
D01*
D01*
X70231D01*
Y101063D01*
D02*
G37*
G36*
X79894Y99130D02*
X78928D01*
Y98163D01*
X79894D01*
Y99130D01*
D02*
G37*
G36*
X74096D02*
X73130D01*
Y98163D01*
X74096D01*
Y99130D01*
D02*
G37*
G36*
X45106Y115558D02*
X44139D01*
Y112659D01*
X45106D01*
Y111692D01*
X46072D01*
Y110726D01*
X47038D01*
Y108793D01*
X48005D01*
Y107827D01*
X48971D01*
Y103962D01*
X49937D01*
Y102995D01*
X50904D01*
Y102029D01*
X51870D01*
Y99130D01*
X52837D01*
Y98163D01*
X53803D01*
Y99130D01*
X52837D01*
Y102029D01*
X51870D01*
Y102995D01*
X50904D01*
Y103962D01*
X49937D01*
Y107827D01*
X48971D01*
Y108793D01*
X48005D01*
Y110726D01*
X47038D01*
Y111692D01*
X46072D01*
Y112659D01*
X45106D01*
Y115558D01*
D02*
G37*
G36*
X54769Y107827D02*
X53803D01*
Y106861D01*
X54769D01*
Y105894D01*
Y104928D01*
X55736D01*
Y102995D01*
X56702D01*
Y102029D01*
X57668D01*
Y98163D01*
X58635D01*
Y97197D01*
X59601D01*
Y98163D01*
X58635D01*
Y99130D01*
Y100096D01*
Y102029D01*
X57668D01*
Y102995D01*
X56702D01*
Y104928D01*
X55736D01*
Y106861D01*
X54769D01*
Y107827D01*
D02*
G37*
G36*
Y101063D02*
X53803D01*
Y99130D01*
X54769D01*
Y97197D01*
X55736D01*
Y99130D01*
X54769D01*
Y101063D01*
D02*
G37*
G36*
X73130Y102995D02*
X72163D01*
Y101063D01*
X73130D01*
Y100096D01*
X74096D01*
Y99130D01*
X75063D01*
Y97197D01*
X76029D01*
Y99130D01*
X75063D01*
Y100096D01*
X74096D01*
Y101063D01*
X73130D01*
Y102995D01*
D02*
G37*
G36*
X62500Y100096D02*
X61534D01*
Y98163D01*
X62500D01*
Y97197D01*
X63466D01*
Y96231D01*
X64433D01*
Y97197D01*
X63466D01*
Y98163D01*
X62500D01*
Y100096D01*
D02*
G37*
G36*
X84726Y98163D02*
X83760D01*
Y97197D01*
X84726D01*
Y96231D01*
X85692D01*
Y97197D01*
X84726D01*
Y98163D01*
D02*
G37*
G36*
X77961Y97197D02*
X76995D01*
Y96231D01*
X77961D01*
Y97197D01*
D02*
G37*
G36*
X72163Y100096D02*
X71197D01*
Y97197D01*
X72163D01*
Y96231D01*
D01*
D01*
X73130D01*
Y97197D01*
X72163D01*
Y100096D01*
D02*
G37*
G36*
X76995D02*
X76029D01*
Y99130D01*
X76995D01*
Y98163D01*
X77961D01*
Y97197D01*
X78928D01*
Y96231D01*
X79894D01*
Y95264D01*
X80861D01*
Y96231D01*
X79894D01*
Y97197D01*
X78928D01*
Y98163D01*
X77961D01*
Y99130D01*
X76995D01*
Y100096D01*
D02*
G37*
G36*
X75063Y97197D02*
X74096D01*
Y95264D01*
X75063D01*
Y97197D01*
D02*
G37*
G36*
X68298Y102029D02*
X67332D01*
Y99130D01*
X68298D01*
Y97197D01*
X69264D01*
Y95264D01*
X70231D01*
Y97197D01*
X69264D01*
Y99130D01*
D01*
D01*
X68298D01*
Y102029D01*
D02*
G37*
G36*
X76995Y96231D02*
X76029D01*
Y94298D01*
X76995D01*
Y96231D01*
D02*
G37*
G36*
X87625Y97197D02*
X86659D01*
Y95264D01*
X87625D01*
Y93332D01*
X88591D01*
Y95264D01*
X87625D01*
Y97197D01*
D02*
G37*
G36*
X57668Y98163D02*
X56702D01*
Y97197D01*
X57668D01*
Y96231D01*
X58635D01*
Y95264D01*
X59601D01*
Y93332D01*
X60567D01*
Y95264D01*
X59601D01*
Y96231D01*
X58635D01*
Y97197D01*
X57668D01*
Y98163D01*
D02*
G37*
G36*
X78928Y95264D02*
X77961D01*
Y93332D01*
X78928D01*
Y92365D01*
X79894D01*
Y93332D01*
X78928D01*
Y95264D01*
D02*
G37*
G36*
X63466Y96231D02*
X62500D01*
Y95264D01*
X63466D01*
Y92365D01*
X64433D01*
Y95264D01*
X63466D01*
Y96231D01*
D02*
G37*
G36*
X76029Y94298D02*
X75063D01*
Y93332D01*
X76029D01*
Y91399D01*
X76995D01*
Y93332D01*
X76029D01*
Y94298D01*
D02*
G37*
G36*
X78928Y92365D02*
X77961D01*
Y91399D01*
X78928D01*
Y89466D01*
X79894D01*
Y91399D01*
X78928D01*
Y92365D01*
D02*
G37*
G36*
X81827Y99130D02*
X80861D01*
Y97197D01*
X81827D01*
Y94298D01*
X82793D01*
Y93332D01*
X83760D01*
Y92365D01*
X84726D01*
Y91399D01*
X85692D01*
Y90433D01*
X86659D01*
Y89466D01*
X87625D01*
Y90433D01*
X86659D01*
Y91399D01*
X85692D01*
Y92365D01*
X84726D01*
Y93332D01*
X83760D01*
Y94298D01*
X82793D01*
Y97197D01*
X81827D01*
Y99130D01*
D02*
G37*
G36*
X84726Y96231D02*
X83760D01*
Y95264D01*
X84726D01*
Y94298D01*
X85692D01*
Y93332D01*
X86659D01*
Y92365D01*
X87625D01*
Y91399D01*
X88591D01*
Y89466D01*
X89558D01*
Y88500D01*
X90524D01*
Y89466D01*
X89558D01*
Y91399D01*
X88591D01*
Y92365D01*
X87625D01*
Y93332D01*
X86659D01*
Y94298D01*
X85692D01*
Y95264D01*
X84726D01*
Y96231D01*
D02*
G37*
G36*
X81827Y91399D02*
X80861D01*
Y89466D01*
X81827D01*
Y88500D01*
X82793D01*
Y89466D01*
X81827D01*
Y90433D01*
Y91399D01*
D02*
G37*
G36*
X68298Y94298D02*
X67332D01*
Y91399D01*
X68298D01*
Y90433D01*
Y89466D01*
X69264D01*
Y88500D01*
X70231D01*
Y89466D01*
X69264D01*
Y92365D01*
X68298D01*
Y94298D01*
D02*
G37*
G36*
X90524D02*
X89558D01*
Y92365D01*
X90524D01*
Y90433D01*
X91490D01*
Y89466D01*
Y87534D01*
X92457D01*
Y90433D01*
X91490D01*
Y92365D01*
X90524D01*
Y94298D01*
D02*
G37*
G36*
X89558Y88500D02*
X88591D01*
Y87534D01*
X89558D01*
Y88500D01*
D02*
G37*
G36*
X81827D02*
X80861D01*
Y87534D01*
X81827D01*
Y88500D01*
D02*
G37*
G36*
X83760Y87534D02*
X82793D01*
Y86567D01*
X83760D01*
Y87534D01*
D02*
G37*
G36*
X75063Y90433D02*
X74096D01*
Y89466D01*
X75063D01*
Y87534D01*
X76029D01*
Y86567D01*
X76995D01*
Y87534D01*
X76029D01*
Y89466D01*
X75063D01*
Y90433D01*
D02*
G37*
G36*
X93423Y86567D02*
X92457D01*
Y85601D01*
X93423D01*
Y86567D01*
D02*
G37*
G36*
X86659Y89466D02*
X85692D01*
Y88500D01*
X86659D01*
Y87534D01*
X87625D01*
Y86567D01*
X88591D01*
Y85601D01*
X89558D01*
Y86567D01*
X88591D01*
Y87534D01*
X87625D01*
Y88500D01*
X86659D01*
Y89466D01*
D02*
G37*
G36*
X85692Y85601D02*
X84726D01*
Y84635D01*
X85692D01*
Y85601D01*
D02*
G37*
G36*
X58635Y112659D02*
X57668D01*
Y110726D01*
X58635D01*
Y109760D01*
Y108793D01*
X59601D01*
Y106861D01*
X60567D01*
Y104928D01*
X61534D01*
Y101063D01*
X62500D01*
Y100096D01*
X63466D01*
Y99130D01*
Y98163D01*
X64433D01*
Y97197D01*
X65399D01*
Y90433D01*
X66365D01*
Y87534D01*
X67332D01*
Y85601D01*
X68298D01*
Y84635D01*
X69264D01*
Y85601D01*
X68298D01*
Y87534D01*
X67332D01*
Y90433D01*
X66365D01*
Y97197D01*
X65399D01*
Y98163D01*
X64433D01*
Y100096D01*
X63466D01*
Y101063D01*
X62500D01*
Y104928D01*
X61534D01*
Y106861D01*
X60567D01*
Y108793D01*
X59601D01*
Y110726D01*
X58635D01*
Y112659D01*
D02*
G37*
G36*
X91490Y87534D02*
X90524D01*
Y84635D01*
X91490D01*
Y83668D01*
X92457D01*
Y84635D01*
X91490D01*
Y87534D01*
D02*
G37*
G36*
X62500Y83668D02*
X61534D01*
Y82702D01*
X62500D01*
Y83668D01*
D02*
G37*
G36*
X80861Y94298D02*
X79894D01*
Y93332D01*
X80861D01*
Y92365D01*
X81827D01*
Y91399D01*
X82793D01*
Y90433D01*
X83760D01*
Y87534D01*
X84726D01*
Y86567D01*
X85692D01*
Y85601D01*
X86659D01*
Y83668D01*
X87625D01*
Y82702D01*
X88591D01*
Y83668D01*
X87625D01*
Y85601D01*
X86659D01*
Y86567D01*
X85692D01*
Y87534D01*
X84726D01*
Y90433D01*
X83760D01*
Y91399D01*
X82793D01*
Y92365D01*
X81827D01*
Y93332D01*
X80861D01*
Y94298D01*
D02*
G37*
G36*
X74096Y86567D02*
X73130D01*
Y85601D01*
X74096D01*
Y84635D01*
X75063D01*
Y82702D01*
X76029D01*
Y84635D01*
X75063D01*
Y85601D01*
X74096D01*
Y86567D01*
D02*
G37*
G36*
X92457Y82702D02*
X91490D01*
Y81736D01*
X92457D01*
Y82702D01*
D02*
G37*
G36*
X89558Y84635D02*
X88591D01*
Y83668D01*
X89558D01*
Y81736D01*
X90524D01*
Y83668D01*
X89558D01*
Y84635D01*
D02*
G37*
G36*
X82793Y86567D02*
X81827D01*
Y85601D01*
X82793D01*
Y84635D01*
X83760D01*
Y83668D01*
X84726D01*
Y82702D01*
X85692D01*
Y81736D01*
X86659D01*
Y80769D01*
X87625D01*
Y81736D01*
X86659D01*
Y82702D01*
X85692D01*
Y83668D01*
X84726D01*
Y84635D01*
X83760D01*
Y85601D01*
X82793D01*
Y86567D01*
D02*
G37*
G36*
X81827Y82702D02*
X80861D01*
Y81736D01*
X81827D01*
Y80769D01*
X82793D01*
Y81736D01*
X81827D01*
Y82702D01*
D02*
G37*
G36*
X91490Y80769D02*
X90524D01*
Y79803D01*
X91490D01*
Y80769D01*
D02*
G37*
G36*
X70231Y83668D02*
X69264D01*
Y81736D01*
X70231D01*
Y79803D01*
X71197D01*
Y81736D01*
X70231D01*
Y83668D01*
D02*
G37*
G36*
X72163Y96231D02*
X71197D01*
Y95264D01*
X72163D01*
Y94298D01*
X73130D01*
Y92365D01*
X74096D01*
Y91399D01*
X75063D01*
Y90433D01*
X76029D01*
Y89466D01*
X77961D01*
Y88500D01*
X78928D01*
Y87534D01*
X79894D01*
Y85601D01*
X80861D01*
Y83668D01*
X81827D01*
Y82702D01*
X82793D01*
Y81736D01*
X83760D01*
Y79803D01*
X84726D01*
Y78837D01*
X85692D01*
Y79803D01*
X84726D01*
Y81736D01*
X83760D01*
Y82702D01*
X82793D01*
Y83668D01*
X81827D01*
Y85601D01*
X80861D01*
Y87534D01*
X79894D01*
Y88500D01*
X78928D01*
Y89466D01*
X77961D01*
Y90433D01*
X76029D01*
Y91399D01*
X75063D01*
Y92365D01*
X74096D01*
Y94298D01*
X73130D01*
Y95264D01*
X72163D01*
Y96231D01*
D01*
D01*
D02*
G37*
G36*
X69264Y88500D02*
X68298D01*
Y87534D01*
X69264D01*
Y86567D01*
Y85601D01*
X70231D01*
Y83668D01*
X71197D01*
Y82702D01*
X72163D01*
Y78837D01*
X73130D01*
Y82702D01*
X72163D01*
Y83668D01*
X71197D01*
Y85601D01*
X70231D01*
Y87534D01*
X69264D01*
Y88500D01*
D02*
G37*
G36*
X89558Y81736D02*
X88591D01*
Y79803D01*
X89558D01*
Y78837D01*
X90524D01*
Y79803D01*
X89558D01*
Y81736D01*
D02*
G37*
G36*
X86659Y80769D02*
X85692D01*
Y79803D01*
X86659D01*
Y78837D01*
X87625D01*
Y77870D01*
X88591D01*
Y78837D01*
X87625D01*
Y79803D01*
X86659D01*
Y80769D01*
D02*
G37*
G36*
Y77870D02*
X85692D01*
Y75937D01*
X86659D01*
Y77870D01*
D02*
G37*
G36*
X77961Y88500D02*
X76995D01*
Y87534D01*
X77961D01*
Y84635D01*
X78928D01*
Y83668D01*
Y82702D01*
Y81736D01*
X79894D01*
Y80769D01*
X80861D01*
Y79803D01*
X81827D01*
Y78837D01*
X82793D01*
Y77870D01*
X83760D01*
Y75937D01*
X84726D01*
Y77870D01*
X83760D01*
Y78837D01*
X82793D01*
Y79803D01*
X81827D01*
Y80769D01*
X80861D01*
Y81736D01*
X79894D01*
Y84635D01*
X78928D01*
Y87534D01*
X77961D01*
Y88500D01*
D02*
G37*
G36*
X67332Y103962D02*
X65399D01*
Y98163D01*
X66365D01*
Y97197D01*
X67332D01*
Y95264D01*
X68298D01*
Y94298D01*
X69264D01*
Y93332D01*
X71197D01*
Y92365D01*
X72163D01*
Y89466D01*
X73130D01*
Y87534D01*
X74096D01*
Y86567D01*
X75063D01*
Y85601D01*
X76029D01*
Y84635D01*
X76995D01*
Y81736D01*
X77961D01*
Y80769D01*
X78928D01*
Y79803D01*
X79894D01*
Y78837D01*
X80861D01*
Y76904D01*
X81827D01*
Y75937D01*
X82793D01*
Y76904D01*
X81827D01*
Y78837D01*
X80861D01*
Y79803D01*
X79894D01*
Y80769D01*
X78928D01*
Y81736D01*
X77961D01*
Y84635D01*
X76995D01*
Y85601D01*
X76029D01*
Y86567D01*
X75063D01*
Y87534D01*
X74096D01*
Y89466D01*
X73130D01*
Y92365D01*
X72163D01*
Y93332D01*
X71197D01*
Y94298D01*
X69264D01*
Y95264D01*
X68298D01*
Y97197D01*
X67332D01*
Y98163D01*
X66365D01*
Y102995D01*
X67332D01*
Y103962D01*
D02*
G37*
G36*
X78928Y79803D02*
X77961D01*
Y77870D01*
X78928D01*
Y76904D01*
X79894D01*
Y75937D01*
X80861D01*
Y76904D01*
X79894D01*
Y77870D01*
X78928D01*
Y79803D01*
D02*
G37*
G36*
X76995Y81736D02*
X76029D01*
Y77870D01*
X76995D01*
Y76904D01*
X77961D01*
Y75937D01*
X78928D01*
Y76904D01*
X77961D01*
Y77870D01*
X76995D01*
Y81736D01*
D02*
G37*
G36*
Y76904D02*
X76029D01*
Y75937D01*
X76995D01*
Y76904D01*
D02*
G37*
G36*
X72163Y78837D02*
X71197D01*
Y77870D01*
X72163D01*
Y75937D01*
X73130D01*
Y77870D01*
X72163D01*
Y78837D01*
D02*
G37*
G36*
X68298Y84635D02*
X67332D01*
Y81736D01*
X68298D01*
Y80769D01*
Y79803D01*
X69264D01*
Y78837D01*
Y77870D01*
X70231D01*
Y75937D01*
X71197D01*
Y77870D01*
X70231D01*
Y78837D01*
Y79803D01*
X69264D01*
Y81736D01*
X68298D01*
Y84635D01*
D02*
G37*
G36*
X62500Y81736D02*
X61534D01*
Y80769D01*
X62500D01*
Y78837D01*
X63466D01*
Y76904D01*
X64433D01*
Y75937D01*
X65399D01*
Y76904D01*
X64433D01*
Y78837D01*
X63466D01*
Y80769D01*
X62500D01*
Y81736D01*
D02*
G37*
G36*
X60567Y77870D02*
X59601D01*
Y76904D01*
Y75937D01*
X60567D01*
Y77870D01*
D02*
G37*
G36*
X61534Y79803D02*
X60567D01*
Y78837D01*
X61534D01*
Y75937D01*
X62500D01*
Y74971D01*
X63466D01*
Y75937D01*
X62500D01*
Y78837D01*
X61534D01*
Y79803D01*
D02*
G37*
G36*
X58635Y75937D02*
X57668D01*
Y74971D01*
X58635D01*
Y75937D01*
D02*
G37*
G36*
X71197Y92365D02*
X70231D01*
Y89466D01*
X71197D01*
Y85601D01*
X72163D01*
Y83668D01*
X73130D01*
Y82702D01*
X74096D01*
Y75937D01*
X75063D01*
Y74971D01*
X76029D01*
Y75937D01*
X75063D01*
Y77870D01*
Y78837D01*
Y82702D01*
X74096D01*
Y83668D01*
X73130D01*
Y85601D01*
X72163D01*
Y87534D01*
Y88500D01*
Y89466D01*
X71197D01*
Y91399D01*
Y92365D01*
D02*
G37*
G36*
X42207Y73039D02*
X39308D01*
Y72072D01*
X38341D01*
Y73039D01*
X32543D01*
Y72072D01*
X31577D01*
Y71106D01*
X30611D01*
Y70139D01*
X28678D01*
Y68207D01*
X26745D01*
Y67240D01*
X27711D01*
Y66274D01*
X24813D01*
Y64341D01*
X22880D01*
Y63375D01*
X23846D01*
Y62409D01*
X20947D01*
Y60476D01*
X23846D01*
Y61442D01*
X24813D01*
Y60476D01*
X26745D01*
Y59510D01*
X27711D01*
Y60476D01*
X29644D01*
Y59510D01*
X30611D01*
Y60476D01*
X31577D01*
Y59510D01*
X32543D01*
Y58543D01*
X31577D01*
Y57577D01*
X30611D01*
Y56611D01*
X29644D01*
Y55644D01*
X28678D01*
Y54678D01*
X27711D01*
Y53711D01*
X26745D01*
Y52745D01*
X25779D01*
Y51779D01*
X24813D01*
Y50813D01*
X23846D01*
Y49846D01*
X22880D01*
Y48880D01*
X21914D01*
Y47914D01*
X20947D01*
Y46947D01*
X19981D01*
Y45981D01*
X19014D01*
Y45014D01*
X21914D01*
Y46947D01*
X23846D01*
Y47914D01*
X25779D01*
Y48880D01*
X26745D01*
Y50813D01*
X27711D01*
Y49846D01*
X28678D01*
Y50813D01*
X29644D01*
Y52745D01*
X30611D01*
Y51779D01*
X31577D01*
Y52745D01*
X32543D01*
Y53711D01*
X34476D01*
Y54678D01*
X33510D01*
Y55644D01*
X34476D01*
Y54678D01*
X35442D01*
Y55644D01*
X36409D01*
Y56611D01*
X39308D01*
Y58543D01*
X41240D01*
Y59510D01*
X42207D01*
Y60476D01*
X45106D01*
Y62409D01*
X47038D01*
Y63375D01*
X35442D01*
Y65308D01*
X36409D01*
Y68207D01*
X37375D01*
Y67240D01*
X38341D01*
Y69173D01*
X39308D01*
Y70139D01*
X41240D01*
Y71106D01*
X40274D01*
Y72072D01*
X42207D01*
Y73039D01*
D02*
G37*
G36*
X19014Y45014D02*
X18048D01*
Y44048D01*
X17082D01*
Y43082D01*
X19014D01*
Y45014D01*
D02*
G37*
%LPD*%
G36*
X34476Y71106D02*
X33510D01*
Y72072D01*
X34476D01*
Y71106D01*
D02*
G37*
G36*
X37375D02*
X38341D01*
Y70139D01*
X37375D01*
Y71106D01*
X36409D01*
Y72072D01*
X37375D01*
Y71106D01*
D02*
G37*
G36*
X36409Y69173D02*
X35442D01*
Y70139D01*
X36409D01*
Y69173D01*
D02*
G37*
G36*
X33510D02*
X32543D01*
Y70139D01*
X33510D01*
Y69173D01*
D02*
G37*
G36*
X30611Y68207D02*
X29644D01*
Y69173D01*
X30611D01*
Y68207D01*
D02*
G37*
G36*
X35442Y67240D02*
X34476D01*
Y68207D01*
X35442D01*
Y67240D01*
D02*
G37*
G36*
X33510D02*
X32543D01*
Y68207D01*
X33510D01*
Y67240D01*
D02*
G37*
G36*
X30611Y66274D02*
X29644D01*
Y67240D01*
X30611D01*
Y66274D01*
D02*
G37*
G36*
X35442Y65308D02*
X34476D01*
Y66274D01*
X35442D01*
Y65308D01*
D02*
G37*
G36*
X32543D02*
Y64341D01*
X31577D01*
Y66274D01*
X32543D01*
Y65308D01*
D02*
G37*
G36*
X34476Y63375D02*
X33510D01*
Y64341D01*
X34476D01*
Y63375D01*
D02*
G37*
G36*
X26745D02*
X25779D01*
Y64341D01*
X26745D01*
Y63375D01*
D02*
G37*
G36*
X31577Y62409D02*
X30611D01*
Y63375D01*
X31577D01*
Y62409D01*
D02*
G37*
G36*
X28678Y63375D02*
X29644D01*
Y62409D01*
X28678D01*
Y63375D01*
X27711D01*
Y64341D01*
X28678D01*
Y63375D01*
D02*
G37*
G36*
X44139Y61442D02*
X43173D01*
Y62409D01*
X44139D01*
Y61442D01*
D02*
G37*
G36*
X42207D02*
X41240D01*
Y62409D01*
X42207D01*
Y61442D01*
D02*
G37*
G36*
X40274D02*
X39308D01*
Y62409D01*
X40274D01*
Y61442D01*
D02*
G37*
G36*
X38341D02*
X37375D01*
Y62409D01*
X38341D01*
Y61442D01*
D02*
G37*
G36*
X35442D02*
X34476D01*
Y62409D01*
X35442D01*
Y61442D01*
D02*
G37*
G36*
X33510D02*
X32543D01*
Y62409D01*
X33510D01*
Y61442D01*
D02*
G37*
G36*
X30611Y60476D02*
X29644D01*
Y61442D01*
X30611D01*
Y60476D01*
D02*
G37*
G36*
X27711D02*
X26745D01*
Y61442D01*
X27711D01*
Y60476D01*
D02*
G37*
G36*
X41240Y59510D02*
X40274D01*
Y60476D01*
X41240D01*
Y59510D01*
D02*
G37*
G36*
X39308D02*
X38341D01*
Y60476D01*
X39308D01*
Y59510D01*
D02*
G37*
G36*
X35442D02*
X36409D01*
Y58543D01*
X35442D01*
Y59510D01*
X34476D01*
Y60476D01*
X35442D01*
Y59510D01*
D02*
G37*
G36*
X38341Y57577D02*
X37375D01*
Y58543D01*
X38341D01*
Y57577D01*
D02*
G37*
G36*
X35442Y56611D02*
X34476D01*
Y57577D01*
X35442D01*
Y56611D01*
D02*
G37*
G36*
X32543Y55644D02*
X31577D01*
Y56611D01*
X32543D01*
Y55644D01*
D02*
G37*
G36*
X31577Y53711D02*
X30611D01*
Y54678D01*
X31577D01*
Y53711D01*
D02*
G37*
G36*
X28678Y51779D02*
X27711D01*
Y52745D01*
X28678D01*
Y51779D01*
D02*
G37*
G36*
X24813Y48880D02*
X23846D01*
Y49846D01*
X24813D01*
Y48880D01*
D02*
G37*
D10*
X812402Y42323D02*
X811614D01*
X812402D01*
X751303Y121272D02*
X750516D01*
X751303D01*
X720421Y120020D02*
X719634D01*
X720421D01*
X786236Y38760D02*
X785449D01*
X786236D01*
X440335Y31835D02*
X439547D01*
X440335D01*
X439394Y20279D02*
X438606D01*
X439394D01*
D11*
X427492Y50382D02*
X426754Y50808D01*
Y49956D01*
X427492Y50382D01*
D12*
X564685Y52244D02*
X572795D01*
X580433D02*
X588543D01*
X596181D02*
X604291D01*
X630356Y49075D02*
Y52244D01*
X620710D02*
X630356D01*
X620710D02*
Y58150D01*
X613366D02*
X620710D01*
X613366Y52244D02*
Y58150D01*
X611929Y52244D02*
X613366D01*
X533189D02*
X541299D01*
X524115D02*
X525551D01*
X524115D02*
Y58150D01*
X516771D02*
X524115D01*
X516771Y52244D02*
Y58150D01*
X507125Y52244D02*
X516771D01*
X507125Y49075D02*
Y52244D01*
X511063Y33979D02*
Y37076D01*
X523740Y29252D02*
X527618D01*
X609862D02*
X613740D01*
X626417Y33976D02*
Y37076D01*
X548937Y52244D02*
X557047D01*
X608405Y22827D02*
X611406Y15827D01*
X605406D02*
X608405Y22827D01*
X605406Y15827D02*
X611406D01*
D13*
X803347Y24803D02*
Y29055D01*
X800197Y24803D02*
X803347D01*
X800197Y19291D02*
Y24803D01*
Y19291D02*
X853347D01*
Y24803D01*
X850197D02*
X853347D01*
X850197D02*
Y29055D01*
X698941Y56941D02*
Y58358D01*
X754059Y56941D02*
Y58358D01*
X698941Y110642D02*
Y112059D01*
X754059Y110642D02*
Y112059D01*
X698941Y56941D02*
X700358D01*
X752642D02*
X754059D01*
X698941Y112059D02*
X700358D01*
X752642D02*
X754059D01*
X717469Y135531D02*
X722587D01*
X717469Y121988D02*
X722587D01*
X772850Y36358D02*
X779150D01*
X772850Y48642D02*
X779150D01*
X447106Y37642D02*
Y42563D01*
X437894Y37642D02*
Y42563D01*
X440575Y25118D02*
Y27087D01*
X437425Y25118D02*
Y27087D01*
D14*
X-17000Y158193D02*
Y152195D01*
X-15001Y154194D01*
X-13001Y152195D01*
Y158193D01*
X-10002Y152195D02*
X-8003D01*
X-7003Y153194D01*
Y155194D01*
X-8003Y156193D01*
X-10002D01*
X-11002Y155194D01*
Y153194D01*
X-10002Y152195D01*
X-5004Y156193D02*
Y152195D01*
Y154194D01*
X-4004Y155194D01*
X-3005Y156193D01*
X-2005D01*
X4993Y158193D02*
Y152195D01*
X1994D01*
X994Y153194D01*
Y155194D01*
X1994Y156193D01*
X4993D01*
X10991Y157193D02*
X9991Y158193D01*
X7992D01*
X6992Y157193D01*
Y156193D01*
X7992Y155194D01*
X9991D01*
X10991Y154194D01*
Y153194D01*
X9991Y152195D01*
X7992D01*
X6992Y153194D01*
X13990Y157193D02*
Y156193D01*
X12990D01*
X14990D01*
X13990D01*
Y153194D01*
X14990Y152195D01*
X18988D02*
X20988D01*
X21987Y153194D01*
Y155194D01*
X20988Y156193D01*
X18988D01*
X17989Y155194D01*
Y153194D01*
X18988Y152195D01*
X23987Y156193D02*
Y152195D01*
Y154194D01*
X24986Y155194D01*
X25986Y156193D01*
X26986D01*
X29985Y152195D02*
Y156193D01*
X30985D01*
X31984Y155194D01*
Y152195D01*
Y155194D01*
X32984Y156193D01*
X33983Y155194D01*
Y152195D01*
X41981Y158193D02*
Y152195D01*
X44980D01*
X45980Y153194D01*
Y157193D01*
X44980Y158193D01*
X41981D01*
X47979Y152195D02*
X49978D01*
X48979D01*
Y156193D01*
X47979D01*
X52977Y152195D02*
X55976D01*
X56976Y153194D01*
X55976Y154194D01*
X53977D01*
X52977Y155194D01*
X53977Y156193D01*
X56976D01*
X58975Y150195D02*
Y156193D01*
X61975D01*
X62974Y155194D01*
Y153194D01*
X61975Y152195D01*
X58975D01*
X64973D02*
X66973D01*
X65973D01*
Y158193D01*
X64973D01*
X70972Y156193D02*
X72971D01*
X73971Y155194D01*
Y152195D01*
X70972D01*
X69972Y153194D01*
X70972Y154194D01*
X73971D01*
X75970Y156193D02*
Y153194D01*
X76970Y152195D01*
X79969D01*
Y151195D01*
X78969Y150195D01*
X77969D01*
X79969Y152195D02*
Y156193D01*
X87966Y158193D02*
Y152195D01*
X90965D01*
X91965Y153194D01*
Y154194D01*
X90965Y155194D01*
X87966D01*
X90965D01*
X91965Y156193D01*
Y157193D01*
X90965Y158193D01*
X87966D01*
X94964Y152195D02*
X96963D01*
X97963Y153194D01*
Y155194D01*
X96963Y156193D01*
X94964D01*
X93964Y155194D01*
Y153194D01*
X94964Y152195D01*
X100962Y156193D02*
X102961D01*
X103961Y155194D01*
Y152195D01*
X100962D01*
X99962Y153194D01*
X100962Y154194D01*
X103961D01*
X105960Y156193D02*
Y152195D01*
Y154194D01*
X106960Y155194D01*
X107960Y156193D01*
X108959D01*
X115957Y158193D02*
Y152195D01*
X112958D01*
X111958Y153194D01*
Y155194D01*
X112958Y156193D01*
X115957D01*
X-13001Y146596D02*
X-17000D01*
Y140598D01*
X-13001D01*
X-17000Y143597D02*
X-15001D01*
X-11002Y140598D02*
X-9003D01*
X-10002D01*
Y146596D01*
X-11002Y145596D01*
X-6004D02*
X-5004Y146596D01*
X-3005D01*
X-2005Y145596D01*
Y141597D01*
X-3005Y140598D01*
X-5004D01*
X-6004Y141597D01*
Y145596D01*
X2994Y140598D02*
Y146596D01*
X-6Y143597D01*
X3993D01*
X5993Y140598D02*
Y146596D01*
X8992D01*
X9991Y145596D01*
Y143597D01*
X8992Y142597D01*
X5993D01*
X7992D02*
X9991Y140598D01*
X11991Y146596D02*
Y140598D01*
X14990D01*
X15989Y141597D01*
Y142597D01*
X14990Y143597D01*
X11991D01*
X14990D01*
X15989Y144596D01*
Y145596D01*
X14990Y146596D01*
X11991D01*
X17989Y143597D02*
X21987D01*
X27985Y146596D02*
X23987D01*
Y143597D01*
X25986D01*
X23987D01*
Y140598D01*
X29985Y146596D02*
Y140598D01*
X31984Y142597D01*
X33983Y140598D01*
Y146596D01*
X38982Y140598D02*
Y146596D01*
X35983Y143597D01*
X39982D01*
X45980Y146596D02*
X41981D01*
Y143597D01*
X43980Y144596D01*
X44980D01*
X45980Y143597D01*
Y141597D01*
X44980Y140598D01*
X42981D01*
X41981Y141597D01*
X47979Y145596D02*
X48979Y146596D01*
X50978D01*
X51978Y145596D01*
Y141597D01*
X50978Y140598D01*
X48979D01*
X47979Y141597D01*
Y145596D01*
X53977Y143597D02*
X57976D01*
X59975Y140598D02*
Y146596D01*
X63974Y140598D01*
Y146596D01*
X71971Y140598D02*
X75970Y144596D01*
X87966Y145596D02*
X86966Y146596D01*
X84967D01*
X83967Y145596D01*
Y144596D01*
X84967Y143597D01*
X86966D01*
X87966Y142597D01*
Y141597D01*
X86966Y140598D01*
X84967D01*
X83967Y141597D01*
X93964Y145596D02*
X92964Y146596D01*
X90965D01*
X89965Y145596D01*
Y144596D01*
X90965Y143597D01*
X92964D01*
X93964Y142597D01*
Y141597D01*
X92964Y140598D01*
X90965D01*
X89965Y141597D01*
X95964Y146596D02*
Y140598D01*
X98962D01*
X99962Y141597D01*
Y145596D01*
X98962Y146596D01*
X95964D01*
X101962Y140598D02*
X103961D01*
X102961D01*
Y146596D01*
X101962Y145596D01*
X106960Y141597D02*
X107960Y140598D01*
X109959D01*
X110959Y141597D01*
Y145596D01*
X109959Y146596D01*
X107960D01*
X106960Y145596D01*
Y144596D01*
X107960Y143597D01*
X110959D01*
X116957Y146596D02*
X114957Y145596D01*
X112958Y143597D01*
Y141597D01*
X113958Y140598D01*
X115957D01*
X116957Y141597D01*
Y142597D01*
X115957Y143597D01*
X112958D01*
X118956Y145596D02*
X119956Y146596D01*
X121955D01*
X122955Y145596D01*
Y144596D01*
X121955Y143597D01*
X120955D01*
X121955D01*
X122955Y142597D01*
Y141597D01*
X121955Y140598D01*
X119956D01*
X118956Y141597D01*
X-17000Y131000D02*
Y136998D01*
X-14001D01*
X-13001Y135998D01*
Y133999D01*
X-14001Y132999D01*
X-17000D01*
X-15001D02*
X-13001Y131000D01*
X-8003D02*
X-10002D01*
X-11002Y132000D01*
Y133999D01*
X-10002Y134999D01*
X-8003D01*
X-7003Y133999D01*
Y132999D01*
X-11002D01*
X-5004Y134999D02*
X-3005Y131000D01*
X-1005Y134999D01*
X6992Y131000D02*
X8992D01*
X7992D01*
Y136998D01*
X6992Y135998D01*
X11991Y131000D02*
Y132000D01*
X12990D01*
Y131000D01*
X11991D01*
X16989Y135998D02*
X17989Y136998D01*
X19988D01*
X20988Y135998D01*
Y132000D01*
X19988Y131000D01*
X17989D01*
X16989Y132000D01*
Y135998D01*
X-36000Y51000D02*
X-41998D01*
X-39999Y52999D01*
X-41998Y54999D01*
X-36000D01*
X-41998Y60997D02*
Y58997D01*
Y59997D01*
X-37000D01*
X-36000Y58997D01*
Y57998D01*
X-37000Y56998D01*
X-36000Y62996D02*
X-41998D01*
X-39999Y64995D01*
X-41998Y66995D01*
X-36000D01*
X-38999Y74992D02*
Y78991D01*
X-36000Y86988D02*
Y88988D01*
Y87988D01*
X-41998D01*
X-40998Y86988D01*
X-36000Y91987D02*
Y93986D01*
Y92986D01*
X-41998D01*
X-40998Y91987D01*
X-36000Y96985D02*
X-39999Y100984D01*
X-36000Y106982D02*
Y102983D01*
X-39999Y106982D01*
X-40998D01*
X-41998Y105982D01*
Y103983D01*
X-40998Y102983D01*
X-36000Y111980D02*
X-41998D01*
X-38999Y108981D01*
Y112980D01*
D15*
X671751Y74000D02*
X671251Y74499D01*
X670251D01*
X669751Y74000D01*
Y72000D01*
X670251Y71500D01*
X671251D01*
X671751Y72000D01*
X672750Y71500D02*
X673750D01*
X673250D01*
Y74499D01*
X672750Y74000D01*
X676749Y71500D02*
Y74499D01*
X675249Y73000D01*
X677249D01*
X672251Y84000D02*
X671751Y84500D01*
X670751D01*
X670251Y84000D01*
Y82000D01*
X670751Y81501D01*
X671751D01*
X672251Y82000D01*
X673250Y81501D02*
X674250D01*
X673750D01*
Y84500D01*
X673250Y84000D01*
X675749D02*
X676249Y84500D01*
X677249D01*
X677749Y84000D01*
Y83500D01*
X677249Y83000D01*
X676749D01*
X677249D01*
X677749Y82500D01*
Y82000D01*
X677249Y81501D01*
X676249D01*
X675749Y82000D01*
X672278Y94260D02*
X671778Y94759D01*
X670779D01*
X670279Y94260D01*
Y92260D01*
X670779Y91760D01*
X671778D01*
X672278Y92260D01*
X673278Y91760D02*
X674277D01*
X673778D01*
Y94759D01*
X673278Y94260D01*
X677776Y91760D02*
X675777D01*
X677776Y93760D01*
Y94260D01*
X677277Y94759D01*
X676277D01*
X675777Y94260D01*
X672778Y109259D02*
X672278Y109759D01*
X671278D01*
X670779Y109259D01*
Y107260D01*
X671278Y106760D01*
X672278D01*
X672778Y107260D01*
X673778Y106760D02*
X674777D01*
X674277D01*
Y109759D01*
X673778Y109259D01*
X676277Y106760D02*
X677277D01*
X676777D01*
Y109759D01*
X676277Y109259D01*
X704528Y135010D02*
X704028Y134511D01*
Y133511D01*
X704528Y133011D01*
X706527D01*
X707027Y133511D01*
Y134511D01*
X706527Y135010D01*
X707027Y136010D02*
Y137010D01*
Y136510D01*
X704028D01*
X704528Y136010D01*
Y138509D02*
X704028Y139009D01*
Y140009D01*
X704528Y140509D01*
X706527D01*
X707027Y140009D01*
Y139009D01*
X706527Y138509D01*
X704528D01*
X733500Y135500D02*
X733001Y135000D01*
Y134001D01*
X733500Y133501D01*
X735500D01*
X735999Y134001D01*
Y135000D01*
X735500Y135500D01*
Y136500D02*
X735999Y137000D01*
Y137999D01*
X735500Y138499D01*
X733500D01*
X733001Y137999D01*
Y137000D01*
X733500Y136500D01*
X734000D01*
X734500Y137000D01*
Y138499D01*
X746028Y135260D02*
X745528Y134760D01*
Y133760D01*
X746028Y133261D01*
X748027D01*
X748527Y133760D01*
Y134760D01*
X748027Y135260D01*
X746028Y136260D02*
X745528Y136759D01*
Y137759D01*
X746028Y138259D01*
X746528D01*
X747027Y137759D01*
X747527Y138259D01*
X748027D01*
X748527Y137759D01*
Y136759D01*
X748027Y136260D01*
X747527D01*
X747027Y136759D01*
X746528Y136260D01*
X746028D01*
X747027Y136759D02*
Y137759D01*
X699127Y135459D02*
X698627Y134960D01*
Y133960D01*
X699127Y133460D01*
X701126D01*
X701626Y133960D01*
Y134960D01*
X701126Y135459D01*
X698627Y136459D02*
Y138459D01*
X699127D01*
X701126Y136459D01*
X701626D01*
X673000Y100500D02*
X672500Y100999D01*
X671501D01*
X671001Y100500D01*
Y98500D01*
X671501Y98001D01*
X672500D01*
X673000Y98500D01*
X675999Y100999D02*
X675000Y100500D01*
X674000Y99500D01*
Y98500D01*
X674500Y98001D01*
X675499D01*
X675999Y98500D01*
Y99000D01*
X675499Y99500D01*
X674000D01*
X673028Y88759D02*
X672528Y89259D01*
X671528D01*
X671028Y88759D01*
Y86760D01*
X671528Y86260D01*
X672528D01*
X673028Y86760D01*
X676027Y89259D02*
X674027D01*
Y87760D01*
X675027Y88260D01*
X675527D01*
X676027Y87760D01*
Y86760D01*
X675527Y86260D01*
X674527D01*
X674027Y86760D01*
X674500Y69500D02*
X674000Y69999D01*
X673001D01*
X672501Y69500D01*
Y67500D01*
X673001Y67001D01*
X674000D01*
X674500Y67500D01*
X676999Y67001D02*
Y69999D01*
X675500Y68500D01*
X677499D01*
X674528Y61260D02*
X674028Y61759D01*
X673028D01*
X672528Y61260D01*
Y59260D01*
X673028Y58760D01*
X674028D01*
X674528Y59260D01*
X675527Y61260D02*
X676027Y61759D01*
X677027D01*
X677527Y61260D01*
Y60760D01*
X677027Y60260D01*
X676527D01*
X677027D01*
X677527Y59760D01*
Y59260D01*
X677027Y58760D01*
X676027D01*
X675527Y59260D01*
X754000Y135000D02*
X753501Y134500D01*
Y133501D01*
X754000Y133001D01*
X756000D01*
X756499Y133501D01*
Y134500D01*
X756000Y135000D01*
X756499Y137999D02*
Y136000D01*
X754500Y137999D01*
X754000D01*
X753501Y137499D01*
Y136500D01*
X754000Y136000D01*
X727000Y135500D02*
X726501Y135000D01*
Y134001D01*
X727000Y133501D01*
X729000D01*
X729499Y134001D01*
Y135000D01*
X729000Y135500D01*
X729499Y136500D02*
Y137499D01*
Y136999D01*
X726501D01*
X727000Y136500D01*
X507000Y62499D02*
X506000D01*
X506500D01*
Y60000D01*
X506000Y59500D01*
X505501D01*
X505001Y60000D01*
X508000Y59500D02*
X508999D01*
X508499D01*
Y62499D01*
X508000Y62000D01*
X718528Y137260D02*
X721527Y139260D01*
X718528D02*
X721527Y137260D01*
Y140260D02*
Y141259D01*
Y140759D01*
X718528D01*
X719028Y140260D01*
X448501Y30999D02*
Y28500D01*
X449001Y28001D01*
X450000D01*
X450500Y28500D01*
Y30999D01*
X451500Y30500D02*
X452000Y30999D01*
X452999D01*
X453499Y30500D01*
Y30000D01*
X452999Y29500D01*
X452499D01*
X452999D01*
X453499Y29000D01*
Y28500D01*
X452999Y28001D01*
X452000D01*
X451500Y28500D01*
X768001Y53500D02*
Y51000D01*
X768501Y50501D01*
X769500D01*
X770000Y51000D01*
Y53500D01*
X772999Y50501D02*
X771000D01*
X772999Y52500D01*
Y53000D01*
X772499Y53500D01*
X771500D01*
X771000Y53000D01*
X693501Y117499D02*
Y115000D01*
X694000Y114500D01*
X695000D01*
X695500Y115000D01*
Y117499D01*
X696500Y114500D02*
X697499D01*
X697000D01*
Y117499D01*
X696500Y117000D01*
X458000Y32001D02*
X455000D01*
Y33500D01*
X455500Y34000D01*
X456500D01*
X457000Y33500D01*
Y32001D01*
Y33000D02*
X458000Y34000D01*
X455000Y36999D02*
X455500Y36000D01*
X456500Y35000D01*
X457500D01*
X458000Y35500D01*
Y36499D01*
X457500Y36999D01*
X457000D01*
X456500Y36499D01*
Y35000D01*
X458000Y44001D02*
X455000D01*
Y45500D01*
X455500Y46000D01*
X456500D01*
X457000Y45500D01*
Y44001D01*
Y45000D02*
X458000Y46000D01*
X455000Y48999D02*
Y47000D01*
X456500D01*
X456000Y48000D01*
Y48499D01*
X456500Y48999D01*
X457500D01*
X458000Y48499D01*
Y47500D01*
X457500Y47000D01*
X816500Y61001D02*
X813500D01*
Y62500D01*
X814000Y63000D01*
X815000D01*
X815500Y62500D01*
Y61001D01*
Y62001D02*
X816500Y63000D01*
Y65499D02*
X813500D01*
X815000Y64000D01*
Y65999D01*
X660501Y76500D02*
Y79500D01*
X662000D01*
X662500Y79000D01*
Y78000D01*
X662000Y77500D01*
X660501D01*
X661501D02*
X662500Y76500D01*
X663500Y79000D02*
X664000Y79500D01*
X664999D01*
X665499Y79000D01*
Y78500D01*
X664999Y78000D01*
X664500D01*
X664999D01*
X665499Y77500D01*
Y77000D01*
X664999Y76500D01*
X664000D01*
X663500Y77000D01*
X713027Y136761D02*
X710028D01*
Y138260D01*
X710528Y138760D01*
X711527D01*
X712027Y138260D01*
Y136761D01*
Y137760D02*
X713027Y138760D01*
Y141759D02*
Y139760D01*
X711028Y141759D01*
X710528D01*
X710028Y141259D01*
Y140260D01*
X710528Y139760D01*
X775528Y112760D02*
Y115759D01*
X777028D01*
X777528Y115260D01*
Y114260D01*
X777028Y113760D01*
X775528D01*
X776528D02*
X777528Y112760D01*
X778527D02*
X779527D01*
X779027D01*
Y115759D01*
X778527Y115260D01*
X418001Y52102D02*
Y49103D01*
X420000D01*
X421000D02*
X421999D01*
X421499D01*
Y52102D01*
X421000Y51602D01*
X801500Y44499D02*
X800500D01*
X801000D01*
Y42000D01*
X800500Y41500D01*
X800001D01*
X799501Y42000D01*
X804499Y41500D02*
X802500D01*
X804499Y43500D01*
Y44000D01*
X803999Y44499D01*
X803000D01*
X802500Y44000D01*
X432001Y23602D02*
Y20603D01*
X433500D01*
X434000Y21103D01*
Y23102D01*
X433500Y23602D01*
X432001D01*
X435000Y20603D02*
X435999D01*
X435499D01*
Y23602D01*
X435000Y23102D01*
X448500Y20001D02*
X448000Y19501D01*
Y18501D01*
X448500Y18001D01*
X450500D01*
X450999Y18501D01*
Y19501D01*
X450500Y20001D01*
X448500Y21000D02*
X448000Y21500D01*
Y22500D01*
X448500Y23000D01*
X449000D01*
X449500Y22500D01*
Y22000D01*
Y22500D01*
X450000Y23000D01*
X450500D01*
X450999Y22500D01*
Y21500D01*
X450500Y21000D01*
X450999Y25499D02*
X448000D01*
X449500Y23999D01*
Y25999D01*
X438501Y57500D02*
X438001Y57999D01*
X437001D01*
X436501Y57500D01*
Y55500D01*
X437001Y55001D01*
X438001D01*
X438501Y55500D01*
X439500Y57500D02*
X440000Y57999D01*
X441000D01*
X441500Y57500D01*
Y57000D01*
X441000Y56500D01*
X440500D01*
X441000D01*
X441500Y56000D01*
Y55500D01*
X441000Y55001D01*
X440000D01*
X439500Y55500D01*
X442499Y57500D02*
X442999Y57999D01*
X443999D01*
X444499Y57500D01*
Y57000D01*
X443999Y56500D01*
X443499D01*
X443999D01*
X444499Y56000D01*
Y55500D01*
X443999Y55001D01*
X442999D01*
X442499Y55500D01*
X751000Y29001D02*
X750500Y28501D01*
Y27501D01*
X751000Y27001D01*
X753000D01*
X753500Y27501D01*
Y28501D01*
X753000Y29001D01*
X751000Y30000D02*
X750500Y30500D01*
Y31500D01*
X751000Y32000D01*
X751500D01*
X752000Y31500D01*
Y31000D01*
Y31500D01*
X752500Y32000D01*
X753000D01*
X753500Y31500D01*
Y30500D01*
X753000Y30000D01*
X753500Y34999D02*
Y32999D01*
X751500Y34999D01*
X751000D01*
X750500Y34499D01*
Y33499D01*
X751000Y32999D01*
X778028Y102760D02*
X777528Y103259D01*
X776529D01*
X776029Y102760D01*
Y100760D01*
X776529Y100260D01*
X777528D01*
X778028Y100760D01*
X779028Y102760D02*
X779528Y103259D01*
X780527D01*
X781027Y102760D01*
Y102260D01*
X780527Y101760D01*
X780027D01*
X780527D01*
X781027Y101260D01*
Y100760D01*
X780527Y100260D01*
X779528D01*
X779028Y100760D01*
X782027Y100260D02*
X783026D01*
X782527D01*
Y103259D01*
X782027Y102760D01*
X777528Y90259D02*
X777028Y90759D01*
X776029D01*
X775529Y90259D01*
Y88260D01*
X776029Y87760D01*
X777028D01*
X777528Y88260D01*
X778528Y90259D02*
X779028Y90759D01*
X780027D01*
X780527Y90259D01*
Y89760D01*
X780027Y89260D01*
X779528D01*
X780027D01*
X780527Y88760D01*
Y88260D01*
X780027Y87760D01*
X779028D01*
X778528Y88260D01*
X781527Y90259D02*
X782027Y90759D01*
X783026D01*
X783526Y90259D01*
Y88260D01*
X783026Y87760D01*
X782027D01*
X781527Y88260D01*
Y90259D01*
X778001Y77500D02*
X777501Y78000D01*
X776501D01*
X776001Y77500D01*
Y75500D01*
X776501Y75001D01*
X777501D01*
X778001Y75500D01*
X781000Y75001D02*
X779000D01*
X781000Y77000D01*
Y77500D01*
X780500Y78000D01*
X779500D01*
X779000Y77500D01*
X781999Y75500D02*
X782499Y75001D01*
X783499D01*
X783999Y75500D01*
Y77500D01*
X783499Y78000D01*
X782499D01*
X781999Y77500D01*
Y77000D01*
X782499Y76500D01*
X783999D01*
X778501Y62500D02*
X778001Y62999D01*
X777001D01*
X776501Y62500D01*
Y60500D01*
X777001Y60000D01*
X778001D01*
X778501Y60500D01*
X781500Y60000D02*
X779500D01*
X781500Y62000D01*
Y62500D01*
X781000Y62999D01*
X780000D01*
X779500Y62500D01*
X782499D02*
X782999Y62999D01*
X783999D01*
X784499Y62500D01*
Y62000D01*
X783999Y61500D01*
X784499Y61000D01*
Y60500D01*
X783999Y60000D01*
X782999D01*
X782499Y60500D01*
Y61000D01*
X782999Y61500D01*
X782499Y62000D01*
Y62500D01*
X782999Y61500D02*
X783999D01*
X702028Y29261D02*
X701528Y28761D01*
Y27761D01*
X702028Y27261D01*
X704027D01*
X704527Y27761D01*
Y28761D01*
X704027Y29261D01*
X704527Y32260D02*
Y30260D01*
X702528Y32260D01*
X702028D01*
X701528Y31760D01*
Y30760D01*
X702028Y30260D01*
X701528Y33259D02*
Y35259D01*
X702028D01*
X704027Y33259D01*
X704527D01*
X720028Y28749D02*
X719528Y28249D01*
Y27249D01*
X720028Y26749D01*
X722027D01*
X722527Y27249D01*
Y28249D01*
X722027Y28749D01*
X722527Y31748D02*
Y29748D01*
X720528Y31748D01*
X720028D01*
X719528Y31248D01*
Y30248D01*
X720028Y29748D01*
X719528Y34747D02*
X720028Y33747D01*
X721028Y32747D01*
X722027D01*
X722527Y33247D01*
Y34247D01*
X722027Y34747D01*
X721527D01*
X721028Y34247D01*
Y32747D01*
X733500Y28501D02*
X733001Y28001D01*
Y27001D01*
X733500Y26501D01*
X735500D01*
X735999Y27001D01*
Y28001D01*
X735500Y28501D01*
X735999Y31500D02*
Y29500D01*
X734000Y31500D01*
X733500D01*
X733001Y31000D01*
Y30000D01*
X733500Y29500D01*
X733001Y34499D02*
Y32499D01*
X734500D01*
X734000Y33499D01*
Y33999D01*
X734500Y34499D01*
X735500D01*
X735999Y33999D01*
Y32999D01*
X735500Y32499D01*
X739500Y135001D02*
X739001Y134501D01*
Y133501D01*
X739500Y133001D01*
X741500D01*
X741999Y133501D01*
Y134501D01*
X741500Y135001D01*
X741999Y138000D02*
Y136000D01*
X740000Y138000D01*
X739500D01*
X739001Y137500D01*
Y136500D01*
X739500Y136000D01*
X741999Y140499D02*
X739001D01*
X740500Y138999D01*
Y140999D01*
X778001Y108500D02*
X777501Y109000D01*
X776501D01*
X776001Y108500D01*
Y106500D01*
X776501Y106000D01*
X777501D01*
X778001Y106500D01*
X781000Y106000D02*
X779000D01*
X781000Y108000D01*
Y108500D01*
X780500Y109000D01*
X779500D01*
X779000Y108500D01*
X781999D02*
X782499Y109000D01*
X783499D01*
X783999Y108500D01*
Y108000D01*
X783499Y107500D01*
X782999D01*
X783499D01*
X783999Y107000D01*
Y106500D01*
X783499Y106000D01*
X782499D01*
X781999Y106500D01*
X778001Y96500D02*
X777501Y97000D01*
X776501D01*
X776001Y96500D01*
Y94500D01*
X776501Y94001D01*
X777501D01*
X778001Y94500D01*
X781000Y94001D02*
X779000D01*
X781000Y96000D01*
Y96500D01*
X780500Y97000D01*
X779500D01*
X779000Y96500D01*
X783999Y94001D02*
X781999D01*
X783999Y96000D01*
Y96500D01*
X783499Y97000D01*
X782499D01*
X781999Y96500D01*
X778000Y83500D02*
X777501Y84000D01*
X776501D01*
X776001Y83500D01*
Y81500D01*
X776501Y81001D01*
X777501D01*
X778000Y81500D01*
X781000Y81001D02*
X779000D01*
X781000Y83000D01*
Y83500D01*
X780500Y84000D01*
X779500D01*
X779000Y83500D01*
X781999Y81001D02*
X782999D01*
X782499D01*
Y84000D01*
X781999Y83500D01*
X778501Y69000D02*
X778001Y69499D01*
X777001D01*
X776501Y69000D01*
Y67000D01*
X777001Y66501D01*
X778001D01*
X778501Y67000D01*
X781500Y66501D02*
X779500D01*
X781500Y68500D01*
Y69000D01*
X781000Y69499D01*
X780000D01*
X779500Y69000D01*
X782499D02*
X782999Y69499D01*
X783999D01*
X784499Y69000D01*
Y67000D01*
X783999Y66501D01*
X782999D01*
X782499Y67000D01*
Y69000D01*
X745500Y29251D02*
X745001Y28751D01*
Y27751D01*
X745500Y27251D01*
X747500D01*
X747999Y27751D01*
Y28751D01*
X747500Y29251D01*
X747999Y30250D02*
Y31250D01*
Y30750D01*
X745001D01*
X745500Y30250D01*
X747500Y32749D02*
X747999Y33249D01*
Y34249D01*
X747500Y34749D01*
X745500D01*
X745001Y34249D01*
Y33249D01*
X745500Y32749D01*
X746000D01*
X746500Y33249D01*
Y34749D01*
X728000Y29251D02*
X727500Y28751D01*
Y27751D01*
X728000Y27251D01*
X730000D01*
X730500Y27751D01*
Y28751D01*
X730000Y29251D01*
X730500Y30250D02*
Y31250D01*
Y30750D01*
X727500D01*
X728000Y30250D01*
Y32749D02*
X727500Y33249D01*
Y34249D01*
X728000Y34749D01*
X728500D01*
X729000Y34249D01*
X729500Y34749D01*
X730000D01*
X730500Y34249D01*
Y33249D01*
X730000Y32749D01*
X729500D01*
X729000Y33249D01*
X728500Y32749D01*
X728000D01*
X729000Y33249D02*
Y34249D01*
X714000Y28751D02*
X713500Y28251D01*
Y27251D01*
X714000Y26751D01*
X716000D01*
X716500Y27251D01*
Y28251D01*
X716000Y28751D01*
X716500Y29750D02*
Y30750D01*
Y30250D01*
X713500D01*
X714000Y29750D01*
X713500Y32249D02*
Y34249D01*
X714000D01*
X716000Y32249D01*
X716500D01*
X770500Y15751D02*
X770001Y15251D01*
Y14251D01*
X770500Y13751D01*
X772500D01*
X772999Y14251D01*
Y15251D01*
X772500Y15751D01*
X772999Y16750D02*
Y17750D01*
Y17250D01*
X770001D01*
X770500Y16750D01*
X770001Y21249D02*
X770500Y20249D01*
X771500Y19249D01*
X772500D01*
X772999Y19749D01*
Y20749D01*
X772500Y21249D01*
X772000D01*
X771500Y20749D01*
Y19249D01*
X779500Y15751D02*
X779001Y15251D01*
Y14251D01*
X779500Y13751D01*
X781500D01*
X781999Y14251D01*
Y15251D01*
X781500Y15751D01*
X781999Y16750D02*
Y17750D01*
Y17250D01*
X779001D01*
X779500Y16750D01*
X779001Y21249D02*
Y19249D01*
X780500D01*
X780000Y20249D01*
Y20749D01*
X780500Y21249D01*
X781500D01*
X781999Y20749D01*
Y19749D01*
X781500Y19249D01*
M02*
