G04*
G04 #@! TF.GenerationSoftware,Altium Limited,Altium Designer,24.5.2 (23)*
G04*
G04 Layer_Physical_Order=3*
G04 Layer_Color=16440176*
%FSLAX25Y25*%
%MOIN*%
G70*
G04*
G04 #@! TF.SameCoordinates,49CCBB8D-B978-4CD5-B46F-E993BDE2C4A5*
G04*
G04*
G04 #@! TF.FilePolarity,Positive*
G04*
G01*
G75*
%ADD12C,0.00600*%
%ADD53C,0.27559*%
%ADD54C,0.01811*%
G36*
X1196048Y803D02*
X-58252D01*
Y162583D01*
X500730D01*
X516934Y142496D01*
X516967Y142468D01*
X516991Y142432D01*
X517087Y142369D01*
X517175Y142295D01*
X517216Y142282D01*
X517252Y142258D01*
X517364Y142236D01*
X517474Y142202D01*
X517517Y142206D01*
X517559Y142197D01*
X619921D01*
X619975Y142208D01*
X620030Y142205D01*
X620128Y142238D01*
X620228Y142258D01*
X620274Y142289D01*
X620327Y142307D01*
X620403Y142375D01*
X620489Y142432D01*
X620520Y142478D01*
X620561Y142515D01*
X635784Y162583D01*
X1196048D01*
Y803D01*
D02*
G37*
%LPC*%
G36*
X759313Y124575D02*
X758687D01*
X758108Y124335D01*
X757665Y123892D01*
X757425Y123313D01*
Y122687D01*
X757665Y122108D01*
X758108Y121665D01*
X758687Y121425D01*
X759313D01*
X759892Y121665D01*
X760335Y122108D01*
X760575Y122687D01*
Y123313D01*
X760335Y123892D01*
X759892Y124335D01*
X759313Y124575D01*
D02*
G37*
G36*
X696542Y124346D02*
X695915D01*
X695336Y124107D01*
X694893Y123664D01*
X694654Y123085D01*
Y122458D01*
X694893Y121880D01*
X695336Y121437D01*
X695915Y121197D01*
X696542D01*
X697120Y121437D01*
X697563Y121880D01*
X697803Y122458D01*
Y123085D01*
X697563Y123664D01*
X697120Y124107D01*
X696542Y124346D01*
D02*
G37*
G36*
X710313Y123575D02*
X709687D01*
X709108Y123335D01*
X708665Y122892D01*
X708425Y122313D01*
Y121687D01*
X708665Y121108D01*
X709108Y120665D01*
X709687Y120425D01*
X710313D01*
X710892Y120665D01*
X711335Y121108D01*
X711575Y121687D01*
Y122313D01*
X711335Y122892D01*
X710892Y123335D01*
X710313Y123575D01*
D02*
G37*
G36*
X724813Y123075D02*
X724187D01*
X723608Y122835D01*
X723165Y122392D01*
X722925Y121813D01*
Y121187D01*
X723165Y120608D01*
X723608Y120165D01*
X724187Y119925D01*
X724813D01*
X725392Y120165D01*
X725835Y120608D01*
X726075Y121187D01*
Y121813D01*
X725835Y122392D01*
X725392Y122835D01*
X724813Y123075D01*
D02*
G37*
G36*
X738313Y122075D02*
X737687D01*
X737108Y121835D01*
X736665Y121392D01*
X736425Y120813D01*
Y120187D01*
X736665Y119608D01*
X737108Y119165D01*
X737687Y118925D01*
X738313D01*
X738892Y119165D01*
X739335Y119608D01*
X739575Y120187D01*
Y120813D01*
X739335Y121392D01*
X738892Y121835D01*
X738313Y122075D01*
D02*
G37*
G36*
X720313D02*
X719687D01*
X719108Y121835D01*
X718665Y121392D01*
X718425Y120813D01*
Y120187D01*
X718665Y119608D01*
X719108Y119165D01*
X719687Y118925D01*
X720313D01*
X720892Y119165D01*
X721335Y119608D01*
X721575Y120187D01*
Y120813D01*
X721335Y121392D01*
X720892Y121835D01*
X720313Y122075D01*
D02*
G37*
G36*
X757813Y118075D02*
X757187D01*
X756608Y117835D01*
X756165Y117392D01*
X755925Y116813D01*
Y116187D01*
X756165Y115608D01*
X756608Y115165D01*
X757187Y114925D01*
X757813D01*
X758392Y115165D01*
X758835Y115608D01*
X759075Y116187D01*
Y116813D01*
X758835Y117392D01*
X758392Y117835D01*
X757813Y118075D01*
D02*
G37*
G36*
X694813Y116575D02*
X694187D01*
X693608Y116335D01*
X693165Y115892D01*
X692925Y115313D01*
Y114687D01*
X693165Y114108D01*
X693608Y113665D01*
X694187Y113425D01*
X694813D01*
X695392Y113665D01*
X695835Y114108D01*
X696075Y114687D01*
Y115313D01*
X695835Y115892D01*
X695392Y116335D01*
X694813Y116575D01*
D02*
G37*
G36*
X767813Y111835D02*
X767187D01*
X766608Y111595D01*
X766165Y111152D01*
X765925Y110573D01*
Y109947D01*
X766165Y109368D01*
X766608Y108925D01*
X767187Y108685D01*
X767813D01*
X768392Y108925D01*
X768835Y109368D01*
X769075Y109947D01*
Y110573D01*
X768835Y111152D01*
X768392Y111595D01*
X767813Y111835D01*
D02*
G37*
G36*
X746406Y111167D02*
X745779D01*
X745200Y110928D01*
X744758Y110485D01*
X744518Y109906D01*
Y109279D01*
X744758Y108701D01*
X745200Y108257D01*
X745779Y108018D01*
X746406D01*
X746985Y108257D01*
X747428Y108701D01*
X747667Y109279D01*
Y109906D01*
X747428Y110485D01*
X746985Y110928D01*
X746406Y111167D01*
D02*
G37*
G36*
X727813Y111075D02*
X727187D01*
X726608Y110835D01*
X726165Y110392D01*
X725925Y109813D01*
Y109187D01*
X726165Y108608D01*
X726608Y108165D01*
X727187Y107925D01*
X727813D01*
X728392Y108165D01*
X728835Y108608D01*
X729075Y109187D01*
Y109813D01*
X728835Y110392D01*
X728392Y110835D01*
X727813Y111075D01*
D02*
G37*
G36*
X712313Y108575D02*
X711687D01*
X711108Y108335D01*
X710665Y107892D01*
X710425Y107313D01*
Y106687D01*
X710665Y106108D01*
X711108Y105665D01*
X711687Y105425D01*
X712313D01*
X712892Y105665D01*
X713335Y106108D01*
X713575Y106687D01*
Y107313D01*
X713335Y107892D01*
X712892Y108335D01*
X712313Y108575D01*
D02*
G37*
G36*
X698651Y112714D02*
X628500D01*
X628227Y112659D01*
X627995Y112505D01*
X579495Y64005D01*
X579341Y63773D01*
X579286Y63500D01*
Y31296D01*
X573492Y25501D01*
X573313Y25575D01*
X572687D01*
X572108Y25335D01*
X571665Y24892D01*
X571425Y24313D01*
Y23687D01*
X571665Y23108D01*
X572108Y22665D01*
X572687Y22425D01*
X573313D01*
X573892Y22665D01*
X574335Y23108D01*
X574575Y23687D01*
Y24313D01*
X574501Y24492D01*
X577515Y27505D01*
X577841Y27273D01*
X577786Y27000D01*
Y23409D01*
X577608Y23335D01*
X577165Y22892D01*
X576925Y22313D01*
Y21687D01*
X577165Y21108D01*
X577608Y20665D01*
X578187Y20425D01*
X578813D01*
X579392Y20665D01*
X579835Y21108D01*
X580075Y21687D01*
Y22313D01*
X579962Y22585D01*
X580065Y22741D01*
X580254Y22925D01*
X580746D01*
X580935Y22741D01*
X581038Y22585D01*
X580925Y22313D01*
Y21687D01*
X581165Y21108D01*
X581608Y20665D01*
X582187Y20425D01*
X582813D01*
X583392Y20665D01*
X583835Y21108D01*
X584075Y21687D01*
Y22313D01*
X583962Y22585D01*
X584065Y22741D01*
X584254Y22925D01*
X584813D01*
X585392Y23165D01*
X585835Y23608D01*
X586075Y24187D01*
Y24813D01*
X586001Y24992D01*
X587005Y25995D01*
X587159Y26227D01*
X587214Y26500D01*
Y61527D01*
X587386Y61657D01*
X587786Y61458D01*
Y25909D01*
X587608Y25835D01*
X587165Y25392D01*
X586925Y24813D01*
Y24187D01*
X587165Y23608D01*
X587608Y23165D01*
X588187Y22925D01*
X588813D01*
X589392Y23165D01*
X589835Y23608D01*
X590075Y24187D01*
Y24813D01*
X589835Y25392D01*
X589392Y25835D01*
X589214Y25909D01*
Y61704D01*
X591386Y63877D01*
X591786Y63711D01*
Y25909D01*
X591608Y25835D01*
X591165Y25392D01*
X590925Y24813D01*
Y24187D01*
X591165Y23608D01*
X591608Y23165D01*
X592187Y22925D01*
X592813D01*
X593392Y23165D01*
X593835Y23608D01*
X594075Y24187D01*
Y24813D01*
X593835Y25392D01*
X593392Y25835D01*
X593214Y25909D01*
Y63704D01*
X595386Y65877D01*
X595786Y65711D01*
Y25909D01*
X595608Y25835D01*
X595165Y25392D01*
X594925Y24813D01*
Y24187D01*
X595165Y23608D01*
X595608Y23165D01*
X596187Y22925D01*
X596813D01*
X597392Y23165D01*
X597835Y23608D01*
X598075Y24187D01*
Y24813D01*
X597835Y25392D01*
X597392Y25835D01*
X597214Y25909D01*
Y65704D01*
X627796Y96286D01*
X683255D01*
X684995Y94546D01*
X685227Y94391D01*
X685500Y94337D01*
X702950D01*
X703116Y93934D01*
X703186Y93864D01*
X703021Y93464D01*
X647045D01*
X645755Y94754D01*
X645524Y94909D01*
X645250Y94963D01*
X631764D01*
X631392Y95335D01*
X630813Y95575D01*
X630187D01*
X629608Y95335D01*
X629165Y94892D01*
X628925Y94313D01*
Y93687D01*
X629165Y93108D01*
X629608Y92665D01*
X630187Y92425D01*
X630813D01*
X631392Y92665D01*
X631835Y93108D01*
X632012Y93536D01*
X641343D01*
X641519Y93136D01*
X641317Y92648D01*
Y92022D01*
X641557Y91443D01*
X642000Y91000D01*
X642579Y90760D01*
X643205D01*
X643784Y91000D01*
X644227Y91443D01*
X644467Y92022D01*
Y92648D01*
X644265Y93136D01*
X644441Y93536D01*
X644955D01*
X646245Y92246D01*
X646477Y92091D01*
X646750Y92037D01*
X711454D01*
X726286Y77204D01*
Y75409D01*
X726108Y75335D01*
X725665Y74892D01*
X725425Y74313D01*
Y73687D01*
X725665Y73108D01*
X726108Y72665D01*
X726687Y72425D01*
X727313D01*
X727892Y72665D01*
X728335Y73108D01*
X728575Y73687D01*
Y74313D01*
X728335Y74892D01*
X727892Y75335D01*
X727714Y75409D01*
Y76994D01*
X728108Y77165D01*
X728687Y76925D01*
X729313D01*
X729892Y77165D01*
X730335Y77608D01*
X730575Y78187D01*
Y78813D01*
X730335Y79392D01*
X729892Y79835D01*
X729313Y80075D01*
X728687D01*
X728108Y79835D01*
X727665Y79392D01*
X727425Y78813D01*
Y78650D01*
X727025Y78484D01*
X712470Y93040D01*
X712696Y93379D01*
X713187Y93176D01*
X713813D01*
X714392Y93415D01*
X714835Y93858D01*
X715075Y94437D01*
Y95064D01*
X714835Y95642D01*
X714392Y96086D01*
X713813Y96325D01*
X713187D01*
X712784Y96158D01*
X710314Y98629D01*
X710082Y98784D01*
X709809Y98838D01*
X708044D01*
X707892Y99208D01*
X709132Y100448D01*
X709187Y100425D01*
X709813D01*
X710392Y100665D01*
X710835Y101108D01*
X711075Y101687D01*
Y102313D01*
X710835Y102892D01*
X710392Y103335D01*
X709813Y103575D01*
X709254D01*
X709065Y103759D01*
X708962Y103915D01*
X709075Y104187D01*
Y104813D01*
X708835Y105392D01*
X708392Y105835D01*
X707813Y106075D01*
X707187D01*
X706608Y105835D01*
X706165Y105392D01*
X705925Y104813D01*
Y104187D01*
X706038Y103915D01*
X705935Y103759D01*
X705746Y103575D01*
X705254D01*
X705065Y103759D01*
X704962Y103915D01*
X705075Y104187D01*
Y104813D01*
X704835Y105392D01*
X704392Y105835D01*
X703813Y106075D01*
X703187D01*
X703008Y106001D01*
X702378Y106631D01*
X702520Y107055D01*
X702968Y107241D01*
X703411Y107684D01*
X703651Y108262D01*
Y108889D01*
X703411Y109468D01*
X702968Y109911D01*
X702389Y110151D01*
X701762D01*
X701584Y110077D01*
X699156Y112505D01*
X698924Y112659D01*
X698651Y112714D01*
D02*
G37*
G36*
X714813Y100575D02*
X714187D01*
X713608Y100335D01*
X713165Y99892D01*
X712925Y99313D01*
Y98687D01*
X713165Y98108D01*
X713608Y97665D01*
X714187Y97425D01*
X714813D01*
X715392Y97665D01*
X715835Y98108D01*
X716075Y98687D01*
Y99313D01*
X715835Y99892D01*
X715392Y100335D01*
X714813Y100575D01*
D02*
G37*
G36*
X740813Y95075D02*
X740187D01*
X739608Y94835D01*
X739165Y94392D01*
X738925Y93813D01*
Y93187D01*
X739165Y92608D01*
X739608Y92165D01*
X740187Y91925D01*
X740813D01*
X741392Y92165D01*
X741835Y92608D01*
X742075Y93187D01*
Y93813D01*
X741835Y94392D01*
X741392Y94835D01*
X740813Y95075D01*
D02*
G37*
G36*
X747813Y77075D02*
X747187D01*
X746608Y76835D01*
X746165Y76392D01*
X745925Y75813D01*
Y75187D01*
X746165Y74608D01*
X746608Y74165D01*
X747187Y73925D01*
X747813D01*
X748392Y74165D01*
X748835Y74608D01*
X749075Y75187D01*
Y75813D01*
X748835Y76392D01*
X748392Y76835D01*
X747813Y77075D01*
D02*
G37*
G36*
X756000Y113714D02*
X739361D01*
X739088Y113659D01*
X738857Y113505D01*
X735353Y110001D01*
X735175Y110075D01*
X734548D01*
X733969Y109835D01*
X733526Y109392D01*
X733397Y109080D01*
X732964D01*
X732835Y109392D01*
X732392Y109835D01*
X731813Y110075D01*
X731187D01*
X730608Y109835D01*
X730165Y109392D01*
X729925Y108813D01*
Y108187D01*
X730165Y107608D01*
X730608Y107165D01*
X731187Y106925D01*
X731813D01*
X732392Y107165D01*
X732835Y107608D01*
X732964Y107920D01*
X733397D01*
X733526Y107608D01*
X733969Y107165D01*
X734548Y106925D01*
X735175D01*
X735753Y107165D01*
X736197Y107608D01*
X736436Y108187D01*
Y108813D01*
X736362Y108992D01*
X739657Y112286D01*
X755704D01*
X767938Y100053D01*
X767895Y99916D01*
X767741Y99683D01*
X767197D01*
X766618Y99444D01*
X766175Y99001D01*
X765935Y98422D01*
Y97795D01*
X766175Y97217D01*
X766618Y96774D01*
X767197Y96534D01*
X767823D01*
X768402Y96774D01*
X768845Y97217D01*
X769085Y97795D01*
Y98340D01*
X769317Y98494D01*
X769454Y98536D01*
X793495Y74495D01*
X793727Y74341D01*
X794000Y74286D01*
X816253D01*
X816477Y73886D01*
X816370Y73714D01*
X788796D01*
X754380Y108129D01*
X754149Y108284D01*
X753876Y108338D01*
X752357D01*
X752335Y108392D01*
X751892Y108835D01*
X751313Y109075D01*
X750687D01*
X750108Y108835D01*
X749665Y108392D01*
X749425Y107813D01*
Y107187D01*
X749588Y106795D01*
X749386Y106388D01*
X749364Y106370D01*
X749167Y106342D01*
X749005Y106505D01*
X748773Y106659D01*
X748500Y106714D01*
X738909D01*
X738835Y106892D01*
X738392Y107335D01*
X737813Y107575D01*
X737187D01*
X736608Y107335D01*
X736165Y106892D01*
X735925Y106313D01*
Y105687D01*
X736165Y105108D01*
X736608Y104665D01*
X737187Y104425D01*
X737813D01*
X738392Y104665D01*
X738665Y104392D01*
X738425Y103813D01*
Y103187D01*
X738665Y102608D01*
X739108Y102165D01*
X739687Y101925D01*
X740313D01*
X740892Y102165D01*
X741165Y101892D01*
X740925Y101313D01*
Y100687D01*
X741165Y100108D01*
X741608Y99665D01*
X742187Y99425D01*
X742813D01*
X743056Y99526D01*
X743071Y99522D01*
X743425Y99246D01*
Y98812D01*
X743665Y98233D01*
X744108Y97790D01*
X744687Y97550D01*
X745313D01*
X745492Y97624D01*
X746685Y96431D01*
X746543Y96008D01*
X746095Y95822D01*
X745652Y95379D01*
X745466Y94931D01*
X745043Y94789D01*
X743949Y95883D01*
X744075Y96187D01*
Y96813D01*
X743835Y97392D01*
X743392Y97835D01*
X742813Y98075D01*
X742187D01*
X741608Y97835D01*
X741165Y97392D01*
X740925Y96813D01*
Y96187D01*
X741165Y95608D01*
X741608Y95165D01*
X742187Y94925D01*
X742813D01*
X742866Y94947D01*
X765818Y71995D01*
X766049Y71841D01*
X766263Y71798D01*
X766355Y71617D01*
X766399Y71386D01*
X766073Y71060D01*
X765833Y70481D01*
Y70448D01*
X765463Y70295D01*
X745501Y90258D01*
X745575Y90436D01*
Y91063D01*
X745335Y91642D01*
X744892Y92085D01*
X744313Y92324D01*
X743687D01*
X743108Y92085D01*
X742665Y91642D01*
X742425Y91063D01*
Y90436D01*
X742665Y89858D01*
X743108Y89415D01*
X743687Y89175D01*
X744313D01*
X744492Y89249D01*
X745029Y88711D01*
X744802Y88372D01*
X744313Y88575D01*
X743687D01*
X743108Y88335D01*
X742665Y87892D01*
X742479Y87444D01*
X742056Y87302D01*
X741349Y88009D01*
X741500Y88374D01*
Y89000D01*
X741260Y89579D01*
X740817Y90022D01*
X740239Y90262D01*
X739612D01*
X739033Y90022D01*
X738590Y89579D01*
X738350Y89000D01*
Y88374D01*
X738590Y87795D01*
X739033Y87352D01*
X739612Y87112D01*
X740227D01*
X780844Y46495D01*
X781075Y46341D01*
X781349Y46286D01*
X828091D01*
X828165Y46108D01*
X828608Y45665D01*
X829187Y45425D01*
X829813D01*
X830392Y45665D01*
X830835Y46108D01*
X831075Y46687D01*
Y47313D01*
X830835Y47892D01*
X830392Y48335D01*
X829813Y48575D01*
X829444D01*
X829161Y48661D01*
X829075Y48944D01*
Y49313D01*
X828889Y49761D01*
X829089Y50161D01*
X830143D01*
X830165Y50108D01*
X830608Y49665D01*
X831187Y49425D01*
X831813D01*
X832392Y49665D01*
X832835Y50108D01*
X833075Y50687D01*
Y51313D01*
X832835Y51892D01*
X832392Y52335D01*
X831813Y52575D01*
X831187D01*
X830608Y52335D01*
X830165Y51892D01*
X830039Y51588D01*
X821161D01*
X821068Y51929D01*
X821066Y51989D01*
X821498Y52421D01*
X821738Y52999D01*
Y53626D01*
X821498Y54205D01*
X821055Y54648D01*
X820476Y54887D01*
X820236D01*
X820225Y54887D01*
X820188Y55272D01*
X820214Y55283D01*
X820767Y55512D01*
X821210Y55955D01*
X821450Y56534D01*
Y57160D01*
X821210Y57739D01*
X820767Y58182D01*
X820188Y58422D01*
X819561D01*
X818983Y58182D01*
X818540Y57739D01*
X818466Y57561D01*
X783676D01*
X768232Y73005D01*
X768000Y73159D01*
X767727Y73214D01*
X766618D01*
X747289Y92543D01*
X747431Y92966D01*
X747879Y93152D01*
X748322Y93595D01*
X748507Y94043D01*
X748931Y94185D01*
X782620Y60495D01*
X782852Y60341D01*
X783125Y60286D01*
X821704D01*
X822495Y59495D01*
X822727Y59341D01*
X823000Y59286D01*
X826704D01*
X832995Y52995D01*
X833227Y52841D01*
X833500Y52786D01*
X840091D01*
X840165Y52608D01*
X840608Y52165D01*
X841187Y51925D01*
X841813D01*
X842392Y52165D01*
X842835Y52608D01*
X843075Y53187D01*
Y53813D01*
X842835Y54392D01*
X842392Y54835D01*
X841813Y55075D01*
X841187D01*
X840854Y54937D01*
X840628Y55276D01*
X840959Y55608D01*
X841199Y56187D01*
Y56813D01*
X840959Y57392D01*
X840516Y57835D01*
X839938Y58075D01*
X839311D01*
X838732Y57835D01*
X838289Y57392D01*
X838216Y57214D01*
X833296D01*
X825505Y65005D01*
X825474Y65025D01*
X825595Y65425D01*
X825813D01*
X826392Y65665D01*
X826835Y66108D01*
X827075Y66687D01*
Y67313D01*
X826889Y67761D01*
X827089Y68161D01*
X828334D01*
X836177Y60318D01*
X836175Y60313D01*
Y59687D01*
X836415Y59108D01*
X836858Y58665D01*
X837436Y58425D01*
X838063D01*
X838642Y58665D01*
X839085Y59108D01*
X839324Y59687D01*
Y60313D01*
X839085Y60892D01*
X838642Y61335D01*
X838063Y61575D01*
X837436D01*
X837085Y61429D01*
X835458Y63056D01*
X835486Y63155D01*
X835655Y63425D01*
X836188D01*
X836767Y63665D01*
X837210Y64108D01*
X837450Y64687D01*
Y65313D01*
X837210Y65892D01*
X836767Y66335D01*
X836188Y66575D01*
X835561D01*
X835383Y66501D01*
X833859Y68025D01*
X834025Y68425D01*
X834313D01*
X834892Y68665D01*
X835335Y69108D01*
X835575Y69687D01*
Y70313D01*
X835335Y70892D01*
X834892Y71335D01*
X834313Y71575D01*
X833687D01*
X833508Y71501D01*
X829505Y75505D01*
X829273Y75659D01*
X829000Y75714D01*
X794296D01*
X756505Y113505D01*
X756273Y113659D01*
X756000Y113714D01*
D02*
G37*
G36*
X633125Y91588D02*
X630974D01*
X630701Y91534D01*
X630469Y91379D01*
X628723Y89633D01*
X628121D01*
X627542Y89393D01*
X627099Y88950D01*
X626859Y88371D01*
Y87745D01*
X627099Y87166D01*
X627542Y86723D01*
X627806Y86614D01*
X627726Y86214D01*
X621000D01*
X620727Y86159D01*
X620495Y86005D01*
X599995Y65505D01*
X599841Y65273D01*
X599786Y65000D01*
Y25909D01*
X599608Y25835D01*
X599165Y25392D01*
X598925Y24813D01*
Y24187D01*
X599165Y23608D01*
X599608Y23165D01*
X600187Y22925D01*
X600813D01*
X601392Y23165D01*
X601835Y23608D01*
X602075Y24187D01*
Y24813D01*
X601835Y25392D01*
X601392Y25835D01*
X601214Y25909D01*
Y64704D01*
X621296Y84786D01*
X627652D01*
X627732Y84386D01*
X627608Y84335D01*
X627165Y83892D01*
X626925Y83313D01*
Y82687D01*
X627165Y82108D01*
X627608Y81665D01*
X628187Y81425D01*
X628813D01*
X629392Y81665D01*
X629635Y81908D01*
X629974Y81681D01*
X629925Y81564D01*
Y80937D01*
X630165Y80358D01*
X630608Y79915D01*
X631187Y79676D01*
X631813D01*
X632392Y79915D01*
X632835Y80358D01*
X632961Y80661D01*
X635411D01*
X635611Y80261D01*
X635425Y79813D01*
Y79187D01*
X635665Y78608D01*
X635811Y78462D01*
X635645Y78062D01*
X632903D01*
X632829Y78241D01*
X632386Y78684D01*
X631807Y78923D01*
X631180D01*
X630602Y78684D01*
X630159Y78241D01*
X629919Y77662D01*
Y77035D01*
X630159Y76456D01*
X630602Y76013D01*
X631180Y75774D01*
X631807D01*
X632386Y76013D01*
X632829Y76456D01*
X632903Y76635D01*
X635411D01*
X635611Y76235D01*
X635425Y75787D01*
Y75160D01*
X635665Y74582D01*
X635758Y74489D01*
X635593Y74089D01*
X632909D01*
X632835Y74267D01*
X632392Y74710D01*
X631813Y74950D01*
X631187D01*
X630608Y74710D01*
X630165Y74267D01*
X629925Y73688D01*
Y73062D01*
X630165Y72483D01*
X630608Y72040D01*
X631187Y71800D01*
X631813D01*
X632392Y72040D01*
X632835Y72483D01*
X632909Y72661D01*
X635411D01*
X635611Y72261D01*
X635425Y71813D01*
Y71187D01*
X635665Y70608D01*
X636108Y70165D01*
X636687Y69925D01*
X637313D01*
X637892Y70165D01*
X638335Y70608D01*
X638575Y71187D01*
Y71350D01*
X638975Y71516D01*
X640495Y69995D01*
X640727Y69841D01*
X641000Y69786D01*
X699500D01*
X699773Y69841D01*
X699775Y69842D01*
X700099Y69577D01*
X699933Y69178D01*
Y68551D01*
X700173Y67972D01*
X700616Y67529D01*
X701195Y67290D01*
X701421D01*
X701515Y67258D01*
X701619Y66802D01*
X701508Y66690D01*
X701185D01*
X700606Y66450D01*
X700163Y66007D01*
X699924Y65428D01*
Y64802D01*
X700163Y64223D01*
X700606Y63780D01*
X701185Y63540D01*
X701295D01*
X701502Y63188D01*
X701372Y62940D01*
X700935D01*
X700356Y62700D01*
X699913Y62257D01*
X699839Y62079D01*
X692089D01*
X691889Y62479D01*
X692075Y62927D01*
Y63553D01*
X691835Y64132D01*
X691392Y64575D01*
X690813Y64815D01*
X690187D01*
X689608Y64575D01*
X689165Y64132D01*
X688925Y63553D01*
Y62927D01*
X689111Y62479D01*
X688911Y62079D01*
X644965D01*
X644835Y62392D01*
X644392Y62835D01*
X643813Y63075D01*
X643187D01*
X642608Y62835D01*
X642165Y62392D01*
X641925Y61813D01*
Y61187D01*
X642165Y60608D01*
X642279Y60494D01*
X642113Y60094D01*
X629415D01*
X617754Y71755D01*
X617523Y71910D01*
X617250Y71964D01*
X612909D01*
X612835Y72142D01*
X612392Y72585D01*
X611813Y72825D01*
X611187D01*
X610608Y72585D01*
X610165Y72142D01*
X609925Y71564D01*
Y70937D01*
X610165Y70358D01*
X610608Y69915D01*
X611187Y69676D01*
X611502D01*
X611851Y69320D01*
X611824Y69082D01*
X611813Y69075D01*
X611187D01*
X610608Y68835D01*
X610165Y68392D01*
X609925Y67813D01*
Y67187D01*
X610165Y66608D01*
X610608Y66165D01*
X611187Y65925D01*
X611813D01*
X612123Y66053D01*
X612429Y65747D01*
X612425Y65738D01*
Y65254D01*
X612138Y65005D01*
X612056Y64974D01*
X611813Y65075D01*
X611187D01*
X610608Y64835D01*
X610165Y64392D01*
X609925Y63813D01*
Y63187D01*
X610165Y62608D01*
X610608Y62165D01*
X611187Y61925D01*
X611813D01*
X612085Y62038D01*
X612241Y61935D01*
X612425Y61746D01*
Y61187D01*
X612665Y60608D01*
X613108Y60165D01*
X613687Y59925D01*
X614313D01*
X614492Y59999D01*
X625495Y48995D01*
X625727Y48841D01*
X626000Y48786D01*
X700000D01*
X700273Y48841D01*
X700505Y48995D01*
X713362Y61853D01*
X730813D01*
X730893Y61453D01*
X730608Y61335D01*
X730165Y60892D01*
X729925Y60313D01*
Y59687D01*
X730165Y59108D01*
X730608Y58665D01*
X731187Y58425D01*
X731813D01*
X732392Y58665D01*
X732835Y59108D01*
X733075Y59687D01*
Y60313D01*
X732875Y60796D01*
X733089Y61080D01*
X733141Y61119D01*
X733448Y60992D01*
X734074D01*
X734653Y61232D01*
X735096Y61675D01*
X735336Y62253D01*
Y62880D01*
X735366Y62925D01*
X735813D01*
X736392Y63165D01*
X736835Y63608D01*
X737075Y64187D01*
Y64813D01*
X736835Y65392D01*
X736392Y65835D01*
X735813Y66075D01*
X735187D01*
X734608Y65835D01*
X734165Y65392D01*
X734067Y65155D01*
X716198D01*
X716032Y65555D01*
X716085Y65608D01*
X716324Y66187D01*
Y66813D01*
X716237Y67025D01*
X716504Y67425D01*
X716813D01*
X717392Y67665D01*
X717835Y68108D01*
X718075Y68687D01*
Y69313D01*
X717835Y69892D01*
X717392Y70335D01*
X716813Y70575D01*
X716187D01*
X715608Y70335D01*
X715165Y69892D01*
X714925Y69313D01*
Y68687D01*
X715013Y68475D01*
X714746Y68075D01*
X714436D01*
X713858Y67835D01*
X713414Y67392D01*
X713175Y66813D01*
Y66187D01*
X713414Y65608D01*
X713467Y65555D01*
X713302Y65155D01*
X713210D01*
X712937Y65101D01*
X712705Y64946D01*
X708265Y60506D01*
X707865Y60672D01*
Y66348D01*
X707811Y66622D01*
X707656Y66853D01*
X705345Y69164D01*
X705266Y69650D01*
X705349Y69733D01*
X705589Y70312D01*
Y70938D01*
X705525Y71093D01*
X705747Y71425D01*
X705978D01*
X706360Y71584D01*
X706667Y71278D01*
X706550Y70997D01*
Y70370D01*
X706790Y69792D01*
X707233Y69349D01*
X707812Y69109D01*
X708438D01*
X708886Y69294D01*
X709286Y69095D01*
Y66909D01*
X709108Y66835D01*
X708665Y66392D01*
X708425Y65813D01*
Y65187D01*
X708665Y64608D01*
X709108Y64165D01*
X709687Y63925D01*
X710313D01*
X710892Y64165D01*
X711335Y64608D01*
X711575Y65187D01*
Y65813D01*
X711335Y66392D01*
X710892Y66835D01*
X710714Y66909D01*
Y69411D01*
X711114Y69611D01*
X711561Y69425D01*
X712188D01*
X712767Y69665D01*
X713210Y70108D01*
X713450Y70687D01*
Y71313D01*
X713210Y71892D01*
X712767Y72335D01*
X712188Y72575D01*
X711561D01*
X711114Y72389D01*
X710714Y72589D01*
Y74195D01*
X710659Y74468D01*
X710505Y74699D01*
X705325Y79879D01*
X705093Y80034D01*
X704820Y80089D01*
X700749D01*
X700476Y80034D01*
X700245Y79879D01*
X698428Y78062D01*
X638355D01*
X638189Y78462D01*
X638335Y78608D01*
X638575Y79187D01*
Y79813D01*
X638389Y80261D01*
X638589Y80661D01*
X706754D01*
X712695Y74720D01*
X712695Y74720D01*
X712977Y74438D01*
X712925Y74313D01*
Y73687D01*
X713165Y73108D01*
X713608Y72665D01*
X714187Y72425D01*
X714813D01*
X715392Y72665D01*
X715835Y73108D01*
X716075Y73687D01*
Y74313D01*
X715835Y74892D01*
X715392Y75335D01*
X714813Y75575D01*
X714187D01*
X713955Y75479D01*
X713704Y75730D01*
X713704Y75730D01*
X707554Y81880D01*
X707323Y82034D01*
X707050Y82089D01*
X688127D01*
X688002Y82420D01*
X687998Y82489D01*
X688671Y83162D01*
X708829D01*
X717499Y74492D01*
X717425Y74313D01*
Y73687D01*
X717665Y73108D01*
X718108Y72665D01*
X718687Y72425D01*
X719313D01*
X719892Y72665D01*
X720335Y73108D01*
X720575Y73687D01*
Y74313D01*
X720335Y74892D01*
X719892Y75335D01*
X719313Y75575D01*
X718687D01*
X718508Y75501D01*
X709629Y84380D01*
X709398Y84535D01*
X709124Y84589D01*
X708382D01*
X708216Y84989D01*
X708335Y85108D01*
X708575Y85687D01*
Y86313D01*
X708335Y86892D01*
X707892Y87335D01*
X707313Y87575D01*
X706687D01*
X706108Y87335D01*
X705665Y86892D01*
X705425Y86313D01*
Y85711D01*
X705303Y85589D01*
X704589D01*
X704389Y85989D01*
X704575Y86437D01*
Y87064D01*
X704335Y87642D01*
X703966Y88011D01*
X704057Y88359D01*
X704089Y88411D01*
X710079D01*
X722286Y76204D01*
Y75409D01*
X722108Y75335D01*
X721665Y74892D01*
X721425Y74313D01*
Y73687D01*
X721665Y73108D01*
X722108Y72665D01*
X722687Y72425D01*
X723313D01*
X723892Y72665D01*
X724335Y73108D01*
X724575Y73687D01*
Y74313D01*
X724335Y74892D01*
X723892Y75335D01*
X723714Y75409D01*
Y76500D01*
X723659Y76773D01*
X723505Y77005D01*
X710880Y89630D01*
X710648Y89785D01*
X710375Y89839D01*
X635170D01*
X633630Y91379D01*
X633398Y91534D01*
X633125Y91588D01*
D02*
G37*
G36*
X725313Y72575D02*
X724687D01*
X724108Y72335D01*
X723665Y71892D01*
X723425Y71313D01*
Y70687D01*
X723665Y70108D01*
X724108Y69665D01*
X724687Y69425D01*
X725313D01*
X725892Y69665D01*
X726335Y70108D01*
X726575Y70687D01*
Y71313D01*
X726335Y71892D01*
X725892Y72335D01*
X725313Y72575D01*
D02*
G37*
G36*
X721313D02*
X720687D01*
X720108Y72335D01*
X719665Y71892D01*
X719425Y71313D01*
Y70687D01*
X719665Y70108D01*
X720108Y69665D01*
X720687Y69425D01*
X721313D01*
X721892Y69665D01*
X722335Y70108D01*
X722575Y70687D01*
Y71313D01*
X722335Y71892D01*
X721892Y72335D01*
X721313Y72575D01*
D02*
G37*
G36*
X669813Y69075D02*
X669187D01*
X668608Y68835D01*
X668165Y68392D01*
X667925Y67813D01*
Y67187D01*
X668165Y66608D01*
X668608Y66165D01*
X669187Y65925D01*
X669813D01*
X670392Y66165D01*
X670835Y66608D01*
X671075Y67187D01*
Y67813D01*
X670835Y68392D01*
X670392Y68835D01*
X669813Y69075D01*
D02*
G37*
G36*
X685960Y68427D02*
X685334D01*
X684755Y68187D01*
X684312Y67744D01*
X684072Y67165D01*
Y66539D01*
X684312Y65960D01*
X684755Y65517D01*
X685334Y65277D01*
X685960D01*
X686539Y65517D01*
X686982Y65960D01*
X687222Y66539D01*
Y67165D01*
X686982Y67744D01*
X686539Y68187D01*
X685960Y68427D01*
D02*
G37*
G36*
X751313Y66575D02*
X750687D01*
X750108Y66335D01*
X749665Y65892D01*
X749425Y65313D01*
Y64687D01*
X749665Y64108D01*
X750108Y63665D01*
X750687Y63425D01*
X751313D01*
X751892Y63665D01*
X752335Y64108D01*
X752575Y64687D01*
Y65313D01*
X752335Y65892D01*
X751892Y66335D01*
X751313Y66575D01*
D02*
G37*
G36*
X748313Y62575D02*
X747687D01*
X747108Y62335D01*
X746665Y61892D01*
X746425Y61313D01*
Y60687D01*
X746665Y60108D01*
X747108Y59665D01*
X747687Y59425D01*
X748313D01*
X748892Y59665D01*
X749335Y60108D01*
X749575Y60687D01*
Y61313D01*
X749335Y61892D01*
X748892Y62335D01*
X748313Y62575D01*
D02*
G37*
G36*
X756813Y59075D02*
X756187D01*
X755608Y58835D01*
X755165Y58392D01*
X754925Y57813D01*
Y57187D01*
X755165Y56608D01*
X755608Y56165D01*
X756187Y55925D01*
X756813D01*
X757392Y56165D01*
X757835Y56608D01*
X758075Y57187D01*
Y57813D01*
X757835Y58392D01*
X757392Y58835D01*
X756813Y59075D01*
D02*
G37*
G36*
X432313Y53575D02*
X431687D01*
X431108Y53335D01*
X430665Y52892D01*
X430425Y52313D01*
Y51687D01*
X430665Y51108D01*
X431108Y50665D01*
X431687Y50425D01*
X432313D01*
X432892Y50665D01*
X433335Y51108D01*
X433575Y51687D01*
Y52313D01*
X433335Y52892D01*
X432892Y53335D01*
X432313Y53575D01*
D02*
G37*
G36*
X776313Y47575D02*
X775687D01*
X775108Y47335D01*
X774665Y46892D01*
X774425Y46313D01*
Y45687D01*
X774665Y45108D01*
X775108Y44665D01*
X775687Y44425D01*
X776313D01*
X776892Y44665D01*
X777335Y45108D01*
X777575Y45687D01*
Y46313D01*
X777335Y46892D01*
X776892Y47335D01*
X776313Y47575D01*
D02*
G37*
G36*
X742813D02*
X742187D01*
X741608Y47335D01*
X741165Y46892D01*
X740925Y46313D01*
Y45687D01*
X741165Y45108D01*
X741608Y44665D01*
X742187Y44425D01*
X742813D01*
X743392Y44665D01*
X743835Y45108D01*
X744075Y45687D01*
Y46313D01*
X743835Y46892D01*
X743392Y47335D01*
X742813Y47575D01*
D02*
G37*
G36*
X725313Y47075D02*
X724687D01*
X724108Y46835D01*
X723665Y46392D01*
X723425Y45813D01*
Y45187D01*
X723665Y44608D01*
X724108Y44165D01*
X724687Y43925D01*
X725313D01*
X725892Y44165D01*
X726335Y44608D01*
X726575Y45187D01*
Y45813D01*
X726335Y46392D01*
X725892Y46835D01*
X725313Y47075D01*
D02*
G37*
G36*
X711813D02*
X711187D01*
X710608Y46835D01*
X710165Y46392D01*
X709925Y45813D01*
Y45187D01*
X710165Y44608D01*
X710608Y44165D01*
X711187Y43925D01*
X711813D01*
X712392Y44165D01*
X712835Y44608D01*
X713075Y45187D01*
Y45813D01*
X712835Y46392D01*
X712392Y46835D01*
X711813Y47075D01*
D02*
G37*
G36*
X776313Y40575D02*
X775687D01*
X775108Y40335D01*
X774665Y39892D01*
X774425Y39313D01*
Y38687D01*
X774665Y38108D01*
X775108Y37665D01*
X775687Y37425D01*
X776313D01*
X776892Y37665D01*
X777335Y38108D01*
X777575Y38687D01*
Y39313D01*
X777335Y39892D01*
X776892Y40335D01*
X776313Y40575D01*
D02*
G37*
G36*
X765813Y40075D02*
X765187D01*
X764608Y39835D01*
X764165Y39392D01*
X763925Y38813D01*
Y38187D01*
X764165Y37608D01*
X764608Y37165D01*
X765187Y36925D01*
X765813D01*
X766392Y37165D01*
X766835Y37608D01*
X767075Y38187D01*
Y38813D01*
X766835Y39392D01*
X766392Y39835D01*
X765813Y40075D01*
D02*
G37*
G36*
X529813Y26575D02*
X529187D01*
X528608Y26335D01*
X528165Y25892D01*
X527925Y25313D01*
Y24687D01*
X528165Y24108D01*
X528608Y23665D01*
X529187Y23425D01*
X529813D01*
X530392Y23665D01*
X530835Y24108D01*
X531075Y24687D01*
Y25313D01*
X530835Y25892D01*
X530392Y26335D01*
X529813Y26575D01*
D02*
G37*
G36*
X557000Y26000D02*
X556374D01*
X555795Y25760D01*
X555352Y25317D01*
X555112Y24738D01*
Y24112D01*
X555352Y23533D01*
X555795Y23090D01*
X556374Y22850D01*
X557000D01*
X557579Y23090D01*
X558022Y23533D01*
X558261Y24112D01*
Y24738D01*
X558022Y25317D01*
X557579Y25760D01*
X557000Y26000D01*
D02*
G37*
G36*
X543626D02*
X543000D01*
X542421Y25760D01*
X541978Y25317D01*
X541739Y24738D01*
Y24112D01*
X541978Y23533D01*
X542421Y23090D01*
X543000Y22850D01*
X543626D01*
X544205Y23090D01*
X544648Y23533D01*
X544888Y24112D01*
Y24738D01*
X544648Y25317D01*
X544205Y25760D01*
X543626Y26000D01*
D02*
G37*
%LPD*%
G36*
X700907Y100208D02*
X700754Y99838D01*
X688796D01*
X685629Y103005D01*
X685397Y103159D01*
X685124Y103214D01*
X627289D01*
X627123Y103614D01*
X629796Y106286D01*
X694829D01*
X700907Y100208D01*
D02*
G37*
%LPC*%
G36*
X688313Y105075D02*
X687687D01*
X687108Y104835D01*
X686665Y104392D01*
X686425Y103813D01*
Y103187D01*
X686665Y102608D01*
X687108Y102165D01*
X687687Y101925D01*
X688313D01*
X688892Y102165D01*
X689335Y102608D01*
X689575Y103187D01*
Y103813D01*
X689335Y104392D01*
X688892Y104835D01*
X688313Y105075D01*
D02*
G37*
%LPD*%
G36*
X832499Y70492D02*
X832425Y70313D01*
Y70025D01*
X832025Y69859D01*
X830879Y71005D01*
X830648Y71159D01*
X830375Y71214D01*
X818848D01*
X818768Y71614D01*
X818892Y71665D01*
X819335Y72108D01*
X819575Y72687D01*
Y73313D01*
X819335Y73892D01*
X819310Y73917D01*
X819463Y74286D01*
X828704D01*
X832499Y70492D01*
D02*
G37*
G36*
X786762Y68370D02*
X786993Y68215D01*
X787266Y68161D01*
X823911D01*
X824111Y67761D01*
X823925Y67313D01*
Y66687D01*
X824165Y66108D01*
X824608Y65665D01*
X824732Y65614D01*
X824652Y65214D01*
X785220D01*
X767769Y82664D01*
X767924Y83076D01*
X768402Y83274D01*
X768845Y83717D01*
X769085Y84295D01*
Y84922D01*
X768845Y85501D01*
X768402Y85944D01*
X767823Y86184D01*
X767197D01*
X766618Y85944D01*
X766175Y85501D01*
X765977Y85023D01*
X765565Y84868D01*
X750783Y99650D01*
X750910Y99996D01*
X750962Y100050D01*
X751300D01*
X751879Y100290D01*
X752322Y100733D01*
X752562Y101312D01*
Y101938D01*
X752515Y102051D01*
X752854Y102278D01*
X786762Y68370D01*
D02*
G37*
G36*
X782875Y56342D02*
X783107Y56188D01*
X783380Y56133D01*
X804862D01*
X805006Y55733D01*
X804665Y55392D01*
X804425Y54813D01*
Y54187D01*
X804665Y53608D01*
X805108Y53165D01*
X805687Y52925D01*
X806313D01*
X806892Y53165D01*
X807335Y53608D01*
X807575Y54187D01*
Y54813D01*
X807335Y55392D01*
X806994Y55733D01*
X807138Y56133D01*
X818466D01*
X818540Y55955D01*
X818983Y55512D01*
X819561Y55272D01*
X819802D01*
X819813Y55272D01*
X819850Y54887D01*
X819824Y54877D01*
X819271Y54648D01*
X818828Y54205D01*
X818588Y53626D01*
Y52999D01*
X818828Y52421D01*
X819260Y51989D01*
X819258Y51929D01*
X819165Y51588D01*
X784170D01*
X767536Y68223D01*
X767689Y68593D01*
X767721D01*
X768300Y68833D01*
X768743Y69276D01*
X768928Y69723D01*
X769352Y69865D01*
X782875Y56342D01*
D02*
G37*
G36*
X684360Y85791D02*
X684312Y85744D01*
X684072Y85165D01*
Y84539D01*
X684258Y84091D01*
X684059Y83691D01*
X633818D01*
X633001Y84508D01*
X633075Y84687D01*
Y85313D01*
X632889Y85761D01*
X633089Y86161D01*
X684207D01*
X684360Y85791D01*
D02*
G37*
G36*
X709286Y73899D02*
Y72272D01*
X708886Y72073D01*
X708438Y72258D01*
X707812D01*
X707429Y72100D01*
X707123Y72406D01*
X707239Y72687D01*
Y73313D01*
X707000Y73892D01*
X706557Y74335D01*
X705978Y74575D01*
X705351D01*
X704773Y74335D01*
X704526Y74089D01*
X702375D01*
X702102Y74034D01*
X701870Y73879D01*
X699204Y71214D01*
X641296D01*
X638630Y73879D01*
X638398Y74034D01*
X638361Y74042D01*
X638229Y74476D01*
X638335Y74582D01*
X638575Y75160D01*
Y75787D01*
X638389Y76235D01*
X638589Y76635D01*
X698723D01*
X698996Y76689D01*
X699228Y76844D01*
X699556Y77172D01*
X699951Y77001D01*
X700165Y76484D01*
X700608Y76041D01*
X701187Y75801D01*
X701813D01*
X702392Y76041D01*
X702835Y76484D01*
X703075Y77062D01*
Y77689D01*
X702835Y78268D01*
X702811Y78291D01*
X702964Y78661D01*
X704524D01*
X709286Y73899D01*
D02*
G37*
D12*
X684124Y99000D02*
X686124Y97000D01*
X707119D01*
X709494Y94625D01*
X685500Y95050D02*
X704227D01*
X704451Y94826D01*
X631494Y77349D02*
X698723D01*
X700749Y79375D02*
X704820D01*
X698723Y77349D02*
X700749Y79375D01*
X645250Y94250D02*
X646750Y92750D01*
X711750D01*
X699500Y70500D02*
X702375Y73375D01*
X641000Y70500D02*
X699500D01*
X638125Y73375D02*
X641000Y70500D01*
X631500Y73375D02*
X638125D01*
X702375D02*
X704962D01*
X611500Y71250D02*
X617250D01*
X704820Y79375D02*
X710000Y74195D01*
Y65500D02*
Y74195D01*
X739925Y88423D02*
X781349Y47000D01*
X739925Y88423D02*
Y88687D01*
X766323Y72500D02*
X767727D01*
X742500Y96323D02*
X766323Y72500D01*
X767727D02*
X783380Y56847D01*
X631439Y94232D02*
X631457Y94250D01*
X630732Y94232D02*
X631439D01*
X631457Y94250D02*
X645250D01*
X630500Y94000D02*
X630732Y94232D01*
X823000Y60000D02*
X827000D01*
X822000Y61000D02*
X823000Y60000D01*
X827000D02*
X833500Y53500D01*
X784924Y64500D02*
X825000D01*
X750044Y99380D02*
X784924Y64500D01*
X825000D02*
X833000Y56500D01*
X785000Y62500D02*
X823500D01*
X783125Y61000D02*
X822000D01*
X833500Y53500D02*
X841500D01*
X630974Y90875D02*
X633125D01*
X634875Y89125D02*
X710375D01*
X633125Y90875D02*
X634875Y89125D01*
X584500Y62000D02*
X629500Y107000D01*
X695124D02*
X702000Y100124D01*
X629500Y107000D02*
X695124D01*
X629500Y109000D02*
X696000D01*
X583000Y62500D02*
X629500Y109000D01*
X696000D02*
X703000Y102000D01*
X629000Y110500D02*
X697500D01*
X703500Y104500D01*
X581500Y63000D02*
X629000Y110500D01*
X698651Y112000D02*
X702076Y108576D01*
X628500Y112000D02*
X698651D01*
X580000Y63500D02*
X628500Y112000D01*
X627000Y102500D02*
X685124D01*
X586500Y62000D02*
X627000Y102500D01*
X685124D02*
X688500Y99124D01*
X628434Y88335D02*
X630974Y90875D01*
X710375Y89125D02*
X723000Y76500D01*
X628434Y88058D02*
Y88335D01*
X629349Y85500D02*
X630723Y86875D01*
X699125D02*
X701124Y84876D01*
X630723Y86875D02*
X699125D01*
X633523Y82977D02*
X687477D01*
X631500Y85000D02*
X633523Y82977D01*
X631624Y81375D02*
X707050D01*
X631500Y81250D02*
X631624Y81375D01*
X704962Y73375D02*
X705337Y73000D01*
X705665D01*
X742500Y96323D02*
Y96500D01*
X745000Y99125D02*
X783125Y61000D01*
X751000Y107500D02*
X751124Y107624D01*
X753876D01*
X753000Y105500D02*
X788000Y70500D01*
X748500Y106000D02*
X749000Y105500D01*
X753000D01*
X750044Y99380D02*
Y99445D01*
X742500Y101000D02*
X748424D01*
X748880Y100544D02*
X748946D01*
X750044Y99445D01*
X748424Y101000D02*
X748880Y100544D01*
X695000Y54875D02*
X701769D01*
X693125Y53000D02*
X695000Y54875D01*
X628257Y53000D02*
X693125D01*
X621000Y85500D02*
X629349D01*
X600500Y65000D02*
X621000Y85500D01*
X588500Y62000D02*
X627500Y101000D01*
X684500D02*
X687376Y98124D01*
X627500Y101000D02*
X684500D01*
X627500Y99000D02*
X684124D01*
X592500Y64000D02*
X627500Y99000D01*
X596500Y66000D02*
X627500Y97000D01*
X683550D01*
X685500Y95050D01*
X687376Y98124D02*
X709809D01*
X688500Y99124D02*
X706799D01*
X702000Y100124D02*
X706385D01*
X707500Y101240D01*
X703000Y102000D02*
X705500D01*
X709809Y98124D02*
X713183Y94750D01*
X706799Y99124D02*
X709500Y101825D01*
X701124Y84876D02*
X705599D01*
X752641Y103500D02*
X787266Y68875D01*
X828630D01*
X740000Y103500D02*
X752641D01*
X713067Y62567D02*
X733761D01*
X700000Y49500D02*
X713067Y62567D01*
X749055Y98445D02*
X785000Y62500D01*
X748169Y98669D02*
X748393Y98445D01*
X749055D01*
X737500Y106000D02*
X748500D01*
X783380Y56847D02*
X819875D01*
X699894Y51125D02*
X713210Y64442D01*
X627375Y51125D02*
X699894D01*
X615000Y63500D02*
X627375Y51125D01*
X615833Y65425D02*
X628257Y53000D01*
X701769Y54875D02*
X707152Y60258D01*
X701355Y55875D02*
X706143Y60663D01*
X627625Y55875D02*
X701355D01*
X616200Y67299D02*
X627625Y55875D01*
X643500Y61500D02*
X643635Y61365D01*
X701248D01*
X688376Y83876D02*
X709124D01*
X687477Y82977D02*
X688376Y83876D01*
X735441Y64442D02*
X735500Y64500D01*
X713210Y64442D02*
X735441D01*
X701635Y64978D02*
X703826D01*
X701622Y68750D02*
X704750D01*
X701508Y68865D02*
X701622Y68750D01*
X703826Y64978D02*
X705143Y63661D01*
X707152Y60258D02*
Y66348D01*
X704750Y68750D02*
X707152Y66348D01*
X701498Y65115D02*
X701635Y64978D01*
X703365Y66853D02*
X706143Y64075D01*
Y60663D02*
Y64075D01*
X707050Y81375D02*
X713199Y75225D01*
X734861Y108500D02*
X739361Y113000D01*
X756000D02*
X794000Y75000D01*
X739361Y113000D02*
X756000D01*
X794000Y75000D02*
X829000D01*
X788500Y73000D02*
X818000D01*
X753876Y107624D02*
X788500Y73000D01*
X788000Y70500D02*
X830375D01*
X706723Y86000D02*
X707000D01*
X705599Y84876D02*
X706723Y86000D01*
X709124Y83876D02*
X719000Y74000D01*
X830375Y70500D02*
X835875Y65000D01*
X828630Y68875D02*
X837505Y60000D01*
X833000Y56500D02*
X839624D01*
X837505Y60000D02*
X837750D01*
X781349Y47000D02*
X829500D01*
X782000Y49000D02*
X827500D01*
X744000Y87000D02*
X782000Y49000D01*
X783875Y50875D02*
X831375D01*
X831500Y51000D01*
X744000Y90750D02*
X783875Y50875D01*
X829000Y75000D02*
X834000Y70000D01*
X611700Y67299D02*
X616200D01*
X611500Y67500D02*
X611700Y67299D01*
X580000Y31000D02*
Y63500D01*
X573000Y24000D02*
X580000Y31000D01*
X580500Y26500D02*
X583000Y29000D01*
Y62500D01*
X578500Y27000D02*
X581500Y30000D01*
Y63000D01*
X578500Y22000D02*
Y27000D01*
X580500Y24500D02*
Y26500D01*
X582500Y26000D02*
X584500Y28000D01*
Y62000D01*
X582500Y22000D02*
Y26000D01*
X584500Y24500D02*
X586500Y26500D01*
Y62000D01*
X592500Y24500D02*
Y64000D01*
X600500Y24500D02*
Y65000D01*
X596500Y24500D02*
Y66000D01*
X588500Y24500D02*
Y62000D01*
X613674Y69174D02*
X616826D01*
X628500Y57500D01*
X617250Y71250D02*
X629120Y59380D01*
X707500Y101240D02*
Y104500D01*
X709500Y101825D02*
Y102000D01*
X711750Y92750D02*
X727000Y77500D01*
X713183Y94750D02*
X713500D01*
X727000Y74000D02*
Y77500D01*
X713199Y75225D02*
X713199D01*
X714424Y74000D01*
X714500D01*
X723000D02*
Y76500D01*
X703268Y60617D02*
Y62885D01*
X705143Y61077D02*
Y63661D01*
X701566Y57500D02*
X705143Y61077D01*
X628500Y57500D02*
X701566D01*
X702032Y59380D02*
X703268Y60617D01*
X629120Y59380D02*
X702032D01*
X626000Y49500D02*
X700000D01*
X614000Y61500D02*
X626000Y49500D01*
X614000Y65425D02*
X615833D01*
X611500Y63500D02*
X615000D01*
D53*
X1177165Y143701D02*
D03*
Y19685D02*
D03*
X-39370D02*
D03*
Y143701D02*
D03*
D54*
X648500Y95000D02*
D03*
X704451Y94826D02*
D03*
X656500Y73500D02*
D03*
X585000Y22000D02*
D03*
X551000Y37000D02*
D03*
X556687Y24425D02*
D03*
X543313D02*
D03*
X611500Y71250D02*
D03*
X568500Y24000D02*
D03*
X450000Y28500D02*
D03*
X442500Y45634D02*
D03*
X456500Y40500D02*
D03*
X559500Y44500D02*
D03*
X776000Y22500D02*
D03*
X788000Y42500D02*
D03*
X544000Y45000D02*
D03*
X533500Y22500D02*
D03*
X551000Y24000D02*
D03*
X709000Y40000D02*
D03*
X761500Y129000D02*
D03*
X646000Y63500D02*
D03*
X575500Y22000D02*
D03*
X580500Y20000D02*
D03*
X611000Y59500D02*
D03*
X626000Y90000D02*
D03*
X634500Y69500D02*
D03*
X842500Y56000D02*
D03*
X840500Y59500D02*
D03*
X838000Y63000D02*
D03*
X837000Y68500D02*
D03*
X828000Y65000D02*
D03*
X828500Y53000D02*
D03*
X745500Y74000D02*
D03*
X748000Y64000D02*
D03*
X738000Y62500D02*
D03*
X712000Y104000D02*
D03*
X716000Y96500D02*
D03*
X738500Y91500D02*
D03*
X740500Y99000D02*
D03*
X729000Y107000D02*
D03*
X734500Y105500D02*
D03*
X714750Y66500D02*
D03*
X710000Y65500D02*
D03*
X708125Y70684D02*
D03*
X711875Y71000D02*
D03*
X704014Y70625D02*
D03*
X721000Y71000D02*
D03*
X716500Y69000D02*
D03*
X715964Y59500D02*
D03*
X739925Y88687D02*
D03*
X767408Y70168D02*
D03*
X630500Y94000D02*
D03*
X823500Y62500D02*
D03*
X659000Y104500D02*
D03*
X632000Y89000D02*
D03*
X642892Y92335D02*
D03*
X631500Y85000D02*
D03*
Y81250D02*
D03*
X637000Y79500D02*
D03*
Y75474D02*
D03*
X631500Y73375D02*
D03*
X631494Y77349D02*
D03*
X637000Y71500D02*
D03*
X821000Y73000D02*
D03*
X781000Y72000D02*
D03*
X809000Y54000D02*
D03*
X635000Y85000D02*
D03*
X590500Y22000D02*
D03*
X598500D02*
D03*
X594500D02*
D03*
X451000Y57000D02*
D03*
X813500Y43500D02*
D03*
X691500Y41000D02*
D03*
X682000Y114500D02*
D03*
X666500Y67000D02*
D03*
X795000Y78500D02*
D03*
X736500Y102500D02*
D03*
X730000Y75500D02*
D03*
X690500Y63240D02*
D03*
X711500Y45500D02*
D03*
X742500Y46000D02*
D03*
X696228Y122772D02*
D03*
X738000Y120500D02*
D03*
X759000Y123000D02*
D03*
X742500Y96500D02*
D03*
X746987Y94487D02*
D03*
X751000Y107500D02*
D03*
X725000Y45500D02*
D03*
X767510Y84609D02*
D03*
X767500Y110260D02*
D03*
X746093Y109592D02*
D03*
X705500Y102000D02*
D03*
X702076Y108576D02*
D03*
X703000Y86750D02*
D03*
X701500Y77376D02*
D03*
X806000Y54500D02*
D03*
X669500Y67500D02*
D03*
X529500Y25000D02*
D03*
X432000Y52000D02*
D03*
X757500Y116500D02*
D03*
X748169Y98669D02*
D03*
X697000Y53000D02*
D03*
X731500Y60000D02*
D03*
X733761Y62567D02*
D03*
X748000Y61000D02*
D03*
X685647Y66852D02*
D03*
X703365Y66853D02*
D03*
X701508Y68865D02*
D03*
X705665Y73000D02*
D03*
X685647Y84852D02*
D03*
X694500Y115000D02*
D03*
X750987Y101625D02*
D03*
X767510Y98109D02*
D03*
X751000Y65000D02*
D03*
X740500Y93500D02*
D03*
X747500Y75500D02*
D03*
X756500Y57500D02*
D03*
X720000Y120500D02*
D03*
X710000Y122000D02*
D03*
X724500Y121500D02*
D03*
X731500Y108500D02*
D03*
X727500Y109500D02*
D03*
X712000Y107000D02*
D03*
X729000Y78500D02*
D03*
X714500Y99000D02*
D03*
X688000Y103500D02*
D03*
X765500Y38500D02*
D03*
X776000Y39000D02*
D03*
Y46000D02*
D03*
X825500Y67000D02*
D03*
X841500Y53500D02*
D03*
X839624Y56500D02*
D03*
X837750Y60000D02*
D03*
X835875Y65000D02*
D03*
X831500Y51000D02*
D03*
X829500Y47000D02*
D03*
X827500Y49000D02*
D03*
X820163Y53313D02*
D03*
X819875Y56847D02*
D03*
X744000Y90750D02*
D03*
Y87000D02*
D03*
X834000Y70000D02*
D03*
X818000Y73000D02*
D03*
X745000Y99125D02*
D03*
X734861Y108500D02*
D03*
X742500Y101000D02*
D03*
X740000Y103500D02*
D03*
X737500Y106000D02*
D03*
X628434Y88058D02*
D03*
X611500Y67500D02*
D03*
X573000Y24000D02*
D03*
X584500Y24500D02*
D03*
X600500D02*
D03*
X596500D02*
D03*
X592500D02*
D03*
X578500Y22000D02*
D03*
X582500D02*
D03*
X588500Y24500D02*
D03*
X580500D02*
D03*
X707500Y104500D02*
D03*
X709500Y102000D02*
D03*
X703500Y104500D02*
D03*
X709494Y94625D02*
D03*
X713500Y94750D02*
D03*
X707000Y86000D02*
D03*
X714500Y74000D02*
D03*
X725000Y71000D02*
D03*
X727000Y74000D02*
D03*
X723000D02*
D03*
X719000D02*
D03*
X628500Y83000D02*
D03*
X643500Y61500D02*
D03*
X701248Y61365D02*
D03*
X701498Y65115D02*
D03*
X703268Y62885D02*
D03*
X614000Y65425D02*
D03*
X613674Y69174D02*
D03*
X735500Y64500D02*
D03*
X614000Y61500D02*
D03*
X611500Y63500D02*
D03*
M02*
