G04*
G04 #@! TF.GenerationSoftware,Altium Limited,Altium Designer,24.5.2 (23)*
G04*
G04 Layer_Physical_Order=2*
G04 Layer_Color=36540*
%FSLAX25Y25*%
%MOIN*%
G70*
G04*
G04 #@! TF.SameCoordinates,49CCBB8D-B978-4CD5-B46F-E993BDE2C4A5*
G04*
G04*
G04 #@! TF.FilePolarity,Positive*
G04*
G01*
G75*
%ADD12C,0.00600*%
%ADD53C,0.27559*%
%ADD54C,0.01811*%
G36*
X1196048Y803D02*
X-58252D01*
Y162583D01*
X500730D01*
X516934Y142496D01*
X516967Y142468D01*
X516991Y142432D01*
X517087Y142369D01*
X517175Y142295D01*
X517216Y142282D01*
X517252Y142258D01*
X517364Y142236D01*
X517474Y142202D01*
X517517Y142206D01*
X517559Y142197D01*
X619921D01*
X619975Y142208D01*
X620030Y142205D01*
X620128Y142238D01*
X620228Y142258D01*
X620274Y142289D01*
X620327Y142307D01*
X620403Y142375D01*
X620489Y142432D01*
X620520Y142478D01*
X620561Y142515D01*
X635784Y162583D01*
X1196048D01*
Y803D01*
D02*
G37*
%LPC*%
G36*
X630813Y95575D02*
X630187D01*
X629608Y95335D01*
X629165Y94892D01*
X628925Y94313D01*
Y93687D01*
X629165Y93108D01*
X629608Y92665D01*
X630187Y92425D01*
X630813D01*
X631392Y92665D01*
X631835Y93108D01*
X632075Y93687D01*
Y94313D01*
X631835Y94892D01*
X631392Y95335D01*
X630813Y95575D01*
D02*
G37*
G36*
X643205Y93910D02*
X642579D01*
X642000Y93670D01*
X641557Y93227D01*
X641317Y92648D01*
Y92022D01*
X641557Y91443D01*
X642000Y91000D01*
X642579Y90760D01*
X643205D01*
X643784Y91000D01*
X644227Y91443D01*
X644467Y92022D01*
Y92648D01*
X644227Y93227D01*
X643784Y93670D01*
X643205Y93910D01*
D02*
G37*
G36*
X632313Y90575D02*
X631687D01*
X631108Y90335D01*
X630665Y89892D01*
X630425Y89313D01*
Y88687D01*
X630665Y88108D01*
X631108Y87665D01*
X631687Y87425D01*
X632313D01*
X632892Y87665D01*
X633335Y88108D01*
X633575Y88687D01*
Y89313D01*
X633335Y89892D01*
X632892Y90335D01*
X632313Y90575D01*
D02*
G37*
G36*
X628747Y89633D02*
X628121D01*
X627542Y89393D01*
X627099Y88950D01*
X626859Y88371D01*
Y87745D01*
X627099Y87166D01*
X627542Y86723D01*
X628121Y86483D01*
X628747D01*
X629326Y86723D01*
X629769Y87166D01*
X630009Y87745D01*
Y88371D01*
X629769Y88950D01*
X629326Y89393D01*
X628747Y89633D01*
D02*
G37*
G36*
X631813Y86575D02*
X631187D01*
X630608Y86335D01*
X630165Y85892D01*
X630091Y85714D01*
X577500D01*
X577227Y85659D01*
X576995Y85505D01*
X552495Y61005D01*
X552341Y60773D01*
X552286Y60500D01*
Y34408D01*
X543805Y25926D01*
X543626Y26000D01*
X543000D01*
X542421Y25760D01*
X541978Y25317D01*
X541739Y24738D01*
Y24112D01*
X541978Y23533D01*
X542421Y23090D01*
X543000Y22850D01*
X543626D01*
X544205Y23090D01*
X544648Y23533D01*
X544888Y24112D01*
Y24738D01*
X544814Y24917D01*
X553505Y33607D01*
X553659Y33839D01*
X553714Y34112D01*
Y60204D01*
X577796Y84286D01*
X627037D01*
X627190Y83917D01*
X627165Y83892D01*
X626925Y83313D01*
Y82687D01*
X627165Y82108D01*
X627608Y81665D01*
X628187Y81425D01*
X628813D01*
X629392Y81665D01*
X629635Y81908D01*
X629974Y81681D01*
X629925Y81564D01*
Y80937D01*
X630165Y80358D01*
X630608Y79915D01*
X631187Y79676D01*
X631813D01*
X632392Y79915D01*
X632835Y80358D01*
X633075Y80937D01*
Y81564D01*
X632835Y82142D01*
X632392Y82586D01*
X631813Y82825D01*
X631187D01*
X630608Y82586D01*
X630365Y82343D01*
X630026Y82569D01*
X630075Y82687D01*
Y83313D01*
X629969Y83568D01*
X630227Y83992D01*
X630276Y83996D01*
X630608Y83665D01*
X631187Y83425D01*
X631813D01*
X632392Y83665D01*
X632835Y84108D01*
X633075Y84687D01*
Y85313D01*
X632835Y85892D01*
X632392Y86335D01*
X631813Y86575D01*
D02*
G37*
G36*
X637313Y81075D02*
X636687D01*
X636108Y80835D01*
X635665Y80392D01*
X635425Y79813D01*
Y79187D01*
X635665Y78608D01*
X636108Y78165D01*
X636687Y77925D01*
X637313D01*
X637892Y78165D01*
X638335Y78608D01*
X638575Y79187D01*
Y79813D01*
X638335Y80392D01*
X637892Y80835D01*
X637313Y81075D01*
D02*
G37*
G36*
X631807Y78923D02*
X631180D01*
X630602Y78684D01*
X630159Y78241D01*
X629919Y77662D01*
Y77035D01*
X630159Y76456D01*
X630602Y76013D01*
X631180Y75774D01*
X631807D01*
X632386Y76013D01*
X632829Y76456D01*
X633069Y77035D01*
Y77662D01*
X632829Y78241D01*
X632386Y78684D01*
X631807Y78923D01*
D02*
G37*
G36*
X637313Y77049D02*
X636687D01*
X636108Y76809D01*
X635665Y76366D01*
X635425Y75787D01*
Y75160D01*
X635665Y74582D01*
X636108Y74139D01*
X636687Y73899D01*
X637313D01*
X637892Y74139D01*
X638335Y74582D01*
X638575Y75160D01*
Y75787D01*
X638335Y76366D01*
X637892Y76809D01*
X637313Y77049D01*
D02*
G37*
G36*
X629375Y76214D02*
X577500D01*
X577227Y76159D01*
X576995Y76005D01*
X556182Y55191D01*
X556027Y54960D01*
X555973Y54687D01*
Y25834D01*
X555795Y25760D01*
X555352Y25317D01*
X555112Y24738D01*
Y24112D01*
X555352Y23533D01*
X555795Y23090D01*
X556374Y22850D01*
X557000D01*
X557579Y23090D01*
X558022Y23533D01*
X558261Y24112D01*
Y24738D01*
X558022Y25317D01*
X557579Y25760D01*
X557401Y25834D01*
Y54391D01*
X577796Y74786D01*
X629079D01*
X629999Y73866D01*
X629925Y73688D01*
Y73062D01*
X630165Y72483D01*
X630608Y72040D01*
X631187Y71800D01*
X631813D01*
X632392Y72040D01*
X632835Y72483D01*
X633075Y73062D01*
Y73688D01*
X632835Y74267D01*
X632392Y74710D01*
X631813Y74950D01*
X631187D01*
X631008Y74876D01*
X629880Y76005D01*
X629648Y76159D01*
X629375Y76214D01*
D02*
G37*
G36*
X818313Y74575D02*
X817687D01*
X817108Y74335D01*
X816665Y73892D01*
X816425Y73313D01*
Y72687D01*
X816665Y72108D01*
X817108Y71665D01*
X817687Y71425D01*
X818313D01*
X818892Y71665D01*
X819335Y72108D01*
X819575Y72687D01*
Y73313D01*
X819335Y73892D01*
X818892Y74335D01*
X818313Y74575D01*
D02*
G37*
G36*
X637313Y73075D02*
X636687D01*
X636108Y72835D01*
X635665Y72392D01*
X635425Y71813D01*
Y71187D01*
X635665Y70608D01*
X636108Y70165D01*
X636687Y69925D01*
X637313D01*
X637892Y70165D01*
X638335Y70608D01*
X638575Y71187D01*
Y71813D01*
X638335Y72392D01*
X637892Y72835D01*
X637313Y73075D01*
D02*
G37*
G36*
X834313Y71575D02*
X833687D01*
X833108Y71335D01*
X832665Y70892D01*
X832425Y70313D01*
Y69687D01*
X832665Y69108D01*
X833108Y68665D01*
X833687Y68425D01*
X834313D01*
X834892Y68665D01*
X835335Y69108D01*
X835575Y69687D01*
Y70313D01*
X835335Y70892D01*
X834892Y71335D01*
X834313Y71575D01*
D02*
G37*
G36*
X669813Y69075D02*
X669187D01*
X668608Y68835D01*
X668165Y68392D01*
X667925Y67813D01*
Y67187D01*
X668165Y66608D01*
X668608Y66165D01*
X669187Y65925D01*
X669813D01*
X670392Y66165D01*
X670835Y66608D01*
X671075Y67187D01*
Y67813D01*
X670835Y68392D01*
X670392Y68835D01*
X669813Y69075D01*
D02*
G37*
G36*
X825813Y68575D02*
X825187D01*
X824608Y68335D01*
X824165Y67892D01*
X823925Y67313D01*
Y66687D01*
X824165Y66108D01*
X824608Y65665D01*
X825187Y65425D01*
X825813D01*
X826392Y65665D01*
X826835Y66108D01*
X827075Y66687D01*
Y67313D01*
X826835Y67892D01*
X826392Y68335D01*
X825813Y68575D01*
D02*
G37*
G36*
X611813Y72825D02*
X611187D01*
X610608Y72585D01*
X610165Y72142D01*
X609925Y71564D01*
Y70937D01*
X610165Y70358D01*
X610608Y69915D01*
X611187Y69676D01*
X611502D01*
X611851Y69320D01*
X611824Y69082D01*
X611813Y69075D01*
X611187D01*
X610608Y68835D01*
X610165Y68392D01*
X609925Y67813D01*
Y67187D01*
X610165Y66608D01*
X610608Y66165D01*
X611187Y65925D01*
X611813D01*
X612123Y66053D01*
X612429Y65747D01*
X612425Y65738D01*
Y65254D01*
X612138Y65005D01*
X612056Y64974D01*
X611813Y65075D01*
X611187D01*
X610608Y64835D01*
X610165Y64392D01*
X609925Y63813D01*
Y63187D01*
X610165Y62608D01*
X610608Y62165D01*
X611187Y61925D01*
X611813D01*
X612085Y62038D01*
X612241Y61935D01*
X612425Y61746D01*
Y61187D01*
X612665Y60608D01*
X613108Y60165D01*
X613687Y59925D01*
X614313D01*
X614892Y60165D01*
X615335Y60608D01*
X615575Y61187D01*
Y61813D01*
X615335Y62392D01*
X614892Y62835D01*
X614313Y63075D01*
X613687D01*
X613415Y62962D01*
X613259Y63065D01*
X613075Y63254D01*
Y63670D01*
X613362Y63920D01*
X613444Y63950D01*
X613687Y63850D01*
X614313D01*
X614892Y64090D01*
X615335Y64533D01*
X615575Y65112D01*
Y65738D01*
X615335Y66317D01*
X614892Y66760D01*
X614313Y67000D01*
X613687D01*
X613551Y66943D01*
X613207Y67224D01*
X613230Y67512D01*
X613361Y67599D01*
X613988D01*
X614566Y67839D01*
X615009Y68282D01*
X615249Y68861D01*
Y69488D01*
X615009Y70066D01*
X614566Y70509D01*
X613988Y70749D01*
X613430D01*
X613297Y70819D01*
X613075Y71064D01*
Y71564D01*
X612835Y72142D01*
X612392Y72585D01*
X611813Y72825D01*
D02*
G37*
G36*
X836188Y66575D02*
X835561D01*
X834983Y66335D01*
X834540Y65892D01*
X834300Y65313D01*
Y64687D01*
X834540Y64108D01*
X834983Y63665D01*
X835561Y63425D01*
X836188D01*
X836767Y63665D01*
X837210Y64108D01*
X837450Y64687D01*
Y65313D01*
X837210Y65892D01*
X836767Y66335D01*
X836188Y66575D01*
D02*
G37*
G36*
X823813Y64075D02*
X823187D01*
X822608Y63835D01*
X822165Y63392D01*
X821925Y62813D01*
Y62187D01*
X822165Y61608D01*
X822608Y61165D01*
X823187Y60925D01*
X823813D01*
X824392Y61165D01*
X824835Y61608D01*
X825075Y62187D01*
Y62813D01*
X824835Y63392D01*
X824392Y63835D01*
X823813Y64075D01*
D02*
G37*
G36*
X643813Y63075D02*
X643187D01*
X642608Y62835D01*
X642165Y62392D01*
X641925Y61813D01*
Y61187D01*
X642165Y60608D01*
X642608Y60165D01*
X643187Y59925D01*
X643813D01*
X644392Y60165D01*
X644835Y60608D01*
X645075Y61187D01*
Y61813D01*
X644835Y62392D01*
X644392Y62835D01*
X643813Y63075D01*
D02*
G37*
G36*
X838063Y61575D02*
X837436D01*
X836858Y61335D01*
X836415Y60892D01*
X836175Y60313D01*
Y59687D01*
X836415Y59108D01*
X836858Y58665D01*
X837436Y58425D01*
X838063D01*
X838642Y58665D01*
X839085Y59108D01*
X839324Y59687D01*
Y60313D01*
X839085Y60892D01*
X838642Y61335D01*
X838063Y61575D01*
D02*
G37*
G36*
X806313Y56075D02*
X805687D01*
X805108Y55835D01*
X804665Y55392D01*
X804425Y54813D01*
Y54187D01*
X804665Y53608D01*
X805108Y53165D01*
X805687Y52925D01*
X806313D01*
X806892Y53165D01*
X807335Y53608D01*
X807575Y54187D01*
Y54813D01*
X807335Y55392D01*
X806892Y55835D01*
X806313Y56075D01*
D02*
G37*
G36*
X839938Y58075D02*
X839311D01*
X838732Y57835D01*
X838289Y57392D01*
X838050Y56813D01*
Y56187D01*
X838289Y55608D01*
X838732Y55165D01*
X839311Y54925D01*
X839938D01*
X840270Y55063D01*
X840497Y54724D01*
X840165Y54392D01*
X839925Y53813D01*
Y53187D01*
X840165Y52608D01*
X840608Y52165D01*
X841187Y51925D01*
X841813D01*
X842392Y52165D01*
X842835Y52608D01*
X843075Y53187D01*
Y53813D01*
X842835Y54392D01*
X842392Y54835D01*
X841813Y55075D01*
X841187D01*
X840854Y54937D01*
X840628Y55276D01*
X840959Y55608D01*
X841199Y56187D01*
Y56813D01*
X840959Y57392D01*
X840516Y57835D01*
X839938Y58075D01*
D02*
G37*
G36*
X820188Y58422D02*
X819561D01*
X818983Y58182D01*
X818540Y57739D01*
X818300Y57160D01*
Y56534D01*
X818540Y55955D01*
X818983Y55512D01*
X819561Y55272D01*
X819802D01*
X819813Y55272D01*
X819850Y54887D01*
X819824Y54877D01*
X819271Y54648D01*
X818828Y54205D01*
X818588Y53626D01*
Y52999D01*
X818828Y52421D01*
X819271Y51977D01*
X819850Y51738D01*
X820476D01*
X821055Y51977D01*
X821498Y52421D01*
X821738Y52999D01*
Y53626D01*
X821498Y54205D01*
X821055Y54648D01*
X820476Y54887D01*
X820236D01*
X820225Y54887D01*
X820188Y55272D01*
X820214Y55283D01*
X820767Y55512D01*
X821210Y55955D01*
X821450Y56534D01*
Y57160D01*
X821210Y57739D01*
X820767Y58182D01*
X820188Y58422D01*
D02*
G37*
G36*
X432313Y53575D02*
X431687D01*
X431108Y53335D01*
X430665Y52892D01*
X430425Y52313D01*
Y51687D01*
X430665Y51108D01*
X431108Y50665D01*
X431687Y50425D01*
X432313D01*
X432892Y50665D01*
X433335Y51108D01*
X433575Y51687D01*
Y52313D01*
X433335Y52892D01*
X432892Y53335D01*
X432313Y53575D01*
D02*
G37*
G36*
X831813Y52575D02*
X831187D01*
X830608Y52335D01*
X830165Y51892D01*
X829925Y51313D01*
Y50687D01*
X830165Y50108D01*
X830608Y49665D01*
X831187Y49425D01*
X831813D01*
X832392Y49665D01*
X832835Y50108D01*
X833075Y50687D01*
Y51313D01*
X832835Y51892D01*
X832392Y52335D01*
X831813Y52575D01*
D02*
G37*
G36*
X827813Y50575D02*
X827187D01*
X826608Y50335D01*
X826165Y49892D01*
X825925Y49313D01*
Y48687D01*
X826165Y48108D01*
X826608Y47665D01*
X827187Y47425D01*
X827556D01*
X827839Y47339D01*
X827925Y47056D01*
Y46687D01*
X828165Y46108D01*
X828608Y45665D01*
X829187Y45425D01*
X829813D01*
X830392Y45665D01*
X830835Y46108D01*
X831075Y46687D01*
Y47313D01*
X830835Y47892D01*
X830392Y48335D01*
X829813Y48575D01*
X829444D01*
X829161Y48661D01*
X829075Y48944D01*
Y49313D01*
X828835Y49892D01*
X828392Y50335D01*
X827813Y50575D01*
D02*
G37*
G36*
X769500Y126933D02*
X684000D01*
X683694Y126806D01*
X683567Y126500D01*
Y43000D01*
X683694Y42694D01*
X684000Y42567D01*
X755321D01*
X771194Y26694D01*
X771500Y26567D01*
X786000D01*
X786306Y26694D01*
X786433Y27000D01*
Y49000D01*
X786306Y49306D01*
X769933Y65679D01*
Y126500D01*
X769806Y126806D01*
X769500Y126933D01*
D02*
G37*
G36*
X584813Y26075D02*
X584187D01*
X583608Y25835D01*
X583165Y25392D01*
X582925Y24813D01*
Y24187D01*
X583038Y23915D01*
X582935Y23758D01*
X582746Y23575D01*
X582254D01*
X582065Y23758D01*
X581962Y23915D01*
X582075Y24187D01*
Y24813D01*
X581835Y25392D01*
X581392Y25835D01*
X580813Y26075D01*
X580187D01*
X579608Y25835D01*
X579165Y25392D01*
X578925Y24813D01*
Y24187D01*
X579038Y23915D01*
X578935Y23758D01*
X578746Y23575D01*
X578187D01*
X577608Y23335D01*
X577165Y22892D01*
X576925Y22313D01*
Y21687D01*
X577165Y21108D01*
X577608Y20665D01*
X578187Y20425D01*
X578813D01*
X579392Y20665D01*
X579835Y21108D01*
X580075Y21687D01*
Y22313D01*
X579962Y22585D01*
X580065Y22741D01*
X580254Y22925D01*
X580746D01*
X580935Y22741D01*
X581038Y22585D01*
X580925Y22313D01*
Y21687D01*
X581165Y21108D01*
X581608Y20665D01*
X582187Y20425D01*
X582813D01*
X583392Y20665D01*
X583835Y21108D01*
X584075Y21687D01*
Y22313D01*
X583962Y22585D01*
X584065Y22741D01*
X584254Y22925D01*
X584813D01*
X585392Y23165D01*
X585835Y23608D01*
X586075Y24187D01*
Y24813D01*
X585835Y25392D01*
X585392Y25835D01*
X584813Y26075D01*
D02*
G37*
G36*
X529813Y26575D02*
X529187D01*
X528608Y26335D01*
X528165Y25892D01*
X527925Y25313D01*
Y24687D01*
X528165Y24108D01*
X528608Y23665D01*
X529187Y23425D01*
X529813D01*
X530392Y23665D01*
X530835Y24108D01*
X531075Y24687D01*
Y25313D01*
X530835Y25892D01*
X530392Y26335D01*
X529813Y26575D01*
D02*
G37*
G36*
X600813Y26075D02*
X600187D01*
X599608Y25835D01*
X599165Y25392D01*
X598925Y24813D01*
Y24187D01*
X599165Y23608D01*
X599608Y23165D01*
X600187Y22925D01*
X600813D01*
X601392Y23165D01*
X601835Y23608D01*
X602075Y24187D01*
Y24813D01*
X601835Y25392D01*
X601392Y25835D01*
X600813Y26075D01*
D02*
G37*
G36*
X596813D02*
X596187D01*
X595608Y25835D01*
X595165Y25392D01*
X594925Y24813D01*
Y24187D01*
X595165Y23608D01*
X595608Y23165D01*
X596187Y22925D01*
X596813D01*
X597392Y23165D01*
X597835Y23608D01*
X598075Y24187D01*
Y24813D01*
X597835Y25392D01*
X597392Y25835D01*
X596813Y26075D01*
D02*
G37*
G36*
X592813D02*
X592187D01*
X591608Y25835D01*
X591165Y25392D01*
X590925Y24813D01*
Y24187D01*
X591165Y23608D01*
X591608Y23165D01*
X592187Y22925D01*
X592813D01*
X593392Y23165D01*
X593835Y23608D01*
X594075Y24187D01*
Y24813D01*
X593835Y25392D01*
X593392Y25835D01*
X592813Y26075D01*
D02*
G37*
G36*
X588813D02*
X588187D01*
X587608Y25835D01*
X587165Y25392D01*
X586925Y24813D01*
Y24187D01*
X587165Y23608D01*
X587608Y23165D01*
X588187Y22925D01*
X588813D01*
X589392Y23165D01*
X589835Y23608D01*
X590075Y24187D01*
Y24813D01*
X589835Y25392D01*
X589392Y25835D01*
X588813Y26075D01*
D02*
G37*
G36*
X573313Y25575D02*
X572687D01*
X572108Y25335D01*
X571665Y24892D01*
X571425Y24313D01*
Y23687D01*
X571665Y23108D01*
X572108Y22665D01*
X572687Y22425D01*
X573313D01*
X573892Y22665D01*
X574335Y23108D01*
X574575Y23687D01*
Y24313D01*
X574335Y24892D01*
X573892Y25335D01*
X573313Y25575D01*
D02*
G37*
%LPD*%
G36*
X769500Y65500D02*
X786000Y49000D01*
Y27000D01*
X771500D01*
X755500Y43000D01*
X684000D01*
Y126500D01*
X769500D01*
Y65500D01*
D02*
G37*
%LPC*%
G36*
X761000Y118433D02*
X692500D01*
X692194Y118306D01*
X692067Y118000D01*
Y51500D01*
X692194Y51194D01*
X692500Y51067D01*
X759821D01*
X764194Y46694D01*
X770067Y40821D01*
Y38000D01*
X770194Y37694D01*
X773694Y34194D01*
X774000Y34067D01*
X779500D01*
X779806Y34194D01*
X779933Y34500D01*
Y46000D01*
Y47000D01*
X779806Y47306D01*
X761433Y65679D01*
Y118000D01*
X761306Y118306D01*
X761000Y118433D01*
D02*
G37*
%LPD*%
G36*
Y65500D02*
X779500Y47000D01*
Y46000D01*
Y34500D01*
X774000D01*
X770500Y38000D01*
Y41000D01*
X764500Y47000D01*
X760000Y51500D01*
X692500D01*
Y118000D01*
X761000D01*
Y65500D01*
D02*
G37*
%LPC*%
G36*
X702389Y110151D02*
X701762D01*
X701184Y109911D01*
X700741Y109468D01*
X700501Y108889D01*
Y108262D01*
X700741Y107684D01*
X701184Y107241D01*
X701762Y107001D01*
X702389D01*
X702968Y107241D01*
X703411Y107684D01*
X703651Y108262D01*
Y108889D01*
X703411Y109468D01*
X702968Y109911D01*
X702389Y110151D01*
D02*
G37*
G36*
X751313Y109075D02*
X750687D01*
X750108Y108835D01*
X749665Y108392D01*
X749425Y107813D01*
Y107187D01*
X749665Y106608D01*
X750108Y106165D01*
X750687Y105925D01*
X751313D01*
X751892Y106165D01*
X752335Y106608D01*
X752575Y107187D01*
Y107813D01*
X752335Y108392D01*
X751892Y108835D01*
X751313Y109075D01*
D02*
G37*
G36*
X729313Y108575D02*
X728687D01*
X728108Y108335D01*
X727665Y107892D01*
X727425Y107313D01*
Y106687D01*
X727665Y106108D01*
X728108Y105665D01*
X728687Y105425D01*
X729313D01*
X729892Y105665D01*
X730335Y106108D01*
X730575Y106687D01*
Y107313D01*
X730335Y107892D01*
X729892Y108335D01*
X729313Y108575D01*
D02*
G37*
G36*
X707813Y106075D02*
X707187D01*
X706608Y105835D01*
X706165Y105392D01*
X705925Y104813D01*
Y104187D01*
X706038Y103915D01*
X705935Y103759D01*
X705746Y103575D01*
X705254D01*
X705065Y103759D01*
X704962Y103915D01*
X705075Y104187D01*
Y104813D01*
X704835Y105392D01*
X704392Y105835D01*
X703813Y106075D01*
X703187D01*
X702608Y105835D01*
X702165Y105392D01*
X701925Y104813D01*
Y104187D01*
X702165Y103608D01*
X702608Y103165D01*
X703187Y102925D01*
X703746D01*
X703935Y102742D01*
X704038Y102585D01*
X703925Y102313D01*
Y101687D01*
X704165Y101108D01*
X704608Y100665D01*
X705187Y100425D01*
X705813D01*
X706392Y100665D01*
X706835Y101108D01*
X707075Y101687D01*
Y102313D01*
X706962Y102585D01*
X707065Y102742D01*
X707254Y102925D01*
X707746D01*
X707935Y102742D01*
X708038Y102585D01*
X707925Y102313D01*
Y101687D01*
X708165Y101108D01*
X708608Y100665D01*
X709187Y100425D01*
X709813D01*
X710392Y100665D01*
X710835Y101108D01*
X711075Y101687D01*
Y102246D01*
X711259Y102435D01*
X711415Y102538D01*
X711687Y102425D01*
X712313D01*
X712892Y102665D01*
X713335Y103108D01*
X713575Y103687D01*
Y104313D01*
X713335Y104892D01*
X712892Y105335D01*
X712313Y105575D01*
X711687D01*
X711108Y105335D01*
X710665Y104892D01*
X710425Y104313D01*
Y103754D01*
X710241Y103565D01*
X710085Y103462D01*
X709813Y103575D01*
X709254D01*
X709065Y103759D01*
X708962Y103915D01*
X709075Y104187D01*
Y104813D01*
X708835Y105392D01*
X708392Y105835D01*
X707813Y106075D01*
D02*
G37*
G36*
X736813Y104075D02*
X736187D01*
X735608Y103835D01*
X735165Y103392D01*
X734925Y102813D01*
Y102187D01*
X735165Y101608D01*
X735608Y101165D01*
X736187Y100925D01*
X736813D01*
X737392Y101165D01*
X737835Y101608D01*
X738075Y102187D01*
Y102813D01*
X737835Y103392D01*
X737392Y103835D01*
X736813Y104075D01*
D02*
G37*
G36*
X751300Y103200D02*
X750673D01*
X750095Y102960D01*
X749652Y102517D01*
X749412Y101938D01*
Y101312D01*
X749652Y100733D01*
X750095Y100290D01*
X750673Y100050D01*
X751300D01*
X751879Y100290D01*
X752322Y100733D01*
X752562Y101312D01*
Y101938D01*
X752322Y102517D01*
X751879Y102960D01*
X751300Y103200D01*
D02*
G37*
G36*
X735175Y110075D02*
X734548D01*
X733969Y109835D01*
X733526Y109392D01*
X733287Y108813D01*
Y108187D01*
X733526Y107608D01*
X733791Y107344D01*
X733704Y106875D01*
X733608Y106835D01*
X733165Y106392D01*
X732925Y105813D01*
Y105187D01*
X733165Y104608D01*
X733608Y104165D01*
X734187Y103925D01*
X734813D01*
X735392Y104165D01*
X735835Y104608D01*
X735912Y104795D01*
X736384Y104889D01*
X736608Y104665D01*
X737187Y104425D01*
X737813D01*
X738392Y104665D01*
X738665Y104392D01*
X738425Y103813D01*
Y103187D01*
X738665Y102608D01*
X739108Y102165D01*
X739687Y101925D01*
X740313D01*
X740892Y102165D01*
X741165Y101892D01*
X740925Y101313D01*
Y100944D01*
X740839Y100661D01*
X740556Y100575D01*
X740187D01*
X739608Y100335D01*
X739165Y99892D01*
X738925Y99313D01*
Y98687D01*
X739165Y98108D01*
X739608Y97665D01*
X740187Y97425D01*
X740746D01*
X740935Y97241D01*
X741038Y97085D01*
X740925Y96813D01*
Y96187D01*
X741165Y95608D01*
X741608Y95165D01*
X742187Y94925D01*
X742813D01*
X743392Y95165D01*
X743835Y95608D01*
X744075Y96187D01*
Y96813D01*
X743835Y97392D01*
X743392Y97835D01*
X742813Y98075D01*
X742254D01*
X742065Y98259D01*
X741962Y98415D01*
X742075Y98687D01*
Y99056D01*
X742161Y99339D01*
X742444Y99425D01*
X742813D01*
X743056Y99526D01*
X743071Y99522D01*
X743425Y99246D01*
Y98812D01*
X743665Y98233D01*
X744108Y97790D01*
X744687Y97550D01*
X745313D01*
X745892Y97790D01*
X746248Y98146D01*
X746595Y98129D01*
X746706Y98084D01*
X746834Y97777D01*
X747277Y97334D01*
X747856Y97094D01*
X748482D01*
X749061Y97334D01*
X749504Y97777D01*
X749744Y98356D01*
Y98982D01*
X749504Y99561D01*
X749061Y100004D01*
X748482Y100244D01*
X747856D01*
X747277Y100004D01*
X746921Y99648D01*
X746573Y99665D01*
X746462Y99710D01*
X746335Y100017D01*
X745892Y100460D01*
X745313Y100700D01*
X744687D01*
X744444Y100600D01*
X744429Y100603D01*
X744075Y100880D01*
Y101313D01*
X743835Y101892D01*
X743392Y102335D01*
X742813Y102575D01*
X742187D01*
X741608Y102335D01*
X741335Y102608D01*
X741575Y103187D01*
Y103813D01*
X741335Y104392D01*
X740892Y104835D01*
X740313Y105075D01*
X739687D01*
X739108Y104835D01*
X738835Y105108D01*
X739075Y105687D01*
Y106313D01*
X738835Y106892D01*
X738392Y107335D01*
X737813Y107575D01*
X737187D01*
X736608Y107335D01*
X736165Y106892D01*
X735867Y106912D01*
X735904Y107315D01*
X736197Y107608D01*
X736436Y108187D01*
Y108813D01*
X736197Y109392D01*
X735753Y109835D01*
X735175Y110075D01*
D02*
G37*
G36*
X716313Y98075D02*
X715687D01*
X715108Y97835D01*
X714665Y97392D01*
X714425Y96813D01*
Y96505D01*
X714025Y96237D01*
X713813Y96325D01*
X713187D01*
X712608Y96086D01*
X712165Y95642D01*
X711925Y95064D01*
Y94437D01*
X712165Y93858D01*
X712608Y93415D01*
X713187Y93176D01*
X713813D01*
X714392Y93415D01*
X714835Y93858D01*
X715075Y94437D01*
Y94746D01*
X715475Y95013D01*
X715687Y94925D01*
X716313D01*
X716892Y95165D01*
X717335Y95608D01*
X717575Y96187D01*
Y96813D01*
X717335Y97392D01*
X716892Y97835D01*
X716313Y98075D01*
D02*
G37*
G36*
X704765Y96401D02*
X704138D01*
X703559Y96161D01*
X703116Y95718D01*
X702877Y95139D01*
Y94513D01*
X703116Y93934D01*
X703559Y93491D01*
X704138Y93251D01*
X704765D01*
X705343Y93491D01*
X705786Y93934D01*
X706026Y94513D01*
Y95139D01*
X705786Y95718D01*
X705343Y96161D01*
X704765Y96401D01*
D02*
G37*
G36*
X709807Y96200D02*
X709181D01*
X708602Y95960D01*
X708159Y95517D01*
X707919Y94938D01*
Y94312D01*
X708159Y93733D01*
X708602Y93290D01*
X709181Y93050D01*
X709807D01*
X710386Y93290D01*
X710829Y93733D01*
X711069Y94312D01*
Y94938D01*
X710829Y95517D01*
X710386Y95960D01*
X709807Y96200D01*
D02*
G37*
G36*
X747300Y96062D02*
X746674D01*
X746095Y95822D01*
X745652Y95379D01*
X745412Y94800D01*
Y94174D01*
X745652Y93595D01*
X746095Y93152D01*
X746674Y92912D01*
X747300D01*
X747879Y93152D01*
X748322Y93595D01*
X748562Y94174D01*
Y94800D01*
X748322Y95379D01*
X747879Y95822D01*
X747300Y96062D01*
D02*
G37*
G36*
X744313Y92324D02*
X743687D01*
X743108Y92085D01*
X742665Y91642D01*
X742425Y91063D01*
Y90436D01*
X742665Y89858D01*
X743108Y89415D01*
X743687Y89175D01*
X744313D01*
X744892Y89415D01*
X745335Y89858D01*
X745575Y90436D01*
Y91063D01*
X745335Y91642D01*
X744892Y92085D01*
X744313Y92324D01*
D02*
G37*
G36*
X738813Y93075D02*
X738187D01*
X737608Y92835D01*
X737165Y92392D01*
X736925Y91813D01*
Y91187D01*
X737165Y90608D01*
X737608Y90165D01*
X738187Y89925D01*
X738371D01*
X738481Y89751D01*
X738568Y89525D01*
X738350Y89000D01*
Y88374D01*
X738590Y87795D01*
X739033Y87352D01*
X739612Y87112D01*
X740239D01*
X740817Y87352D01*
X741260Y87795D01*
X741500Y88374D01*
Y89000D01*
X741260Y89579D01*
X740817Y90022D01*
X740239Y90262D01*
X740054D01*
X739944Y90435D01*
X739857Y90662D01*
X740075Y91187D01*
Y91813D01*
X739835Y92392D01*
X739392Y92835D01*
X738813Y93075D01*
D02*
G37*
G36*
X744313Y88575D02*
X743687D01*
X743108Y88335D01*
X742665Y87892D01*
X742425Y87313D01*
Y86687D01*
X742665Y86108D01*
X743108Y85665D01*
X743687Y85425D01*
X744313D01*
X744892Y85665D01*
X745335Y86108D01*
X745575Y86687D01*
Y87313D01*
X745335Y87892D01*
X744892Y88335D01*
X744313Y88575D01*
D02*
G37*
G36*
X707313Y87575D02*
X706687D01*
X706108Y87335D01*
X705665Y86892D01*
X705425Y86313D01*
Y85687D01*
X705665Y85108D01*
X706108Y84665D01*
X706687Y84425D01*
X707313D01*
X707892Y84665D01*
X708335Y85108D01*
X708575Y85687D01*
Y86313D01*
X708335Y86892D01*
X707892Y87335D01*
X707313Y87575D01*
D02*
G37*
G36*
X730313Y77075D02*
X729687D01*
X729108Y76835D01*
X728665Y76392D01*
X728425Y75813D01*
Y75368D01*
X728025Y75202D01*
X727892Y75335D01*
X727313Y75575D01*
X726687D01*
X726108Y75335D01*
X725665Y74892D01*
X725425Y74313D01*
Y73687D01*
X725665Y73108D01*
X726108Y72665D01*
X726687Y72425D01*
X727313D01*
X727892Y72665D01*
X728335Y73108D01*
X728575Y73687D01*
Y74132D01*
X728975Y74298D01*
X729108Y74165D01*
X729687Y73925D01*
X730313D01*
X730892Y74165D01*
X731335Y74608D01*
X731575Y75187D01*
Y75813D01*
X731335Y76392D01*
X730892Y76835D01*
X730313Y77075D01*
D02*
G37*
G36*
X745813Y75575D02*
X745187D01*
X744608Y75335D01*
X744165Y74892D01*
X743925Y74313D01*
Y73687D01*
X744165Y73108D01*
X744608Y72665D01*
X745187Y72425D01*
X745813D01*
X746392Y72665D01*
X746835Y73108D01*
X747075Y73687D01*
Y74313D01*
X746835Y74892D01*
X746392Y75335D01*
X745813Y75575D01*
D02*
G37*
G36*
X723313D02*
X722687D01*
X722108Y75335D01*
X721665Y74892D01*
X721425Y74313D01*
Y73687D01*
X721665Y73108D01*
X722108Y72665D01*
X722687Y72425D01*
X723313D01*
X723892Y72665D01*
X724335Y73108D01*
X724575Y73687D01*
Y74313D01*
X724335Y74892D01*
X723892Y75335D01*
X723313Y75575D01*
D02*
G37*
G36*
X719313D02*
X718687D01*
X718108Y75335D01*
X717665Y74892D01*
X717425Y74313D01*
Y73687D01*
X717665Y73108D01*
X718108Y72665D01*
X718687Y72425D01*
X719313D01*
X719892Y72665D01*
X720335Y73108D01*
X720575Y73687D01*
Y74313D01*
X720335Y74892D01*
X719892Y75335D01*
X719313Y75575D01*
D02*
G37*
G36*
X714813D02*
X714187D01*
X713608Y75335D01*
X713165Y74892D01*
X712925Y74313D01*
Y73687D01*
X713165Y73108D01*
X713608Y72665D01*
X714187Y72425D01*
X714813D01*
X715392Y72665D01*
X715835Y73108D01*
X716075Y73687D01*
Y74313D01*
X715835Y74892D01*
X715392Y75335D01*
X714813Y75575D01*
D02*
G37*
G36*
X725313Y72575D02*
X724687D01*
X724108Y72335D01*
X723665Y71892D01*
X723425Y71313D01*
Y70687D01*
X723665Y70108D01*
X724108Y69665D01*
X724687Y69425D01*
X725313D01*
X725892Y69665D01*
X726335Y70108D01*
X726575Y70687D01*
Y71313D01*
X726335Y71892D01*
X725892Y72335D01*
X725313Y72575D01*
D02*
G37*
G36*
X721313D02*
X720687D01*
X720108Y72335D01*
X719665Y71892D01*
X719425Y71313D01*
Y70687D01*
X719665Y70108D01*
X720108Y69665D01*
X720687Y69425D01*
X721313D01*
X721892Y69665D01*
X722335Y70108D01*
X722575Y70687D01*
Y71313D01*
X722335Y71892D01*
X721892Y72335D01*
X721313Y72575D01*
D02*
G37*
G36*
X712188D02*
X711561D01*
X710983Y72335D01*
X710540Y71892D01*
X710300Y71313D01*
Y70687D01*
X710540Y70108D01*
X710983Y69665D01*
X711561Y69425D01*
X712188D01*
X712767Y69665D01*
X713210Y70108D01*
X713450Y70687D01*
Y71313D01*
X713210Y71892D01*
X712767Y72335D01*
X712188Y72575D01*
D02*
G37*
G36*
X705978Y74575D02*
X705351D01*
X704773Y74335D01*
X704329Y73892D01*
X704090Y73313D01*
Y72687D01*
X704154Y72533D01*
X703931Y72200D01*
X703701D01*
X703122Y71960D01*
X702679Y71517D01*
X702439Y70938D01*
Y70616D01*
X702039Y70349D01*
X701821Y70439D01*
X701195D01*
X700616Y70200D01*
X700173Y69757D01*
X699933Y69178D01*
Y68551D01*
X700173Y67972D01*
X700616Y67529D01*
X701195Y67290D01*
X701421D01*
X701515Y67258D01*
X701619Y66802D01*
X701508Y66690D01*
X701185D01*
X700606Y66450D01*
X700163Y66007D01*
X699924Y65428D01*
Y64802D01*
X700163Y64223D01*
X700606Y63780D01*
X701185Y63540D01*
X701256D01*
X701507Y63184D01*
X701392Y62940D01*
X700935D01*
X700356Y62700D01*
X699913Y62257D01*
X699674Y61679D01*
Y61052D01*
X699913Y60473D01*
X700356Y60030D01*
X700935Y59791D01*
X701561D01*
X702140Y60030D01*
X702583Y60473D01*
X702780Y60949D01*
X702955Y61310D01*
X703581D01*
X704160Y61550D01*
X704603Y61993D01*
X704843Y62572D01*
Y63198D01*
X704603Y63777D01*
X704160Y64220D01*
X703581Y64460D01*
X703364D01*
X703073Y64802D01*
X703073Y64829D01*
Y65278D01*
X703679D01*
X704257Y65518D01*
X704700Y65961D01*
X704940Y66540D01*
Y67166D01*
X704700Y67745D01*
X704257Y68188D01*
X703679Y68428D01*
X703452D01*
X703185Y68517D01*
X703164Y68927D01*
X703483Y69141D01*
X703701Y69050D01*
X704327D01*
X704906Y69290D01*
X705349Y69733D01*
X705589Y70312D01*
Y70938D01*
X705525Y71093D01*
X705747Y71425D01*
X705978D01*
X706360Y71584D01*
X706667Y71278D01*
X706550Y70997D01*
Y70370D01*
X706790Y69792D01*
X707233Y69349D01*
X707812Y69109D01*
X708438D01*
X709017Y69349D01*
X709460Y69792D01*
X709700Y70370D01*
Y70997D01*
X709460Y71576D01*
X709017Y72019D01*
X708438Y72258D01*
X707812D01*
X707429Y72100D01*
X707123Y72406D01*
X707239Y72687D01*
Y73313D01*
X707000Y73892D01*
X706557Y74335D01*
X705978Y74575D01*
D02*
G37*
G36*
X716813Y70575D02*
X716187D01*
X715608Y70335D01*
X715165Y69892D01*
X714925Y69313D01*
Y68687D01*
X715165Y68108D01*
X715608Y67665D01*
X716187Y67425D01*
X716813D01*
X717392Y67665D01*
X717835Y68108D01*
X718075Y68687D01*
Y69313D01*
X717835Y69892D01*
X717392Y70335D01*
X716813Y70575D01*
D02*
G37*
G36*
X710313Y67075D02*
X709687D01*
X709108Y66835D01*
X708665Y66392D01*
X708425Y65813D01*
Y65187D01*
X708665Y64608D01*
X709108Y64165D01*
X709687Y63925D01*
X710313D01*
X710892Y64165D01*
X711335Y64608D01*
X711575Y65187D01*
Y65813D01*
X711335Y66392D01*
X710892Y66835D01*
X710313Y67075D01*
D02*
G37*
G36*
X748313Y65575D02*
X747687D01*
X747108Y65335D01*
X746665Y64892D01*
X746425Y64313D01*
Y63687D01*
X746665Y63108D01*
X747108Y62665D01*
X747687Y62425D01*
X748313D01*
X748892Y62665D01*
X749335Y63108D01*
X749575Y63687D01*
Y64313D01*
X749335Y64892D01*
X748892Y65335D01*
X748313Y65575D01*
D02*
G37*
G36*
X735813Y66075D02*
X735187D01*
X734608Y65835D01*
X734165Y65392D01*
X733925Y64813D01*
Y64187D01*
X733895Y64141D01*
X733448D01*
X732869Y63902D01*
X732426Y63459D01*
X732186Y62880D01*
Y62253D01*
X732426Y61675D01*
X732869Y61232D01*
X733448Y60992D01*
X734074D01*
X734653Y61232D01*
X735096Y61675D01*
X735336Y62253D01*
Y62880D01*
X735366Y62925D01*
X735813D01*
X736085Y63038D01*
X736241Y62935D01*
X736425Y62746D01*
Y62187D01*
X736665Y61608D01*
X737108Y61165D01*
X737687Y60925D01*
X738313D01*
X738892Y61165D01*
X739335Y61608D01*
X739575Y62187D01*
Y62813D01*
X739335Y63392D01*
X738892Y63835D01*
X738313Y64075D01*
X737687D01*
X737415Y63962D01*
X737259Y64065D01*
X737075Y64254D01*
Y64813D01*
X736835Y65392D01*
X736392Y65835D01*
X735813Y66075D01*
D02*
G37*
G36*
X716277Y61075D02*
X715651D01*
X715072Y60835D01*
X714629Y60392D01*
X714389Y59813D01*
Y59187D01*
X714629Y58608D01*
X715072Y58165D01*
X715651Y57925D01*
X716277D01*
X716856Y58165D01*
X717299Y58608D01*
X717539Y59187D01*
Y59813D01*
X717299Y60392D01*
X716856Y60835D01*
X716277Y61075D01*
D02*
G37*
%LPD*%
D12*
X556687Y54687D02*
X577500Y75500D01*
X556687Y24425D02*
Y54687D01*
X553000Y34112D02*
Y60500D01*
X543313Y24425D02*
X553000Y34112D01*
Y60500D02*
X577500Y85000D01*
X631500D01*
X577500Y75500D02*
X629375D01*
X631500Y73375D01*
D53*
X1177165Y143701D02*
D03*
Y19685D02*
D03*
X-39370D02*
D03*
Y143701D02*
D03*
D54*
X648500Y95000D02*
D03*
X704451Y94826D02*
D03*
X656500Y73500D02*
D03*
X585000Y22000D02*
D03*
X551000Y37000D02*
D03*
X556687Y24425D02*
D03*
X543313D02*
D03*
X611500Y71250D02*
D03*
X568500Y24000D02*
D03*
X450000Y28500D02*
D03*
X442500Y45634D02*
D03*
X456500Y40500D02*
D03*
X559500Y44500D02*
D03*
X776000Y22500D02*
D03*
X788000Y42500D02*
D03*
X544000Y45000D02*
D03*
X533500Y22500D02*
D03*
X551000Y24000D02*
D03*
X709000Y40000D02*
D03*
X761500Y129000D02*
D03*
X646000Y63500D02*
D03*
X575500Y22000D02*
D03*
X580500Y20000D02*
D03*
X611000Y59500D02*
D03*
X626000Y90000D02*
D03*
X634500Y69500D02*
D03*
X842500Y56000D02*
D03*
X840500Y59500D02*
D03*
X838000Y63000D02*
D03*
X837000Y68500D02*
D03*
X828000Y65000D02*
D03*
X828500Y53000D02*
D03*
X745500Y74000D02*
D03*
X748000Y64000D02*
D03*
X738000Y62500D02*
D03*
X712000Y104000D02*
D03*
X716000Y96500D02*
D03*
X738500Y91500D02*
D03*
X740500Y99000D02*
D03*
X729000Y107000D02*
D03*
X734500Y105500D02*
D03*
X714750Y66500D02*
D03*
X710000Y65500D02*
D03*
X708125Y70684D02*
D03*
X711875Y71000D02*
D03*
X704014Y70625D02*
D03*
X721000Y71000D02*
D03*
X716500Y69000D02*
D03*
X715964Y59500D02*
D03*
X739925Y88687D02*
D03*
X767408Y70168D02*
D03*
X630500Y94000D02*
D03*
X823500Y62500D02*
D03*
X659000Y104500D02*
D03*
X632000Y89000D02*
D03*
X642892Y92335D02*
D03*
X631500Y85000D02*
D03*
Y81250D02*
D03*
X637000Y79500D02*
D03*
Y75474D02*
D03*
X631500Y73375D02*
D03*
X631494Y77349D02*
D03*
X637000Y71500D02*
D03*
X821000Y73000D02*
D03*
X781000Y72000D02*
D03*
X809000Y54000D02*
D03*
X635000Y85000D02*
D03*
X590500Y22000D02*
D03*
X598500D02*
D03*
X594500D02*
D03*
X451000Y57000D02*
D03*
X813500Y43500D02*
D03*
X691500Y41000D02*
D03*
X682000Y114500D02*
D03*
X666500Y67000D02*
D03*
X795000Y78500D02*
D03*
X736500Y102500D02*
D03*
X730000Y75500D02*
D03*
X690500Y63240D02*
D03*
X711500Y45500D02*
D03*
X742500Y46000D02*
D03*
X696228Y122772D02*
D03*
X738000Y120500D02*
D03*
X759000Y123000D02*
D03*
X742500Y96500D02*
D03*
X746987Y94487D02*
D03*
X751000Y107500D02*
D03*
X725000Y45500D02*
D03*
X767510Y84609D02*
D03*
X767500Y110260D02*
D03*
X746093Y109592D02*
D03*
X705500Y102000D02*
D03*
X702076Y108576D02*
D03*
X703000Y86750D02*
D03*
X701500Y77376D02*
D03*
X806000Y54500D02*
D03*
X669500Y67500D02*
D03*
X529500Y25000D02*
D03*
X432000Y52000D02*
D03*
X757500Y116500D02*
D03*
X748169Y98669D02*
D03*
X697000Y53000D02*
D03*
X731500Y60000D02*
D03*
X733761Y62567D02*
D03*
X748000Y61000D02*
D03*
X685647Y66852D02*
D03*
X703365Y66853D02*
D03*
X701508Y68865D02*
D03*
X705665Y73000D02*
D03*
X685647Y84852D02*
D03*
X694500Y115000D02*
D03*
X750987Y101625D02*
D03*
X767510Y98109D02*
D03*
X751000Y65000D02*
D03*
X740500Y93500D02*
D03*
X747500Y75500D02*
D03*
X756500Y57500D02*
D03*
X720000Y120500D02*
D03*
X710000Y122000D02*
D03*
X724500Y121500D02*
D03*
X731500Y108500D02*
D03*
X727500Y109500D02*
D03*
X712000Y107000D02*
D03*
X729000Y78500D02*
D03*
X714500Y99000D02*
D03*
X688000Y103500D02*
D03*
X765500Y38500D02*
D03*
X776000Y39000D02*
D03*
Y46000D02*
D03*
X825500Y67000D02*
D03*
X841500Y53500D02*
D03*
X839624Y56500D02*
D03*
X837750Y60000D02*
D03*
X835875Y65000D02*
D03*
X831500Y51000D02*
D03*
X829500Y47000D02*
D03*
X827500Y49000D02*
D03*
X820163Y53313D02*
D03*
X819875Y56847D02*
D03*
X744000Y90750D02*
D03*
Y87000D02*
D03*
X834000Y70000D02*
D03*
X818000Y73000D02*
D03*
X745000Y99125D02*
D03*
X734861Y108500D02*
D03*
X742500Y101000D02*
D03*
X740000Y103500D02*
D03*
X737500Y106000D02*
D03*
X628434Y88058D02*
D03*
X611500Y67500D02*
D03*
X573000Y24000D02*
D03*
X584500Y24500D02*
D03*
X600500D02*
D03*
X596500D02*
D03*
X592500D02*
D03*
X578500Y22000D02*
D03*
X582500D02*
D03*
X588500Y24500D02*
D03*
X580500D02*
D03*
X707500Y104500D02*
D03*
X709500Y102000D02*
D03*
X703500Y104500D02*
D03*
X709494Y94625D02*
D03*
X713500Y94750D02*
D03*
X707000Y86000D02*
D03*
X714500Y74000D02*
D03*
X725000Y71000D02*
D03*
X727000Y74000D02*
D03*
X723000D02*
D03*
X719000D02*
D03*
X628500Y83000D02*
D03*
X643500Y61500D02*
D03*
X701248Y61365D02*
D03*
X701498Y65115D02*
D03*
X703268Y62885D02*
D03*
X614000Y65425D02*
D03*
X613674Y69174D02*
D03*
X735500Y64500D02*
D03*
X614000Y61500D02*
D03*
X611500Y63500D02*
D03*
M02*
