G04*
G04 #@! TF.GenerationSoftware,Altium Limited,Altium Designer,24.5.2 (23)*
G04*
G04 Layer_Color=8388736*
%FSLAX25Y25*%
%MOIN*%
G70*
G04*
G04 #@! TF.SameCoordinates,F3CFCEC6-EA25-4B68-AFD9-C952AC483B48*
G04*
G04*
G04 #@! TF.FilePolarity,Negative*
G04*
G01*
G75*
%ADD13R,0.01575X0.05906*%
%ADD14C,0.07480*%
%ADD15R,0.07480X0.07480*%
G36*
X61122Y68008D02*
X58366D01*
Y73126D01*
X63878D01*
Y75882D01*
X69587D01*
Y66039D01*
X61122D01*
Y68008D01*
D02*
G37*
G36*
X101870Y75882D02*
X107579D01*
Y73126D01*
X113091D01*
Y68008D01*
X110335D01*
Y66039D01*
X101870D01*
Y75882D01*
D02*
G37*
D13*
X70965Y66039D02*
D03*
X72933D02*
D03*
X74902D02*
D03*
X76870D02*
D03*
X78839D02*
D03*
X80807D02*
D03*
X82776D02*
D03*
X84744D02*
D03*
X86713D02*
D03*
X88681D02*
D03*
X90650D02*
D03*
X92618D02*
D03*
X94587D02*
D03*
X96555D02*
D03*
X98524D02*
D03*
X100492D02*
D03*
D14*
X11728Y11988D02*
D03*
X21728D02*
D03*
X31728D02*
D03*
X41728D02*
D03*
X51728D02*
D03*
X61728D02*
D03*
X71728D02*
D03*
X81728D02*
D03*
X91728D02*
D03*
X101728D02*
D03*
X111728D02*
D03*
X121728D02*
D03*
X131728D02*
D03*
X141728D02*
D03*
X151728D02*
D03*
D15*
X161728D02*
D03*
M02*
