G04*
G04 #@! TF.GenerationSoftware,Altium Limited,Altium Designer,24.5.2 (23)*
G04*
G04 Layer_Physical_Order=1*
G04 Layer_Color=255*
%FSLAX25Y25*%
%MOIN*%
G70*
G04*
G04 #@! TF.SameCoordinates,12BA584B-DC6B-4CAC-9C40-510E10996502*
G04*
G04*
G04 #@! TF.FilePolarity,Positive*
G04*
G01*
G75*
%ADD12C,0.01000*%
%ADD16R,0.01181X0.05512*%
%ADD17R,0.03937X0.03937*%
%ADD18R,0.06890X0.06890*%
%ADD19C,0.06890*%
G36*
X172426Y803D02*
X803D01*
Y93685D01*
X172426D01*
Y803D01*
D02*
G37*
%LPC*%
G36*
X107185Y76029D02*
X102264D01*
X101881Y75871D01*
X101723Y75488D01*
Y69737D01*
X101583Y69295D01*
X101223Y69295D01*
X73183D01*
Y66039D01*
X72683D01*
Y69295D01*
X70234D01*
X69874Y69295D01*
X69734Y69737D01*
Y75488D01*
X69576Y75871D01*
X69193Y76029D01*
X64272D01*
X63889Y75871D01*
X63731Y75488D01*
Y73273D01*
X58760D01*
X58377Y73115D01*
X58219Y72732D01*
Y68402D01*
X58377Y68019D01*
X58760Y67860D01*
X60975D01*
Y66433D01*
X61133Y66050D01*
X61516Y65892D01*
X69193D01*
X69374Y65967D01*
X69874Y65696D01*
Y64803D01*
X63524D01*
X63133Y64725D01*
X62803Y64504D01*
X13702Y15404D01*
X13251Y15664D01*
X12248Y15933D01*
X11209D01*
X10206Y15664D01*
X9306Y15145D01*
X8572Y14410D01*
X8052Y13511D01*
X7784Y12507D01*
Y11469D01*
X8052Y10465D01*
X8572Y9566D01*
X9306Y8832D01*
X10206Y8312D01*
X11209Y8043D01*
X12248D01*
X13251Y8312D01*
X14151Y8832D01*
X14885Y9566D01*
X15404Y10465D01*
X15673Y11469D01*
Y12507D01*
X15404Y13511D01*
X15144Y13962D01*
X63946Y62764D01*
X70355D01*
X70562Y62264D01*
X23702Y15404D01*
X23251Y15664D01*
X22248Y15933D01*
X21978D01*
Y12238D01*
X25673D01*
Y12507D01*
X25404Y13511D01*
X25144Y13962D01*
X73382Y62200D01*
X73882Y61993D01*
Y55584D01*
X33702Y15404D01*
X33251Y15664D01*
X32248Y15933D01*
X31209D01*
X30206Y15664D01*
X29306Y15145D01*
X28572Y14410D01*
X28052Y13511D01*
X27784Y12507D01*
Y11469D01*
X28052Y10465D01*
X28572Y9566D01*
X29306Y8832D01*
X30206Y8312D01*
X31209Y8043D01*
X32248D01*
X33251Y8312D01*
X34151Y8832D01*
X34885Y9566D01*
X35404Y10465D01*
X35673Y11469D01*
Y12507D01*
X35404Y13511D01*
X35144Y13962D01*
X75350Y54168D01*
X75850Y53961D01*
Y47552D01*
X43702Y15404D01*
X43251Y15664D01*
X42248Y15933D01*
X41209D01*
X40206Y15664D01*
X39306Y15145D01*
X38572Y14410D01*
X38052Y13511D01*
X37784Y12507D01*
Y11469D01*
X38052Y10465D01*
X38572Y9566D01*
X39306Y8832D01*
X40206Y8312D01*
X41209Y8043D01*
X42248D01*
X43251Y8312D01*
X44151Y8832D01*
X44885Y9566D01*
X45404Y10465D01*
X45673Y11469D01*
Y12507D01*
X45404Y13511D01*
X45144Y13962D01*
X77319Y46137D01*
X77819Y45930D01*
Y39521D01*
X53702Y15404D01*
X53251Y15664D01*
X52248Y15933D01*
X51209D01*
X50206Y15664D01*
X49306Y15145D01*
X48572Y14410D01*
X48052Y13511D01*
X47783Y12507D01*
Y11469D01*
X48052Y10465D01*
X48572Y9566D01*
X49306Y8832D01*
X50206Y8312D01*
X51209Y8043D01*
X52248D01*
X53251Y8312D01*
X54151Y8832D01*
X54885Y9566D01*
X55404Y10465D01*
X55673Y11469D01*
Y12507D01*
X55404Y13511D01*
X55144Y13962D01*
X79287Y38105D01*
X79787Y37898D01*
Y31489D01*
X63702Y15404D01*
X63251Y15664D01*
X62248Y15933D01*
X61209D01*
X60206Y15664D01*
X59306Y15145D01*
X58572Y14410D01*
X58052Y13511D01*
X57784Y12507D01*
Y11469D01*
X58052Y10465D01*
X58572Y9566D01*
X59306Y8832D01*
X60206Y8312D01*
X61209Y8043D01*
X62248D01*
X63251Y8312D01*
X64151Y8832D01*
X64885Y9566D01*
X65404Y10465D01*
X65673Y11469D01*
Y12507D01*
X65404Y13511D01*
X65144Y13962D01*
X81256Y30074D01*
X81756Y29867D01*
Y23458D01*
X73702Y15404D01*
X73251Y15664D01*
X72248Y15933D01*
X71209D01*
X70206Y15664D01*
X69306Y15145D01*
X68572Y14410D01*
X68052Y13511D01*
X67783Y12507D01*
Y11469D01*
X68052Y10465D01*
X68572Y9566D01*
X69306Y8832D01*
X70206Y8312D01*
X71209Y8043D01*
X72248D01*
X73251Y8312D01*
X74151Y8832D01*
X74885Y9566D01*
X75404Y10465D01*
X75673Y11469D01*
Y12507D01*
X75404Y13511D01*
X75144Y13962D01*
X83224Y22042D01*
X83724Y21835D01*
Y16388D01*
X83054Y15717D01*
X82248Y15933D01*
X81209D01*
X80206Y15664D01*
X79306Y15145D01*
X78572Y14410D01*
X78052Y13511D01*
X77784Y12507D01*
Y11469D01*
X78052Y10465D01*
X78572Y9566D01*
X79306Y8832D01*
X80206Y8312D01*
X81209Y8043D01*
X82248D01*
X83251Y8312D01*
X84151Y8832D01*
X84885Y9566D01*
X85404Y10465D01*
X85673Y11469D01*
Y12507D01*
X85404Y13511D01*
X84885Y14410D01*
X84758Y14537D01*
X85465Y15245D01*
X85686Y15575D01*
X85737Y15831D01*
X86081Y15994D01*
X86264Y16011D01*
X88313Y13962D01*
X88052Y13511D01*
X87783Y12507D01*
Y11469D01*
X88052Y10465D01*
X88572Y9566D01*
X89306Y8832D01*
X90206Y8312D01*
X91209Y8043D01*
X92248D01*
X93251Y8312D01*
X94151Y8832D01*
X94885Y9566D01*
X95404Y10465D01*
X95673Y11469D01*
Y12507D01*
X95404Y13511D01*
X94885Y14410D01*
X94151Y15145D01*
X93251Y15664D01*
X92248Y15933D01*
X91209D01*
X90206Y15664D01*
X89755Y15404D01*
X87732Y17426D01*
Y23835D01*
X88232Y24042D01*
X98313Y13962D01*
X98052Y13511D01*
X97783Y12507D01*
Y11469D01*
X98052Y10465D01*
X98572Y9566D01*
X99306Y8832D01*
X100206Y8312D01*
X101209Y8043D01*
X102248D01*
X103251Y8312D01*
X104151Y8832D01*
X104885Y9566D01*
X105404Y10465D01*
X105673Y11469D01*
Y12507D01*
X105404Y13511D01*
X104885Y14410D01*
X104151Y15145D01*
X103251Y15664D01*
X102248Y15933D01*
X101209D01*
X100206Y15664D01*
X99755Y15404D01*
X89701Y25458D01*
Y31867D01*
X90201Y32074D01*
X108313Y13962D01*
X108052Y13511D01*
X107783Y12507D01*
Y11469D01*
X108052Y10465D01*
X108572Y9566D01*
X109306Y8832D01*
X110206Y8312D01*
X111209Y8043D01*
X112248D01*
X113251Y8312D01*
X114151Y8832D01*
X114885Y9566D01*
X115404Y10465D01*
X115673Y11469D01*
Y12507D01*
X115404Y13511D01*
X114885Y14410D01*
X114151Y15145D01*
X113251Y15664D01*
X112248Y15933D01*
X111209D01*
X110206Y15664D01*
X109755Y15404D01*
X91669Y33489D01*
Y39898D01*
X92169Y40105D01*
X118313Y13962D01*
X118052Y13511D01*
X117783Y12507D01*
Y11469D01*
X118052Y10465D01*
X118572Y9566D01*
X119306Y8832D01*
X120206Y8312D01*
X121209Y8043D01*
X122248D01*
X123251Y8312D01*
X124151Y8832D01*
X124885Y9566D01*
X125404Y10465D01*
X125673Y11469D01*
Y12507D01*
X125404Y13511D01*
X124885Y14410D01*
X124151Y15145D01*
X123251Y15664D01*
X122248Y15933D01*
X121209D01*
X120206Y15664D01*
X119755Y15404D01*
X93638Y41521D01*
Y47930D01*
X94138Y48137D01*
X128313Y13962D01*
X128052Y13511D01*
X127784Y12507D01*
Y11469D01*
X128052Y10465D01*
X128572Y9566D01*
X129306Y8832D01*
X130206Y8312D01*
X131209Y8043D01*
X132248D01*
X133251Y8312D01*
X134151Y8832D01*
X134885Y9566D01*
X135404Y10465D01*
X135673Y11469D01*
Y12507D01*
X135404Y13511D01*
X134885Y14410D01*
X134151Y15145D01*
X133251Y15664D01*
X132248Y15933D01*
X131209D01*
X130206Y15664D01*
X129755Y15404D01*
X95606Y49552D01*
Y55961D01*
X96106Y56168D01*
X138313Y13962D01*
X138052Y13511D01*
X137784Y12507D01*
Y11469D01*
X138052Y10465D01*
X138572Y9566D01*
X139306Y8832D01*
X140206Y8312D01*
X141209Y8043D01*
X142248D01*
X143251Y8312D01*
X144151Y8832D01*
X144885Y9566D01*
X145404Y10465D01*
X145673Y11469D01*
Y12507D01*
X145404Y13511D01*
X144885Y14410D01*
X144151Y15145D01*
X143251Y15664D01*
X142248Y15933D01*
X141209D01*
X140206Y15664D01*
X139755Y15404D01*
X97575Y57584D01*
Y62047D01*
X98075Y62254D01*
X147792Y12537D01*
X147784Y12507D01*
Y11469D01*
X148052Y10465D01*
X148572Y9566D01*
X149306Y8832D01*
X150206Y8312D01*
X151209Y8043D01*
X152248D01*
X153251Y8312D01*
X154151Y8832D01*
X154885Y9566D01*
X155404Y10465D01*
X155673Y11469D01*
Y12507D01*
X155404Y13511D01*
X154885Y14410D01*
X154151Y15145D01*
X153251Y15664D01*
X152248Y15933D01*
X151209D01*
X150206Y15664D01*
X149306Y15145D01*
X148687Y14526D01*
X100949Y62264D01*
X101156Y62764D01*
X109511D01*
X157783Y14491D01*
Y8043D01*
X165673D01*
Y15933D01*
X159225D01*
X110654Y64504D01*
X110323Y64725D01*
X109933Y64803D01*
X101583D01*
Y65696D01*
X102083Y65967D01*
X102264Y65892D01*
X109941D01*
X110324Y66050D01*
X110482Y66433D01*
Y67860D01*
X112697D01*
X113080Y68019D01*
X113238Y68402D01*
Y72732D01*
X113080Y73115D01*
X112697Y73273D01*
X107726D01*
Y75488D01*
X107568Y75871D01*
X107185Y76029D01*
D02*
G37*
G36*
X21478Y15933D02*
X21209D01*
X20206Y15664D01*
X19306Y15145D01*
X18572Y14410D01*
X18052Y13511D01*
X17784Y12507D01*
Y12238D01*
X21478D01*
Y15933D01*
D02*
G37*
G36*
X25673Y11738D02*
X21978D01*
Y8043D01*
X22248D01*
X23251Y8312D01*
X24151Y8832D01*
X24885Y9566D01*
X25404Y10465D01*
X25673Y11469D01*
Y11738D01*
D02*
G37*
G36*
X21478D02*
X17784D01*
Y11469D01*
X18052Y10465D01*
X18572Y9566D01*
X19306Y8832D01*
X20206Y8312D01*
X21209Y8043D01*
X21478D01*
Y11738D01*
D02*
G37*
%LPD*%
G36*
X107185Y72732D02*
X112697D01*
Y68402D01*
X109941D01*
Y66433D01*
X102264D01*
Y75488D01*
X107185D01*
Y72732D01*
D02*
G37*
G36*
X69193Y66433D02*
X61516D01*
Y68402D01*
X58760D01*
Y72732D01*
X64272D01*
Y75488D01*
X69193D01*
Y66433D01*
D02*
G37*
D12*
X72843Y65949D02*
X72933Y66039D01*
X72843Y63102D02*
Y65949D01*
X21728Y11988D02*
X72843Y63102D01*
X11728Y11988D02*
X63524Y63784D01*
X70874D01*
X70965Y63874D01*
Y66039D01*
X74902Y55161D02*
Y66039D01*
X31728Y11988D02*
X74902Y55161D01*
X41728Y11988D02*
X76870Y47130D01*
Y66039D01*
X78839Y39098D02*
Y66039D01*
X51728Y11988D02*
X78839Y39098D01*
X80807Y31067D02*
Y66039D01*
X61728Y11988D02*
X80807Y31067D01*
X71728Y11988D02*
X82776Y23035D01*
Y66039D01*
X100492Y63874D02*
X100583Y63784D01*
X100492Y63874D02*
Y66039D01*
X100583Y63784D02*
X109933D01*
X161728Y11988D01*
X98614Y63157D02*
Y65949D01*
Y63157D02*
X148656Y13115D01*
X150601D01*
X151728Y11988D01*
X98524Y66039D02*
X98614Y65949D01*
X96555Y57161D02*
X141728Y11988D01*
X96555Y57161D02*
Y66039D01*
X94587Y49130D02*
X131728Y11988D01*
X94587Y49130D02*
Y66039D01*
X92618Y41098D02*
X121728Y11988D01*
X92618Y41098D02*
Y66039D01*
X90650Y33067D02*
Y66039D01*
Y33067D02*
X111728Y11988D01*
X88681Y25035D02*
Y66039D01*
Y25035D02*
X101728Y11988D01*
X86713Y17004D02*
Y66039D01*
Y17004D02*
X91728Y11988D01*
X81728Y12950D02*
X84744Y15966D01*
X81728Y11988D02*
Y12950D01*
X84744Y15966D02*
Y66039D01*
D16*
X70965D02*
D03*
X72933D02*
D03*
X74902D02*
D03*
X76870D02*
D03*
X78839D02*
D03*
X80807D02*
D03*
X82776D02*
D03*
X84744D02*
D03*
X86713D02*
D03*
X88681D02*
D03*
X90650D02*
D03*
X92618D02*
D03*
X94587D02*
D03*
X96555D02*
D03*
X98524D02*
D03*
X100492D02*
D03*
D17*
X65571Y69465D02*
D03*
X105886D02*
D03*
D18*
X161728Y11988D02*
D03*
D19*
X151728D02*
D03*
X141728D02*
D03*
X131728D02*
D03*
X121728D02*
D03*
X111728D02*
D03*
X101728D02*
D03*
X91728D02*
D03*
X81728D02*
D03*
X71728D02*
D03*
X61728D02*
D03*
X51728D02*
D03*
X41728D02*
D03*
X31728D02*
D03*
X21728D02*
D03*
X11728D02*
D03*
M02*
