M48
;Layer_Color=9474304
;FILE_FORMAT=2:4
INCH,TZ
;TYPE=PLATED
T01F00S00C0.0118
T02F00S00C0.1575
%
T01
X45100Y2750
X45650Y4050
X44250Y4563
X52950Y2500
X56850Y2550
X57300Y2400
X57850Y2200
X58250
X58450Y2450
X58850
X59250
X59650
X60050
X59850Y2200
X59450
X59050
X58050Y2450
X69150Y4550
X71150
X72500
X74250Y4600
X76550Y3850
X77600Y3900
Y4600
X81350Y4350
X82950Y4700
X82750Y4900
X84150Y5350
X83962Y5650
X83775Y6000
X83587Y6500
X83400Y7000
X82550Y6700
X82350Y6250
X81987Y5685
X82016Y5331
X80900Y5400
X80600Y5450
X83150Y5100
X82100Y7300
X81800
X79550Y8500
X78100Y7200
X76741Y7017
X76751Y8461
Y9811
X76750Y11026
X75750Y11650
X75900Y12300
X73800Y12050
X72450Y12150
X72000Y12050
X71000Y12200
X69623Y12277
X69450Y11500
X70208Y10858
X70350Y10450
X70750
X70550Y10200
X70950
X70949Y9463
X71350Y9475
X71450Y9900
X71200Y10700
X72000Y10600
X72750Y10950
X73150Y10850
X73486
X73750Y10600
X74000Y10350
X74250Y10100
X74500Y9913
X74817Y9867
X74699Y9449
X74250Y9650
X74050Y9350
X74150Y8900
X74400Y9075
Y8700
X74750Y7550
X73800Y7300
X73550Y6450
X73376Y6257
X73150Y6000
X71596Y5950
X71463Y6650
X71650Y7100
X72100
X72500
X72700Y7400
X72300
X71900
X71450
X70988Y7406
X71187Y7100
X70813Y7068
X70401Y7063
X70566Y7300
X70151Y6886
X70150Y6511
X70337Y6685
X70327Y6288
X70125Y6137
X69700Y5300
X69050Y6324
X68565Y6685
Y8485
X70300Y8675
X70700Y8600
X70445Y9483
X70150Y7738
X72900Y7850
X75100Y6500
X74800Y6100
X75650Y5750
X75099Y10163
X75100Y10750
X74609Y10959
X68800Y10350
X67622Y11463
X66950Y6750
X65750Y6650
X64350Y6150
X63150Y7337
X63149Y7735
X63150Y8125
Y8500
X63500
X63178Y8887
X62843Y8806
X62850Y9100
Y9425
X63200Y9500
X62850Y8300
Y7925
Y7525
Y7150
X61367Y6917
X61150Y6750
Y7125
Y6350
X61400Y6542
Y6150
X45150Y5700
X43200Y5200
T02
X-3937Y1969
X117717
Y14370
X-3937
M30
