M48
;Layer_Color=9474304
;FILE_FORMAT=2:4
INCH,TZ
;TYPE=PLATED
T01F00S00C0.0118
T02F00S00C0.1575
%
T01
X45000Y2850
X45650Y4050
X44250Y4563
X54400Y4500
X55100Y3700
Y2400
X55669Y2443
X56850Y2400
X57300
X57550Y2200
X57850
X58050Y2000
X58250Y2200
X58500
X58450Y2450
X58850
X59250
X59650
X60050
X59850Y2200
X59450
X59050
X58050Y2450
X54331Y2443
X53350Y2250
X52950Y2500
X55950Y4450
X69150Y4100
X70900Y4000
X71150Y4550
X72500
X74250Y4600
X76550Y3850
X77600Y3900
Y4600
X78800Y4250
X81350Y4350
X82950Y4700
X82750Y4900
X77600Y2250
X84150Y5350
X84250Y5600
X83962Y5650
X84050Y5950
X83775Y6000
X83800Y6300
X83587Y6500
X83700Y6850
X83400Y7000
X82800Y6500
X82550Y6700
X82350Y6250
X81987Y5685
X82016Y5331
X82850Y5300
X83150Y5100
X80900Y5400
X80600Y5450
X81800Y7300
X82100
X79500Y7850
X78100Y7200
X76741Y7017
X76751Y8461
Y9811
X76750Y11026
X75750Y11650
X75900Y12300
X76150Y12900
X73800Y12050
X72450Y12150
X72000Y12050
X71000Y12200
X69623Y12277
X69450Y11500
X68200Y11450
X68800Y10350
X70350Y10450
X70750
X70550Y10200
X70950
X71200Y10400
Y10700
X71450Y9900
X71600Y9650
X71350Y9475
X70949Y9463
X70445Y9483
X70300Y8675
X70700Y8600
X70150Y7738
X70151Y6886
X70150Y6511
X70337Y6685
X70327Y6288
X70125Y6137
X70401Y7063
X70566Y7300
X70813Y7068
X71187Y7100
X71450Y7400
X71900
X72300
X72700
X73000Y7550
X72900Y7850
X72500Y7100
X72100
X71650Y6900
X71475Y6650
X71000Y6550
X71596Y5950
X73150Y6000
X73376Y6257
X73550Y6450
X73800Y6250
X74800Y6400
Y6100
X75100Y6500
X75650Y5750
X74750Y7550
X74550Y7400
X74400Y8700
Y9075
X73993Y8869
X73850Y9150
X74050Y9350
X74250Y9650
X74050Y9900
X74250Y10100
X74500Y9913
X74817Y9867
X74699Y9449
X75099Y10163
X75100Y10750
X74609Y10959
X74000Y10350
X73650Y10250
X73750Y10600
X73450Y10550
X73486Y10850
X73150
X72900Y10700
X72750Y10950
X70208Y10858
X68565Y8485
Y6685
X69050Y6324
X69700Y5300
X66950Y6750
X66650Y6700
X65650Y7350
X64600Y6350
X64350Y6150
X63700Y7150
Y7547
Y7950
X63150Y8125
Y8500
X63500
X63200Y8900
X62843Y8806
X62600Y9000
X63050Y9400
X62850Y8300
X63149Y7735
X63150Y7337
X63450Y6950
X61367Y6917
X61150Y6750
Y7125
Y6350
X61400Y6542
Y6150
X61100Y5950
X64289Y9234
X64850Y9500
X65900Y10450
X45100Y5700
X43200Y5200
T02
X-3937Y1969
X117717
Y14370
X-3937
M30
